<?xml version="1.0" encoding="utf-8"?>
<!-- Generator: Adobe Illustrator 16.0.0, SVG Export Plug-In . SVG Version: 6.00 Build 0)  -->
<!DOCTYPE svg PUBLIC "-//W3C//DTD SVG 1.1//EN" "http://www.w3.org/Graphics/SVG/1.1/DTD/svg11.dtd">
<svg version="1.1" xmlns="http://www.w3.org/2000/svg" xmlns:xlink="http://www.w3.org/1999/xlink" x="0px" y="0px" width="250px"
	 height="250px" viewBox="0 0 250 250" enable-background="new 0 0 250 250" xml:space="preserve">
<g id="Layer_3">
	<g>
		<g>
			<path fill="#58595B" d="M90.435,177.417c10.778,0,21.074-3.138,29.851-8.97c-1.193-1.038-2.349-2.136-3.484-3.29
				c-2.56-2.617-4.85-5.447-6.871-8.43c-5.735,3.367-12.394,5.292-19.515,5.292c-21.306,0-38.646-17.34-38.646-38.646
				c0-16.397,10.277-30.446,24.712-36.047L65.338,75.471c-4.792,2.502-9.219,5.755-13.145,9.681
				c-10.201,10.201-15.82,23.769-15.82,38.204c0,14.435,5.62,28.002,15.82,38.203C62.413,171.797,76,177.417,90.435,177.417z"/>
			<path fill="#58595B" d="M139.762,90.233c5.813-3.484,12.587-5.505,19.842-5.505c21.306,0,38.646,17.341,38.646,38.646
				c0,21.306-17.341,38.646-38.646,38.646c-9.737,0-19.381-3.829-26.481-10.508c-7.679-7.236-12.164-17.59-12.164-28.138
				c0-3.368,0.442-6.658,1.251-9.776c-0.847-2.772-2.06-5.409-3.599-7.892c-1.848-2.925-4.118-5.542-6.736-7.756
				c-4.119,7.737-6.313,16.397-6.313,25.405c0,15.569,6.948,30.773,18.765,40.936c9.354,8.063,21.536,12.76,33.873,13.087
				c0.461,0.02,0.923,0.02,1.404,0.02c14.435,0,28.003-5.619,38.204-15.82c10.199-10.199,15.819-23.769,15.819-38.203
				s-5.62-28.002-15.819-38.203c-10.201-10.2-23.77-15.82-38.204-15.82c-10.912,0-21.324,3.214-30.177,9.199
				C133.353,81.938,136.836,85.884,139.762,90.233z"/>
			<path fill="#58595B" d="M122.845,80.167c-2.31-1.751-4.773-3.329-7.371-4.676l-11.105,11.835c0.327,0.135,0.674,0.27,1.001,0.404
				c8.141,3.426,15.012,9.662,19.169,17.456c4.465,8.373,5.697,18.36,3.406,27.561l1.214,2.983
				c2.001,4.907,5.195,9.276,9.199,12.701c3.194-6.08,5.176-12.721,5.869-19.649c0.174-1.79,0.27-3.599,0.27-5.389
				C144.477,106.496,136.162,90.291,122.845,80.167z"/>
			<path fill="#58595B" d="M86.913,90.541c0.943,1,2.232,1.521,3.503,1.521s2.56-0.501,3.502-1.521l4.658-4.946l19.342-20.554
				c1.501-1.597,1.732-4.023,0.558-5.87l-6.582-10.354c-0.886-1.385-2.406-2.233-4.062-2.233H73.037
				c-1.636,0-3.176,0.848-4.061,2.233L62.394,59.17c-1.174,1.847-0.962,4.273,0.558,5.87L86.913,90.541z"/>
		</g>
	</g>
	<g>
		<path fill="#58595B" d="M44.476,219.424l0.472,2.687h0.123l0.574-2.687l4.43-14.109h3.24l4.45,14.109l0.636,2.994h0.123
			l0.595-2.994l3.486-14.109h4.02l-6.439,22.189h-3.261l-4.286-13.515l-0.923-3.773l-0.123,0.021l-0.882,3.753l-4.225,13.515h-3.261
			l-6.439-22.189h4.02L44.476,219.424z"/>
		<path fill="#58595B" d="M79.791,227.935c-3.09,0-5.547-1.028-7.373-3.087c-1.825-2.057-2.738-4.727-2.738-8.008v-0.902
			c0-3.158,0.94-5.786,2.82-7.885s4.105-3.148,6.675-3.148c2.994,0,5.257,0.902,6.788,2.707s2.297,4.211,2.297,7.219v2.522H73.864
			l-0.062,0.103c0.041,2.127,0.581,3.875,1.62,5.245s2.495,2.056,4.368,2.056c1.367,0,2.567-0.195,3.599-0.584
			c1.032-0.391,1.924-0.927,2.676-1.61l1.579,2.628c-0.793,0.784-1.839,1.438-3.138,1.961
			C83.208,227.673,81.636,227.935,79.791,227.935z M79.175,208.083c-1.354,0-2.509,0.569-3.466,1.707s-1.545,2.564-1.764,4.281
			l0.041,0.103H84.22v-0.531c0-1.581-0.424-2.902-1.271-3.966C82.101,208.614,80.843,208.083,79.175,208.083z"/>
		<path fill="#58595B" d="M91.87,216.819c0-3.568,0.762-6.446,2.287-8.634s3.661-3.281,6.409-3.281c1.299,0,2.451,0.239,3.456,0.718
			s1.863,1.176,2.574,2.092v-12.202h4.04v31.992h-3.302l-0.472-2.728c-0.725,1.039-1.613,1.825-2.666,2.358s-2.276,0.8-3.671,0.8
			c-2.707,0-4.826-0.98-6.357-2.942s-2.297-4.543-2.297-7.742V216.819z M95.91,217.25c0,2.242,0.458,4.037,1.374,5.383
			c0.916,1.348,2.338,2.021,4.266,2.021c1.203,0,2.215-0.273,3.035-0.82s1.49-1.313,2.01-2.297V211.18
			c-0.52-0.916-1.193-1.644-2.02-2.184s-1.822-0.811-2.984-0.811c-1.941,0-3.374,0.8-4.296,2.399s-1.384,3.678-1.384,6.234V217.25z"
			/>
		<path fill="#58595B" d="M120.642,227.504h-2.461v-29.859h2.461V227.504z"/>
		<path fill="#58595B" d="M130.506,205.314l0.227,3.876c0.711-1.367,1.67-2.423,2.881-3.169c1.209-0.744,2.643-1.117,4.297-1.117
			c2.406,0,4.238,0.735,5.496,2.205s1.887,3.763,1.887,6.88v13.515h-2.461v-13.521c0-2.548-0.477-4.35-1.426-5.404
			c-0.951-1.055-2.301-1.582-4.051-1.582c-1.723,0-3.127,0.456-4.215,1.366c-1.086,0.911-1.869,2.12-2.348,3.627v15.515h-2.461
			v-22.189H130.506z"/>
		<path fill="#58595B" d="M158.027,221.946l0.718,2.604h0.123l0.779-2.604l6.029-16.632h2.543l-8.429,22.189h-1.969l-8.449-22.189
			h2.543L158.027,221.946z"/>
		<path fill="#58595B" d="M175.008,198.957h-2.44v-3.445h2.44V198.957z M175.008,227.504h-2.44v-22.189h2.44V227.504z"/>
		<path fill="#58595B" d="M185.651,199.634v5.681h4.881v2.01h-4.881v14.458c0,1.449,0.263,2.479,0.789,3.087
			s1.228,0.912,2.103,0.912c0.396,0,0.782-0.017,1.159-0.051c0.375-0.034,0.81-0.093,1.302-0.175l0.369,1.825
			c-0.41,0.178-0.909,0.314-1.497,0.41s-1.176,0.144-1.764,0.144c-1.559,0-2.772-0.492-3.641-1.477s-1.302-2.543-1.302-4.676
			v-14.458h-3.835v-2.01h3.835v-5.681H185.651z"/>
		<path fill="#58595B" d="M204.067,227.935c-2.775,0-5.083-1.025-6.922-3.076s-2.758-4.648-2.758-7.793v-1.128
			c0-3.172,0.912-5.804,2.738-7.896c1.824-2.092,4.036-3.138,6.634-3.138c2.721,0,4.86,0.861,6.419,2.584s2.338,4.02,2.338,6.891
			v2.092h-15.668v0.594c0,2.496,0.663,4.584,1.989,6.262s3.069,2.517,5.229,2.517c1.531,0,2.837-0.212,3.917-0.636
			s2.003-1.032,2.769-1.825l1.046,1.682c-0.834,0.879-1.891,1.576-3.169,2.095C207.352,227.676,205.831,227.935,204.067,227.935z
			 M203.76,206.996c-1.818,0-3.343,0.692-4.573,2.076s-1.948,3.118-2.153,5.204l0.041,0.103h13.002v-0.613
			c0-1.923-0.567-3.531-1.702-4.827C207.239,207.644,205.701,206.996,203.76,206.996z"/>
	</g>
</g>
<g id="AmbiPortal" display="none">
	<g display="inline">
		<path fill="#D1D3D4" d="M198.524,65.375c1.557-8.793-0.97-18.192-7.673-25.1c-8.627-8.887-21.585-10.99-32.292-6.27
			c-4.5-8.682-12.741-15.313-23.075-17.353c-16.722-3.306-32.982,6.58-38.06,22.428c-8.111-3.225-17.521-3.107-25.91,1.19
			C56.08,48.161,49.968,67.06,57.848,82.498c-9.306,2.764-17.212,9.749-20.7,19.592c-5.789,16.342,2.757,34.294,19.107,40.095
			c6.319,2.245,12.848,2.286,18.845,0.609c9.066-3.519,39.971-1.545,36.78,39.729c0,0,3.919-18.356,3.496-27.206
			c-0.259-5.246-3.856-11.997-9.108-14.614c-4.708-2.359-15.199-5.847-22.359-10.312c-7.818-4.871-7.805-14.46,6.038-10.949
			c7.834,1.984,15.74,7.268,18.753,4.704c2.355-2.001-2.772-12.083-6.965-22.65c-3.911-9.813-7.308-19.755-7.603-20.593
			c-1.991-5.583-1.563-9.366,1.93-10.707c2.722-1.041,5.982-0.482,8.604,5.346c7.079,15.686,9.47,31.813,14.551,31.059
			c5.233-0.791,0.076-23.157,1.535-41.077c0.527-6.458,1.873-9.271,6.04-9.323c3.67-0.068,5.874,3.179,6.103,10.841
			c0.705,24.389-3.681,38.798,2.796,39.29c3.8,0.285,4.962-13.41,12.818-31.642c1.393-3.252,3.775-9.234,8.766-7.185
			c4.538,1.863,3.661,7.152,1.566,12.039c-9.101,21.177-14.42,29.861-10.332,32.016c2.1,1.107,4.895-1.295,8.572-5.625
			c3.736-4.411,7.314-9.143,8.085-10.076c2.49-3.096,5.763-4.484,8.074-2.213c1.693,1.66,1.284,5.623-1.611,9.122
			c-5.774,6.978-10.884,12.388-14.452,16.812c-4.918,6.076-7.376,10.084-8.583,12.057c-2.418,3.904-5.806,8.441-7.825,20.337
			c-1.823,10.755,3.869,25.966,4.696,29.84c-7.095-56.708,28.598-61.944,39.918-61.792c14.712,0.27,27.467-10.725,29.105-25.645
			C215.855,81.97,209.114,70.574,198.524,65.375"/>
		<g>
			<path fill="#D1D3D4" d="M229.971,195.289v-0.252c0-1.265-0.709-2.123-1.818-2.123c-1.262,0-1.92,0.809-1.92,2.324v0.303v25.754
				v0.303c0,3.131,1.566,5.352,3.637,5.352c1.012,0,1.869-0.807,1.869-1.815c0-0.656-0.254-1.111-0.908-1.615
				c-0.656-0.508-0.859-1.012-0.859-2.224v-0.303V195.289L229.971,195.289z M219.365,220.689V204.58c0-1.16-0.758-1.972-1.867-1.972
				c-0.857,0-1.516,0.558-1.77,1.416c-0.1,0.402-0.201,0.505-0.402,0.453c-0.102,0-0.201,0-0.252-0.051c-0.053,0-0.15,0-0.254-0.103
				c-2.121-1.313-3.787-1.815-5.906-1.815c-3.283,0-6.262,1.362-8.23,3.838c-1.818,2.224-2.525,4.442-2.525,8.078
				c0,3.688,0.707,6.01,2.426,8.131c1.969,2.424,5.199,3.938,8.33,3.938c2.373,0,4.596-0.756,6.564-2.322
				c0.201-0.201,0.303-0.201,0.404-0.201s0.201,0,0.252,0.152c0.857,1.414,1.918,2.17,3.182,2.17c0.959,0,1.717-0.908,1.717-2.021
				c0-0.455-0.15-0.907-0.555-1.211l-0.203-0.2c-0.654-0.607-0.908-1.113-0.908-2.021v-0.15H219.365z M215.527,213.973v0.506
				c0,2.928-0.199,3.836-1.162,5.451c-1.059,1.719-3.182,2.828-5.451,2.828c-2.777,0-5.402-1.715-6.313-4.141
				c-0.354-0.959-0.557-2.474-0.557-4.343c0-1.061,0.051-1.969,0.15-2.524c0.605-3.18,3.434-5.605,6.666-5.605
				c1.971,0,3.891,0.91,5.15,2.475C215.225,210.084,215.527,211.145,215.527,213.973 M191.846,202.156l0.051-7.221v-0.252
				c0-1.314-0.758-2.123-1.918-2.123c-1.213,0-1.92,0.809-1.92,2.123v0.301l-0.051,6.92v0.201v0.102
				c0,0.504-0.152,0.605-0.707,0.605h-0.104h-0.148c-1.717,0-2.576,0.656-2.576,1.971c0,1.209,0.809,1.867,2.523,1.867h0.152h0.049
				c0.607,0,0.762,0.102,0.762,0.555v0.203l-0.104,14.34v0.103c0,3.535,1.363,4.849,4.848,4.849c1.717,0,2.627-0.605,2.627-1.869
				c0-1.062-0.607-1.717-1.719-1.867l-0.453-0.051c-1.16-0.201-1.465-0.605-1.465-2.07v-0.252l0.102-13.281v-0.102
				c0-0.504,0.051-0.556,0.707-0.556h0.705h0.203c1.313,0,2.121-0.706,2.121-1.92c0-1.411-0.707-1.866-2.93-1.918
				c-0.707,0-0.758,0-0.758-0.555v-0.103H191.846z M172.404,212.457v-0.303c0-3.638,1.768-5.857,4.697-5.857
				c0.756,0,1.666,0.404,2.777,1.213c0.555,0.352,0.758,0.455,1.109,0.455c1.012,0,1.869-0.91,1.869-1.973
				c0-0.605-0.252-1.109-0.91-1.613c-1.361-1.111-3.129-1.771-4.846-1.771c-1.264,0-2.932,0.558-4.244,1.363
				c-0.201,0.151-0.252,0.151-0.303,0.151c-0.1,0-0.201,0-0.402-0.303c-0.354-0.604-0.959-0.908-1.615-0.908
				c-1.264,0-1.92,0.857-1.92,2.625v0.252v18.23v0.303c0,1.615,0.605,2.322,1.92,2.322c1.313,0,1.867-0.707,1.867-2.424v-0.301
				V212.457L172.404,212.457z M163.873,214.074c-0.154-6.969-4.496-11.867-10.504-11.867c-1.869,0-3.688,0.504-5.305,1.517
				c-3.938,2.373-5.352,5.201-5.352,10.553c0,1.818,0.201,3.435,0.504,4.746c1.111,4.345,5.354,7.474,10.049,7.474
				c6.314,0,10.605-4.847,10.605-12.017v-0.405H163.873z M160.033,213.67v0.453c0,1.414-0.102,2.627-0.303,3.586
				c-0.658,2.879-3.383,5-6.414,5c-3.232,0-6.059-2.373-6.514-5.455c-0.102-0.707-0.203-2.322-0.203-3.687
				c0-1.11,0.053-1.918,0.152-2.475c0.506-2.879,3.332-5.052,6.666-5.052C157.559,206.043,159.932,208.771,160.033,213.67
				 M122.414,205.033l-0.102,0.103c-0.051,0.103-0.15,0.103-0.201,0.103c-0.102,0-0.152,0-0.152-0.304
				c-0.102-1.11-0.908-1.92-1.971-1.92c-1.211,0-1.816,0.81-1.816,2.373v0.305l-0.102,28.984v0.103c0,1.413,0.707,2.221,1.869,2.221
				c1.264,0,1.971-0.808,1.971-2.271v-0.354l0.049-9.039v-0.15c0-0.203,0.102-0.203,0.203-0.303c0.102,0,0.15,0,0.404,0.252
				c1.412,1.111,4.141,1.918,6.209,1.918c2.627,0,5.203-1.01,7.121-2.879c2.424-2.373,3.332-4.947,3.332-9.342
				c0-7.222-4.189-11.916-10.654-11.916c-2.322,0-4.443,0.707-6.008,2.02L122.414,205.033z M135.441,215.285
				c-0.051,2.777-0.303,3.787-1.262,5.252c-1.264,1.769-3.133,2.777-5.354,2.777c-2.424,0-4.596-1.213-5.857-3.232
				c-0.959-1.563-1.059-2.067-1.059-5.807c0-2.576,0.252-3.586,1.313-4.949c1.211-1.516,3.383-2.574,5.352-2.574
				c2.121,0,4.445,1.214,5.707,2.929c0.908,1.213,1.162,2.321,1.162,5.051v0.554H135.441z"/>
			<path fill="#D1D3D4" d="M113.547,195.036c0-1.313-0.857-2.222-2.069-2.222c-1.263,0-2.224,0.908-2.224,2.169
				c0,1.213,0.961,2.172,2.172,2.172C112.588,197.155,113.547,196.196,113.547,195.036 M109.457,224.272v0.252
				c0,1.465,0.655,2.223,1.818,2.223c1.313,0,2.02-0.906,2.02-2.627v-0.197v-18.434v-0.254c0-1.264-0.808-2.223-1.918-2.223
				s-1.92,0.91-1.92,2.072v0.301V224.272L109.457,224.272z M87.189,204.376v-8.988v-0.352c0-1.517-0.708-2.323-1.971-2.323
				c-1.161,0-1.869,0.807-1.869,2.222v0.148l0.103,29.035v0.254c0,1.615,0.605,2.322,1.816,2.322c1.062,0,1.87-0.707,2.021-1.869
				c0-0.201,0.102-0.201,0.152-0.303c0.049,0,0.102,0,0.15,0.102l0.102,0.104l0.152,0.15c1.563,1.264,3.686,1.971,6.008,1.971
				c3.688,0,7.171-1.92,9.09-5.104c1.109-1.867,1.566-3.887,1.566-7.018c0-4.141-0.959-6.768-3.334-9.09
				c-1.918-1.869-4.494-2.93-7.121-2.93c-2.12,0-4.797,0.857-6.209,1.92c-0.103,0.1-0.202,0.1-0.202,0.15
				c-0.052,0.051-0.153,0.051-0.255,0.051c-0.149,0-0.199,0-0.199-0.303V204.376L87.189,204.376z M100.721,214.528v0.504
				c0,2.729-0.252,3.787-1.161,5.049c-1.16,1.666-3.636,2.93-5.706,2.93c-1.969,0-4.092-1.01-5.352-2.574
				c-1.162-1.414-1.313-2.172-1.313-5.605c0-3.029,0.101-3.635,1.06-5.15c1.313-2.02,3.435-3.232,5.857-3.232
				c2.171,0,4.091,1.01,5.354,2.828C100.42,210.69,100.672,211.749,100.721,214.528 M77.343,211.042v-0.252
				c0-4.645-3.787-8.18-8.736-8.18c-2.323,0-4.545,0.857-6.413,2.475c-0.202,0.201-0.303,0.25-0.454,0.25s-0.303-0.049-0.655-0.352
				c-1.719-1.516-3.89-2.324-6.061-2.324c-1.563,0-2.828,0.354-4.19,1.111c-0.354,0.201-0.506,0.303-0.605,0.254
				c-0.102,0-0.202,0-0.253-0.201l-0.151-0.154c-0.403-0.605-0.857-0.857-1.515-0.857c-1.262,0-1.969,0.857-1.969,2.373v0.201
				v18.383v0.252c0,1.869,0.555,2.574,1.919,2.574c1.313,0,1.918-0.857,1.918-2.727v-0.201v-11.059v-0.254
				c0-3.938,1.616-5.908,4.848-5.908c3.131,0,4.696,1.92,4.696,5.758v0.203v11.814v0.203c0,1.363,0.758,2.17,1.919,2.17
				s1.969-0.857,1.969-2.17v-0.404v-11.514v-0.252c0-3.736,1.767-5.809,4.948-5.809c3.081,0,4.849,1.869,4.849,5.102v0.252v12.422
				v0.152c0,1.414,0.706,2.221,1.867,2.221c1.212,0,2.071-0.857,2.071-2.271v-0.252L77.343,211.042L77.343,211.042z M39.47,220.687
				v-16.107c0-1.16-0.757-1.969-1.869-1.969c-0.858,0-1.515,0.555-1.767,1.414c-0.103,0.402-0.202,0.504-0.404,0.455
				c-0.102,0-0.202,0-0.251-0.053c-0.051,0-0.152,0-0.254-0.104c-2.12-1.313-3.787-1.816-5.908-1.816
				c-3.282,0-6.261,1.363-8.23,3.84c-1.818,2.221-2.524,4.441-2.524,8.078c0,3.688,0.706,6.01,2.423,8.131
				c1.969,2.424,5.201,3.938,8.332,3.938c2.374,0,4.596-0.756,6.565-2.322c0.201-0.201,0.304-0.201,0.403-0.201
				c0.101,0,0.203,0,0.252,0.15c0.858,1.414,1.919,2.172,3.182,2.172c0.96,0,1.717-0.908,1.717-2.02
				c0-0.455-0.151-0.908-0.556-1.211l-0.201-0.201c-0.656-0.607-0.909-1.113-0.909-2.021V220.687L39.47,220.687z M35.632,213.972
				v0.506c0,2.928-0.202,3.836-1.161,5.451c-1.062,1.719-3.181,2.83-5.455,2.83c-2.777,0-5.402-1.717-6.311-4.143
				c-0.354-0.959-0.558-2.475-0.558-4.342c0-1.061,0.051-1.969,0.153-2.525c0.605-3.182,3.433-5.604,6.665-5.604
				c1.969,0,3.889,0.906,5.149,2.473C35.33,210.083,35.632,211.144,35.632,213.972"/>
		</g>
	</g>
</g>
<g id="Layer_2">
</g>
</svg>
