<?xml version="1.0" encoding="utf-8"?>
<!-- Generator: Adobe Illustrator 16.0.0, SVG Export Plug-In . SVG Version: 6.00 Build 0)  -->
<!DOCTYPE svg PUBLIC "-//W3C//DTD SVG 1.1//EN" "http://www.w3.org/Graphics/SVG/1.1/DTD/svg11.dtd">
<svg version="1.1" xmlns="http://www.w3.org/2000/svg" xmlns:xlink="http://www.w3.org/1999/xlink" x="0px" y="0px" width="250px"
	 height="250px" viewBox="0 0 250 250" enable-background="new 0 0 250 250" xml:space="preserve">
<g id="Layer_1">
	<g id="Center_Text_2_">
		<g>
			<path fill="#E6E7E8" d="M82.694,40.343c-3.289,4.299-7.478,8.542-9.771,12.699c-2.065,3.715-2.897,6.891-2.292,10.156
				c0.629,3.393,3.015,4.994,5.376,4.556c2.362-0.438,3.448-2.728,3.113-4.533c-0.223-1.202-1.023-2.164-2.478-2.338l0.802-2.859
				c2.404,0.265,3.919,2.204,4.342,4.481c0.574,3.092-0.952,6.841-5.204,7.63c-4.596,0.854-9.717-1.129-10.825-7.099
				c-0.638-3.436,0.496-7.379,2.256-10.104c4.527-6.972,11.456-12.968,15.313-18.037c0.404-2.608,0.841-5.043,1.697-6.18
				l2.539,0.995c-0.012,2.09-0.692,4.171-1.86,6.255c0.489,11.016,3.644,33.757-1.416,44.559c-1.299,2.818-3.566,4.483-6.745,5.073
				c-3.178,0.59-5.278-1.153-5.797-3.945c-0.534-2.877,1.166-6.169,5.281-6.978l0.715,3.377c-2.556,0.829-3.307,2.524-3.068,3.813
				c0.231,1.245,1.269,1.808,2.428,1.593c1.847-0.343,2.995-1.577,3.973-3.492C84.688,72.629,81.57,54.636,82.694,40.343z"/>
			<path fill="#E6E7E8" d="M103.506,58.162c-0.032-0.172-0.064-0.343-0.104-0.559c-1.076-5.798,0.822-13.526,5.632-14.418
				c2.276-0.422,3.712,1.088,4.126,3.321c0.646,3.479-1.082,8.775-5.681,11.762c0.622,1.44,1.579,2.284,2.953,2.029
				c2.534-0.47,4.574-3.604,5.393-8.287c0.258-0.048,1.267,0.12,1.314,0.376c-1.103,6.026-2.852,10.971-7.061,11.752
				c-3.007,0.558-5.002-1.338-6.075-4.248c-0.542,0.189-1.101,0.293-1.659,0.396c-0.644,0.12-1.254,0.188-1.863,0.257
				c-0.798,3.123-2.514,5.842-5.564,6.408c-2.964,0.55-4.826-2.304-5.552-6.212c-0.446-2.405-0.476-5.198-0.087-7.892l1.344,0.063
				c-0.254-3.286,1.36-6.562,4.452-7.136c2.921-0.542,4.922,2.107,5.72,6.403c0.343,1.847,0.387,4.237,0.063,6.563
				c0.395-0.028,0.781-0.1,1.211-0.18C102.585,58.466,103.049,58.335,103.506,58.162z M92.321,59.66
				c0.462,2.491,1.433,4.133,2.55,3.926c0.901-0.167,1.562-1.401,2.051-3.313c-2.229-0.52-3.832-1.733-4.864-3.23
				C92.096,57.969,92.169,58.844,92.321,59.66z M92.934,53.148c0.383,2.062,1.81,4.24,4.333,5.15
				c0.305-2.189,0.331-4.682-0.028-6.614c-0.359-1.934-1.094-3.263-2.297-3.04C93.267,48.956,92.535,51.002,92.934,53.148z
				 M106.815,56.126c2.866-2.753,3.866-6.937,3.484-8.999c-0.152-0.816-0.556-1.319-1.114-1.215
				C107.038,46.31,106.093,51.995,106.815,56.126z"/>
			<path fill="#E6E7E8" d="M115.733,37.632c-0.037-0.438-0.074-0.875-0.146-1.262c-0.318-1.718-1.003-3.013-2.103-4.631l2.787-1.982
				c0.759,1.458,1.269,3.007,1.548,4.51c0.215,1.16,0.293,2.3,0.262,3.329L115.733,37.632z"/>
			<path fill="#E6E7E8" d="M125.936,56.221c0.733,0.841,1.313,1.089,2.129,0.938c1.073-0.199,1.532-1.083,1.244-2.63
				c-0.478-2.577-2.1-4.853-3.587-7.598c-0.729,4.445-1.876,9.279-3.458,14.637l-1.315-0.378c1.659-5.905,2.947-11.654,3.824-16.261
				c-0.59-1.267-1.025-2.653-1.304-4.156c-0.327-1.761-0.427-3.741-0.131-5.974l3.547-0.036c-0.016,2.313-0.186,4.744-0.47,7.285
				c0.304,0.92,0.722,1.731,1.396,2.495c2.006,2.426,4.514,5.649,5.155,8.862l0.031,0.172c0.568-1.483,0.961-3.2,1.295-4.994
				c0.257-0.047,1.266,0.121,1.313,0.377c-0.575,3.128-1.567,6.156-2.852,8.571l-0.167,0.298c-0.725,1.601-2.238,2.548-4.128,2.899
				c-2.019,0.375-3.866-0.483-4.794-2.131L125.936,56.221z"/>
		</g>
		<g>
			<path fill="#E6E7E8" d="M109.7,73.426c-1.768,5.116-1.006,12.722-0.629,19.993c5.202-1.695,7.65-8.396,6.565-14.239
				c-1.07-5.764-5.608-10.763-14.313-9.147c-8.979,1.667-11.87,9.261-10.786,15.104c0.823,4.431,3.935,7.87,8.366,7.048
				c0.588-0.11,1.122-0.291,1.61-0.503l1.253,3.257c-0.694,0.413-1.496,0.684-2.358,0.844c-6.432,1.193-10.857-3.421-11.941-9.264
				c-1.347-7.255,2.473-16.401,13.962-18.534c10.745-1.994,16.524,3.789,17.783,10.572c1.31,7.059-2.253,15.184-10.076,16.961
				c0.346,8.859-0.335,16.775-7.511,18.106c-4.549,0.844-7.546-1.317-8.288-5.317c-0.589-3.177,1.024-6.721,4.956-7.613l0.597,3.216
				c-1.996,0.613-2.926,2.814-2.591,4.618c0.473,2.548,2.656,3.604,4.853,3.197c10.078-1.871,0.466-25.683,4.755-38.852
				L109.7,73.426z"/>
			<path fill="#E6E7E8" d="M121.149,77.629c-0.262-1.411,0.445-3.287,2.17-3.606c1.294-0.241,2.018,0.599,2.221,1.696
				c0.263,1.413-0.451,3.249-2.177,3.568C122.109,79.52,121.346,78.688,121.149,77.629z M124.805,81.373
				c-0.237,6.372-0.53,11.13,0.067,14.346c0.211,1.138,0.679,1.254,1.032,1.189c1.02-0.189,1.906-2.626,2.795-7.456
				c0.195-0.037,1.148,0.07,1.192,0.306l0.008,0.038c-0.896,4.792-1.425,9.595-4.64,10.192c-2.117,0.394-3.187-1.437-3.689-4.142
				c-0.808-4.354-0.24-10.909-0.097-13.854L124.805,81.373z"/>
			<path fill="#E6E7E8" d="M130.45,97.362c0.307-0.098,0.919-0.293,1.232-0.351c0.196-0.036,0.394-0.073,0.597-0.07
				c1.356-2.522,1.813-9.462,1.229-12.6c-0.232-1.255-0.751-1.645-1.3-1.543c-1.372,0.255-1.482,2.506-2.311,6.999
				c0,0-1.135,0.008-1.193-0.304l-0.007-0.04c0.849-4.823,0.58-9.113,3.599-9.673c2.745-0.51,4.334,1.71,4.902,4.77
				c0.771,4.156-0.238,9.86-2.672,12.705c0.396,0.169,0.801,0.379,1.125,0.603c1.813-2.69,3.649-5.911,4.496-10.53
				c0.274-0.051,1.142,0.031,1.186,0.267c-0.871,4.705-2.906,8.166-4.786,11.151c0.746,0.956,1.253,2.161,1.493,3.455
				c0.654,3.53-0.622,7.579-4.034,8.212c-1.449,0.27-2.595-0.653-2.886-2.222c-0.531-2.862,1.14-5.445,2.896-8.002
				c-0.288-0.676-0.64-1.259-1.041-1.672c-0.37,0.19-0.787,0.349-1.219,0.428c-0.392,0.073-0.752,0.1-1.127,0.048L130.45,97.362z
				 M134.818,102.757c-0.059-0.313-0.148-0.58-0.207-0.894c-1.273,2.103-2.01,4.469-1.704,6.116c0.109,0.588,0.409,0.898,0.92,0.803
				C135.042,108.557,135.336,105.542,134.818,102.757z"/>
			<path fill="#E6E7E8" d="M141.899,95.237c0.307-0.098,0.92-0.293,1.234-0.351c0.195-0.037,0.393-0.073,0.596-0.07
				c1.356-2.522,1.813-9.462,1.23-12.6c-0.232-1.255-0.752-1.645-1.301-1.543c-1.373,0.255-1.482,2.506-2.311,6.999
				c0,0-1.135,0.008-1.192-0.305l-0.008-0.04c0.849-4.823,0.58-9.113,3.6-9.673c2.745-0.509,4.333,1.711,4.901,4.77
				c0.771,4.156-0.238,9.86-2.672,12.705c0.396,0.169,0.8,0.379,1.125,0.603c1.814-2.69,3.649-5.911,4.496-10.53
				c0.274-0.052,1.142,0.031,1.186,0.266c-0.871,4.705-2.906,8.166-4.786,11.152c0.745,0.956,1.253,2.161,1.493,3.455
				c0.654,3.53-0.622,7.579-4.033,8.212c-1.45,0.269-2.596-0.653-2.887-2.222c-0.531-2.862,1.14-5.444,2.896-8.002
				c-0.288-0.676-0.64-1.259-1.041-1.672c-0.37,0.19-0.787,0.349-1.219,0.428c-0.392,0.073-0.752,0.1-1.127,0.048L141.899,95.237z
				 M146.268,100.632c-0.058-0.313-0.147-0.58-0.206-0.894c-1.272,2.103-2.01,4.469-1.704,6.116c0.109,0.588,0.409,0.898,0.92,0.803
				C146.493,106.432,146.785,103.417,146.268,100.632z"/>
			<path fill="#E6E7E8" d="M155.489,94.581c-1.922,0.357-3.1-1.616-3.631-4.478c-1.026-5.529,0.479-14.246,4.205-14.938
				c1.451-0.269,2.435,0.44,3.036,2.154l0.024-2.275l2.784-0.518c-0.227,6.208-0.558,11.421,0.229,15.657
				c1.237,6.666,5.827,9.099,10.768,8.183c6.392-1.186,9.949-7.809,8.624-14.947c-1.105-5.96-5.012-8.642-11.409-8.145l-0.3-3.149
				c8.43-0.916,13.08,3.819,14.34,10.603c1.317,7.097-2.304,16.005-11.009,17.62c-7.922,1.47-12.385-2.691-13.848-10.573
				c-0.029-0.157-0.059-0.314-0.095-0.51C158.751,91.825,157.763,94.159,155.489,94.581z M155.08,89.099
				c0.226,1.215,0.614,1.995,1.202,1.886c1.805-0.335,2.853-7.141,2.176-10.789c-0.27-1.45-0.812-2.404-1.674-2.244
				C155.138,78.258,154.418,85.532,155.08,89.099z"/>
		</g>
	</g>
	<g id="_x35__1_">
		<path fill="none" stroke="#F1F1F2" stroke-width="1.8992" stroke-miterlimit="10" d="M122.42,1.208
			c1.419-0.664,3.741-0.664,5.16,0l3.547,1.66c1.419,0.664,3.84,0.97,5.38,0.68l3.852-0.726c1.54-0.29,3.789,0.288,4.999,1.284
			l3.022,2.49c1.21,0.996,3.479,1.895,5.042,1.996l3.905,0.255c1.563,0.102,3.599,1.22,4.522,2.486l2.312,3.166
			c0.924,1.266,2.898,2.7,4.387,3.188l3.72,1.218c1.488,0.488,3.182,2.078,3.762,3.533l1.451,3.64
			c0.58,1.456,2.136,3.336,3.456,4.179l3.303,2.107c1.32,0.843,2.565,2.804,2.766,4.358l0.5,3.887c0.2,1.554,1.239,3.762,2.31,4.907
			l2.674,2.862c1.07,1.145,1.788,3.354,1.595,4.909l-0.481,3.887c-0.193,1.555,0.265,3.952,1.016,5.327l1.879,3.437
			c0.751,1.375,0.897,3.693,0.324,5.151l-1.436,3.648c-0.573,1.458-0.726,3.894-0.34,5.412l0.967,3.799
			c0.386,1.519-0.049,3.799-0.968,5.069l-2.296,3.173c-0.918,1.27-1.673,3.59-1.676,5.157l-0.009,3.918
			c-0.003,1.567-0.991,3.668-2.196,4.67l-3.014,2.506c-1.205,1.001-2.512,3.063-2.905,4.579l-0.982,3.791
			c-0.394,1.517-1.874,3.307-3.29,3.977l-3.539,1.676c-1.416,0.67-3.195,2.341-3.952,3.712l-1.895,3.432
			c-0.757,1.371-2.636,2.736-4.174,3.033l-3.848,0.744c-1.538,0.297-3.677,1.473-4.751,2.611l-2.687,2.85
			c-1.074,1.141-3.233,1.996-4.798,1.9l-3.913-0.236c-1.564-0.096-3.928,0.512-5.253,1.35l-3.31,2.09
			c-1.325,0.836-3.629,1.127-5.12,0.646l-3.727-1.201c-1.491-0.482-3.931-0.482-5.422-0.002l-3.728,1.203
			c-1.491,0.48-3.795,0.189-5.12-0.646l-3.312-2.092c-1.325-0.836-3.688-1.443-5.252-1.348l-3.909,0.236
			c-1.564,0.096-3.723-0.76-4.798-1.9l-2.686-2.85c-1.075-1.139-3.213-2.314-4.752-2.611l-3.846-0.744
			c-1.539-0.297-3.417-1.662-4.175-3.033l-1.895-3.432c-0.758-1.372-2.536-3.042-3.953-3.712l-3.541-1.676
			c-1.417-0.67-2.896-2.46-3.29-3.977l-0.982-3.791c-0.393-1.517-1.7-3.578-2.905-4.58l-3.013-2.505
			c-1.205-1.002-2.193-3.104-2.197-4.67l-0.009-3.918c-0.003-1.567-0.758-3.887-1.676-5.157l-2.295-3.173
			c-0.918-1.27-1.354-3.55-0.967-5.069l0.966-3.799c0.386-1.519,0.233-3.954-0.34-5.412l-1.435-3.648
			c-0.573-1.458-0.427-3.776,0.324-5.151l1.88-3.438c0.751-1.375,1.209-3.772,1.016-5.327l-0.482-3.887
			c-0.193-1.555,0.524-3.764,1.594-4.908l2.676-2.863c1.07-1.145,2.109-3.353,2.309-4.907l0.5-3.887
			c0.2-1.554,1.444-3.515,2.765-4.358l3.302-2.107c1.321-0.843,2.876-2.723,3.457-4.179l1.45-3.64
			c0.58-1.456,2.273-3.045,3.762-3.533l3.721-1.218c1.489-0.488,3.463-1.922,4.387-3.188l2.31-3.165
			c0.924-1.266,2.959-2.385,4.522-2.486l3.908-0.255c1.563-0.102,3.833-1,5.042-1.996l3.024-2.491
			c1.209-0.996,3.458-1.574,4.999-1.284l3.849,0.726c1.54,0.29,3.96-0.016,5.379-0.68L122.42,1.208z"/>
	</g>
	<g>
		<path fill="#E6E7E8" d="M41.52,184.763c-4.729,4.266-10.484,8.274-14.03,12.591c-3.186,3.854-4.831,7.349-4.831,11.255
			c0,4.06,2.416,6.424,5.242,6.424c2.827,0,4.574-2.415,4.574-4.574c0-1.438-0.72-2.724-2.364-3.237l1.542-3.135
			c2.724,0.822,4.06,3.392,4.06,6.115c0,3.7-2.569,7.709-7.657,7.709c-5.499,0-10.998-3.392-10.998-10.535
			c0-4.111,2.159-8.429,4.78-11.203c6.732-7.093,16.034-12.54,21.584-17.576c1.028-2.93,2.056-5.653,3.289-6.784l2.724,1.696
			c-0.462,2.415-1.696,4.677-3.495,6.835c-1.799,12.848-3.032,39.829-11.204,51.237c-2.107,2.981-5.087,4.42-8.891,4.42
			c-3.803,0-5.858-2.467-5.858-5.808c0-3.442,2.672-6.886,7.606-6.938l0.103,4.061c-3.135,0.41-4.368,2.209-4.368,3.751
			c0,1.49,1.079,2.364,2.467,2.364c2.21,0,3.803-1.182,5.345-3.187C36.894,222.535,37.151,201.054,41.52,184.763z"/>
		<path fill="#E6E7E8" d="M61.766,209.842c0-0.206,0-0.411,0-0.668c0-6.938,3.854-15.469,9.61-15.469c2.724,0,4.06,2.056,4.06,4.728
			c0,4.163-3.135,9.919-9.097,12.386c0.411,1.799,1.336,2.98,2.981,2.98c3.032,0,6.064-3.187,8.017-8.428
			c0.309,0,1.439,0.411,1.439,0.719c-2.57,6.732-5.653,12.077-10.689,12.077c-3.597,0-5.499-2.621-6.116-6.218
			c-0.668,0.103-1.336,0.103-2.004,0.103c-0.771,0-1.491-0.052-2.21-0.103c-1.593,3.442-4.163,6.218-7.812,6.218
			c-3.546,0-5.088-3.7-5.088-8.377c0-2.878,0.565-6.115,1.593-9.147l1.542,0.36c0.411-3.854,2.981-7.298,6.681-7.298
			c3.495,0,5.242,3.494,5.242,8.634c0,2.21-0.462,4.984-1.336,7.605c0.462,0.052,0.925,0.052,1.439,0.052
			C60.636,209.996,61.201,209.944,61.766,209.842z M48.507,209.174c0,2.98,0.771,5.088,2.107,5.088c1.079,0,2.107-1.285,3.083-3.392
			c-2.467-1.08-4.06-2.827-4.934-4.78C48.61,207.169,48.507,208.197,48.507,209.174z M50.614,201.773
			c0,2.467,1.182,5.293,3.906,6.887c0.822-2.467,1.388-5.345,1.388-7.657c0-2.313-0.565-4.009-2.004-4.009
			C51.899,196.994,50.614,199.204,50.614,201.773z M66.032,208.197c3.906-2.569,5.961-7.194,5.961-9.661
			c0-0.977-0.36-1.645-1.028-1.645C68.396,196.892,66.083,203.264,66.032,208.197z"/>
		<path fill="#E6E7E8" d="M80.317,188.72c0.051-0.514,0.103-1.027,0.103-1.49c0-2.056-0.514-3.7-1.439-5.808l3.649-1.695
			c0.565,1.85,0.822,3.751,0.822,5.55c0,1.388-0.154,2.724-0.411,3.906L80.317,188.72z"/>
		<path fill="#E6E7E8" d="M88.128,212.411c0.668,1.131,1.285,1.542,2.261,1.542c1.285,0,2.004-0.925,2.004-2.775
			c0-3.083-1.388-6.063-2.519-9.559c-1.799,4.985-4.163,10.33-7.144,16.188l-1.438-0.72c3.186-6.476,5.91-12.848,7.914-17.987
			c-0.411-1.593-0.617-3.289-0.617-5.088c0-2.106,0.308-4.419,1.13-6.938l4.111,0.72c-0.514,2.672-1.233,5.447-2.107,8.325
			c0.154,1.131,0.462,2.158,1.08,3.187c1.798,3.237,4.008,7.503,4.06,11.357v0.206c0.977-1.594,1.799-3.495,2.57-5.499
			c0.308,0,1.439,0.411,1.439,0.719c-1.336,3.495-3.135,6.784-5.139,9.302l-0.257,0.309c-1.182,1.696-3.135,2.467-5.396,2.467
			c-2.416,0-4.368-1.388-5.087-3.494L88.128,212.411z"/>
		<path fill="#E6E7E8" d="M138.747,180.6c-3.442,6.064-4.265,15.88-5.499,25.183c6.99-0.926,11.666-8.84,11.666-16.497
			c0-7.555-4.573-14.955-15.982-14.955c-11.769,0-17.216,8.942-17.216,16.6c0,5.808,3.135,10.896,8.942,10.896
			c0.771,0,1.49-0.104,2.158-0.258l0.822,4.42c-0.976,0.359-2.056,0.514-3.186,0.514c-8.428,0-12.951-6.886-12.951-14.543
			c0-9.508,6.989-20.197,22.047-20.197c14.081,0,20.042,8.686,20.042,17.576c0,9.25-6.424,18.706-16.753,19.117
			c-1.645,11.307-4.369,21.174-13.773,21.174c-5.961,0-9.25-3.443-9.25-8.686c0-4.163,2.878-8.274,8.068-8.479v4.214
			c-2.672,0.309-4.368,2.878-4.368,5.242c0,3.34,2.518,5.19,5.396,5.19c13.208,0,6.63-32.428,15.16-48.103L138.747,180.6z"/>
		<path fill="#E6E7E8" d="M156.014,194.219c-1.798,8.017-3.289,13.979-3.289,18.192c0,1.49,0.565,1.748,1.028,1.748
			c1.336,0,3.032-2.879,5.293-8.788c0.257,0,1.439,0.359,1.439,0.668v0.051c-2.262,5.859-4.06,11.82-8.274,11.82
			c-2.775,0-3.7-2.569-3.7-6.115c0-5.705,2.262-13.876,3.135-17.576H156.014z M152.263,188.617c0-1.851,1.336-4.06,3.598-4.06
			c1.695,0,2.415,1.232,2.415,2.672c0,1.85-1.336,4.009-3.598,4.009C153.033,191.238,152.263,190.005,152.263,188.617z"/>
		<path fill="#E6E7E8" d="M159.405,215.804c0.411-0.052,1.233-0.154,1.645-0.154c0.257,0,0.515,0,0.771,0.051
			c2.313-2.878,4.522-11.563,4.522-15.674c0-1.645-0.565-2.262-1.285-2.262c-1.799,0-2.467,2.826-4.574,8.325
			c0,0-1.438-0.257-1.438-0.668v-0.051c2.21-5.91,2.878-11.409,6.835-11.409c3.598,0,5.088,3.187,5.088,7.194
			c0,5.448-2.621,12.438-6.373,15.47c0.463,0.308,0.926,0.668,1.285,1.027c2.93-2.98,6.013-6.63,8.172-12.282
			c0.359,0,1.438,0.308,1.438,0.616c-2.21,5.756-5.602,9.662-8.686,13.002c0.72,1.388,1.079,3.032,1.079,4.729
			c0,4.625-2.569,9.456-7.04,9.456c-1.901,0-3.135-1.439-3.135-3.495c0-3.751,2.724-6.629,5.55-9.456
			c-0.205-0.925-0.514-1.747-0.925-2.364c-0.514,0.154-1.079,0.258-1.645,0.258c-0.514,0-0.977-0.052-1.438-0.206L159.405,215.804z
			 M163.671,223.666c0-0.411-0.051-0.771-0.051-1.182c-2.107,2.364-3.598,5.19-3.598,7.349c0,0.771,0.309,1.233,0.977,1.233
			C162.592,231.066,163.671,227.315,163.671,223.666z"/>
		<path fill="#E6E7E8" d="M174.411,215.804c0.411-0.052,1.233-0.154,1.645-0.154c0.257,0,0.515,0,0.771,0.051
			c2.313-2.878,4.522-11.563,4.522-15.674c0-1.645-0.565-2.262-1.285-2.262c-1.799,0-2.467,2.826-4.574,8.325
			c0,0-1.438-0.257-1.438-0.668v-0.051c2.21-5.91,2.878-11.409,6.835-11.409c3.598,0,5.088,3.187,5.088,7.194
			c0,5.448-2.621,12.438-6.373,15.47c0.463,0.308,0.926,0.668,1.285,1.027c2.93-2.98,6.013-6.63,8.172-12.282
			c0.359,0,1.438,0.308,1.438,0.616c-2.21,5.756-5.602,9.662-8.686,13.002c0.72,1.388,1.079,3.032,1.079,4.729
			c0,4.625-2.569,9.456-7.04,9.456c-1.901,0-3.135-1.439-3.135-3.495c0-3.751,2.724-6.629,5.55-9.456
			c-0.205-0.925-0.514-1.747-0.925-2.364c-0.514,0.154-1.079,0.258-1.645,0.258c-0.514,0-0.977-0.052-1.438-0.206L174.411,215.804z
			 M178.677,223.666c0-0.411-0.051-0.771-0.051-1.182c-2.107,2.364-3.598,5.19-3.598,7.349c0,0.771,0.309,1.233,0.977,1.233
			C177.598,231.066,178.677,227.315,178.677,223.666z"/>
		<path fill="#E6E7E8" d="M191.781,218.167c-2.518,0-3.546-2.775-3.546-6.526c0-7.246,3.957-17.936,8.839-17.936
			c1.902,0,2.981,1.13,3.341,3.443l0.565-2.878h3.648c-1.747,7.812-3.392,14.338-3.392,19.889c0,8.736,5.242,12.898,11.718,12.898
			c8.377,0,14.44-7.555,14.44-16.907c0-7.812-4.316-12.129-12.539-13.002l0.359-4.061c10.896,0.822,15.675,7.915,15.675,16.806
			c0,9.302-6.682,19.734-18.09,19.734c-10.381,0-15.058-6.321-15.058-16.651c0-0.205,0-0.411,0-0.668
			C196.561,215.443,194.762,218.167,191.781,218.167z M192.553,211.127c0,1.593,0.308,2.672,1.079,2.672
			c2.363,0,5.293-8.377,5.293-13.156c0-1.901-0.463-3.237-1.593-3.237C195.173,197.405,192.553,206.45,192.553,211.127z"/>
	</g>
	<g display="none">
		<g id="Center_Text_1_" display="inline">
			
				<rect x="40.304" y="41.998" transform="matrix(0.9832 -0.1825 0.1825 0.9832 -10.7407 17.4678)" fill="none" width="98.505" height="50.21"/>
			
				<text transform="matrix(0.9832 -0.1825 0.1825 0.9832 52.9956 89.4883)" fill="#E6E7E8" font-family="'Lavanderia-Sturdy'" font-size="51.39">Joe’s</text>
			
				<rect x="57.294" y="83.177" transform="matrix(0.9832 -0.1825 0.1825 0.9832 -17.669 26.2199)" fill="none" width="152.703" height="51.895"/>
			
				<text transform="matrix(0.9832 -0.1825 0.1825 0.9832 79.5762 130.3281)" fill="#E6E7E8" font-family="'Lavanderia-Sturdy'" font-size="46.9213">Pizza</text>
		</g>
		<g id="_x35_" display="inline">
			<path fill="none" stroke="#F1F1F2" stroke-width="2.2343" stroke-miterlimit="10" d="M121.964,6.851
				c1.669-0.781,4.402-0.781,6.071,0l4.173,1.952c1.669,0.782,4.518,1.142,6.329,0.8l4.531-0.854
				c1.812-0.341,4.458,0.338,5.881,1.51l3.557,2.93c1.423,1.172,4.092,2.229,5.932,2.349l4.594,0.3
				c1.84,0.12,4.234,1.436,5.321,2.925l2.718,3.723c1.087,1.489,3.41,3.176,5.161,3.75l4.377,1.433
				c1.751,0.574,3.743,2.444,4.426,4.157l1.706,4.282c0.683,1.712,2.513,3.924,4.066,4.916l3.886,2.478
				c1.554,0.992,3.018,3.298,3.253,5.127l0.59,4.574c0.235,1.829,1.457,4.426,2.716,5.773l3.146,3.367
				c1.259,1.347,2.103,3.945,1.876,5.775l-0.567,4.572c-0.227,1.83,0.312,4.649,1.195,6.267l2.211,4.044
				c0.884,1.618,1.056,4.344,0.381,6.06l-1.688,4.292c-0.675,1.716-0.854,4.581-0.4,6.367l1.138,4.47
				c0.454,1.786-0.058,4.47-1.139,5.964l-2.7,3.732c-1.081,1.494-1.968,4.224-1.972,6.067l-0.011,4.608
				c-0.004,1.844-1.166,4.315-2.584,5.494l-3.545,2.949c-1.418,1.179-2.956,3.603-3.418,5.387l-1.156,4.46
				c-0.462,1.784-2.204,3.89-3.87,4.678l-4.164,1.972c-1.666,0.788-3.758,2.754-4.649,4.367l-2.229,4.038
				c-0.892,1.613-3.101,3.22-4.911,3.569l-4.525,0.873c-1.811,0.35-4.325,1.733-5.59,3.074l-3.161,3.352
				c-1.265,1.341-3.805,2.348-5.645,2.236l-4.603-0.279c-1.84-0.111-4.621,0.604-6.18,1.588l-3.895,2.459
				c-1.559,0.984-4.27,1.327-6.023,0.761l-4.384-1.414c-1.754-0.566-4.625-0.566-6.379,0l-4.387,1.414
				c-1.754,0.566-4.464,0.224-6.023-0.761l-3.896-2.46c-1.559-0.984-4.339-1.699-6.179-1.587l-4.6,0.278
				c-1.84,0.112-4.38-0.895-5.645-2.235l-3.16-3.352c-1.265-1.341-3.78-2.725-5.59-3.074l-4.525-0.873
				c-1.81-0.35-4.02-1.956-4.911-3.569l-2.23-4.038c-0.891-1.613-2.983-3.579-4.649-4.367l-4.166-1.972
				c-1.666-0.788-3.408-2.894-3.87-4.678l-1.155-4.46c-0.462-1.784-2-4.209-3.417-5.388l-3.545-2.947
				c-1.417-1.179-2.58-3.651-2.584-5.495l-0.01-4.608c-0.004-1.844-0.892-4.573-1.972-6.067l-2.7-3.732
				c-1.081-1.494-1.593-4.178-1.138-5.964l1.137-4.47c0.455-1.786,0.274-4.651-0.4-6.367l-1.688-4.292
				c-0.675-1.716-0.503-4.442,0.381-6.06l2.211-4.045c0.884-1.618,1.422-4.438,1.195-6.267l-0.568-4.572
				c-0.227-1.83,0.617-4.428,1.876-5.774l3.148-3.368c1.259-1.347,2.481-3.944,2.716-5.772l0.588-4.574
				c0.235-1.828,1.699-4.135,3.253-5.126l3.885-2.479c1.554-0.991,3.384-3.203,4.066-4.916l1.706-4.282
				c0.683-1.712,2.674-3.583,4.426-4.156l4.377-1.434c1.752-0.574,4.074-2.261,5.161-3.75l2.718-3.723
				c1.087-1.489,3.481-2.805,5.32-2.925l4.598-0.3c1.839-0.12,4.508-1.177,5.931-2.349l3.557-2.93
				c1.423-1.172,4.069-1.852,5.88-1.51l4.528,0.854c1.812,0.341,4.66-0.019,6.329-0.8L121.964,6.851z"/>
		</g>
		<g display="inline">
			<rect y="186" fill="none" width="250" height="52.667"/>
			<text transform="matrix(1 0 0 1 17.854 226.4434)" fill="#E6E7E8" font-family="'Lavanderia-Sturdy'" font-size="51.39">Joe’s Pizza</text>
		</g>
	</g>
</g>
<g id="Layer_3_1_" display="none">
	<g id="AmbiPortal" display="inline">
		<g>
			<path fill="#D1D3D4" d="M198.523,65.375c1.558-8.793-0.969-18.192-7.672-25.1c-8.627-8.887-21.586-10.99-32.293-6.27
				c-4.5-8.682-12.74-15.313-23.074-17.353c-16.722-3.306-32.982,6.58-38.061,22.428c-8.111-3.225-17.521-3.107-25.91,1.19
				C56.08,48.161,49.968,67.06,57.848,82.498c-9.306,2.764-17.212,9.749-20.7,19.592c-5.789,16.342,2.757,34.294,19.107,40.096
				c6.319,2.244,12.848,2.285,18.845,0.608c9.066-3.519,39.971-1.545,36.78,39.729c0,0,3.919-18.356,3.496-27.207
				c-0.259-5.246-3.856-11.996-9.108-14.613c-4.708-2.359-15.199-5.848-22.359-10.313c-7.818-4.871-7.805-14.459,6.038-10.949
				c7.834,1.984,15.74,7.268,18.753,4.704c2.355-2.001-2.772-12.083-6.965-22.65c-3.911-9.813-7.308-19.755-7.603-20.593
				c-1.991-5.583-1.563-9.366,1.93-10.707c2.722-1.041,5.982-0.482,8.604,5.346c7.079,15.686,9.47,31.813,14.551,31.059
				c5.233-0.791,0.076-23.157,1.535-41.077c0.527-6.458,1.873-9.271,6.04-9.323c3.67-0.068,5.874,3.179,6.103,10.841
				c0.705,24.389-3.681,38.798,2.797,39.29c3.8,0.285,4.961-13.41,12.817-31.642c1.394-3.252,3.775-9.234,8.767-7.185
				c4.537,1.863,3.66,7.152,1.565,12.039c-9.101,21.177-14.42,29.861-10.332,32.016c2.101,1.107,4.896-1.295,8.572-5.625
				c3.735-4.411,7.313-9.143,8.085-10.076c2.49-3.096,5.764-4.484,8.074-2.213c1.693,1.66,1.283,5.623-1.611,9.122
				c-5.773,6.978-10.884,12.388-14.451,16.812c-4.919,6.076-7.377,10.084-8.584,12.057c-2.418,3.904-5.806,8.441-7.824,20.338
				c-1.824,10.754,3.869,25.965,4.695,29.84c-7.095-56.708,28.598-61.944,39.918-61.792c14.713,0.27,27.467-10.725,29.105-25.645
				C215.855,81.97,209.113,70.574,198.523,65.375"/>
			<g>
				<path fill="#D1D3D4" d="M229.971,195.289v-0.252c0-1.266-0.709-2.123-1.818-2.123c-1.262,0-1.92,0.809-1.92,2.324v0.303v25.754
					v0.303c0,3.131,1.566,5.353,3.638,5.353c1.012,0,1.868-0.808,1.868-1.815c0-0.656-0.254-1.111-0.907-1.615
					c-0.656-0.508-0.858-1.012-0.858-2.224v-0.303v-25.704H229.971z M219.365,220.689V204.58c0-1.16-0.758-1.973-1.867-1.973
					c-0.857,0-1.516,0.559-1.77,1.416c-0.101,0.402-0.201,0.506-0.402,0.453c-0.102,0-0.201,0-0.252-0.051
					c-0.053,0-0.15,0-0.254-0.103c-2.121-1.313-3.787-1.815-5.906-1.815c-3.283,0-6.262,1.362-8.23,3.838
					c-1.817,2.225-2.524,4.442-2.524,8.078c0,3.688,0.707,6.01,2.426,8.131c1.97,2.424,5.199,3.938,8.33,3.938
					c2.373,0,4.597-0.757,6.563-2.322c0.201-0.2,0.304-0.2,0.404-0.2c0.102,0,0.201,0,0.252,0.151
					c0.857,1.414,1.918,2.17,3.182,2.17c0.959,0,1.718-0.908,1.718-2.021c0-0.455-0.15-0.908-0.556-1.211l-0.203-0.201
					c-0.653-0.606-0.907-1.112-0.907-2.021v-0.149H219.365L219.365,220.689z M215.527,213.973v0.506
					c0,2.929-0.199,3.836-1.162,5.451c-1.059,1.719-3.182,2.828-5.451,2.828c-2.777,0-5.402-1.715-6.313-4.141
					c-0.354-0.959-0.558-2.475-0.558-4.344c0-1.061,0.051-1.969,0.149-2.523c0.605-3.18,3.435-5.605,6.666-5.605
					c1.972,0,3.892,0.91,5.15,2.476C215.225,210.084,215.527,211.145,215.527,213.973 M191.846,202.156l0.051-7.221v-0.252
					c0-1.314-0.758-2.123-1.918-2.123c-1.213,0-1.92,0.809-1.92,2.123v0.301l-0.051,6.92v0.201v0.102
					c0,0.504-0.152,0.605-0.707,0.605h-0.104h-0.148c-1.717,0-2.576,0.655-2.576,1.971c0,1.209,0.81,1.867,2.523,1.867h0.152h0.049
					c0.607,0,0.762,0.102,0.762,0.555v0.203l-0.104,14.34v0.104c0,3.535,1.362,4.849,4.848,4.849c1.717,0,2.627-0.604,2.627-1.869
					c0-1.062-0.607-1.718-1.719-1.867l-0.453-0.051c-1.16-0.201-1.465-0.604-1.465-2.07v-0.252l0.102-13.28v-0.103
					c0-0.504,0.051-0.556,0.707-0.556h0.705h0.203c1.313,0,2.121-0.707,2.121-1.92c0-1.412-0.707-1.866-2.93-1.918
					c-0.707,0-0.759,0-0.759-0.556v-0.103H191.846L191.846,202.156z M172.404,212.457v-0.303c0-3.639,1.768-5.857,4.697-5.857
					c0.756,0,1.666,0.404,2.776,1.213c0.556,0.352,0.759,0.455,1.108,0.455c1.013,0,1.869-0.91,1.869-1.973
					c0-0.605-0.252-1.109-0.91-1.613c-1.36-1.111-3.129-1.771-4.846-1.771c-1.264,0-2.932,0.559-4.244,1.363
					c-0.201,0.151-0.252,0.151-0.303,0.151c-0.1,0-0.201,0-0.402-0.304c-0.354-0.604-0.959-0.907-1.614-0.907
					c-1.265,0-1.92,0.856-1.92,2.625v0.252v18.229v0.303c0,1.615,0.604,2.322,1.92,2.322c1.313,0,1.866-0.707,1.866-2.424v-0.301
					v-11.461H172.404z M163.873,214.074c-0.154-6.969-4.496-11.867-10.504-11.867c-1.869,0-3.688,0.504-5.305,1.518
					c-3.938,2.373-5.353,5.2-5.353,10.553c0,1.818,0.201,3.435,0.504,4.746c1.111,4.345,5.354,7.474,10.05,7.474
					c6.313,0,10.604-4.847,10.604-12.017v-0.405L163.873,214.074L163.873,214.074z M160.033,213.67v0.453
					c0,1.414-0.102,2.627-0.303,3.586c-0.658,2.879-3.383,5-6.414,5c-3.232,0-6.06-2.373-6.515-5.455
					c-0.102-0.707-0.202-2.322-0.202-3.688c0-1.109,0.053-1.918,0.151-2.475c0.506-2.879,3.332-5.052,6.666-5.052
					C157.559,206.043,159.932,208.771,160.033,213.67 M122.414,205.033l-0.102,0.104c-0.051,0.102-0.15,0.102-0.201,0.102
					c-0.102,0-0.152,0-0.152-0.303c-0.102-1.11-0.908-1.92-1.971-1.92c-1.211,0-1.816,0.81-1.816,2.373v0.305l-0.102,28.983v0.103
					c0,1.414,0.707,2.222,1.869,2.222c1.264,0,1.971-0.808,1.971-2.271v-0.354l0.049-9.039v-0.149c0-0.203,0.102-0.203,0.203-0.304
					c0.102,0,0.15,0,0.404,0.252c1.412,1.111,4.141,1.919,6.209,1.919c2.627,0,5.203-1.011,7.121-2.88
					c2.424-2.373,3.332-4.946,3.332-9.342c0-7.222-4.189-11.916-10.654-11.916c-2.322,0-4.443,0.707-6.008,2.021L122.414,205.033z
					 M135.441,215.285c-0.051,2.777-0.303,3.787-1.262,5.252c-1.265,1.77-3.134,2.777-5.354,2.777c-2.425,0-4.596-1.213-5.857-3.232
					c-0.959-1.563-1.059-2.066-1.059-5.807c0-2.576,0.252-3.586,1.313-4.949c1.211-1.516,3.383-2.574,5.352-2.574
					c2.121,0,4.445,1.214,5.707,2.93c0.908,1.213,1.162,2.32,1.162,5.051v0.554L135.441,215.285L135.441,215.285z"/>
				<path fill="#D1D3D4" d="M113.547,195.036c0-1.313-0.857-2.222-2.069-2.222c-1.263,0-2.224,0.908-2.224,2.168
					c0,1.213,0.961,2.172,2.172,2.172C112.588,197.154,113.547,196.195,113.547,195.036 M109.457,224.271v0.252
					c0,1.465,0.655,2.224,1.818,2.224c1.313,0,2.02-0.906,2.02-2.627v-0.197v-18.435v-0.254c0-1.264-0.808-2.223-1.918-2.223
					s-1.92,0.91-1.92,2.072v0.301V224.271L109.457,224.271z M87.189,204.376v-8.987v-0.353c0-1.517-0.708-2.323-1.971-2.323
					c-1.161,0-1.869,0.807-1.869,2.223v0.147l0.103,29.035v0.254c0,1.614,0.605,2.321,1.816,2.321c1.062,0,1.87-0.707,2.021-1.868
					c0-0.201,0.102-0.201,0.152-0.304c0.049,0,0.102,0,0.15,0.103l0.102,0.104l0.152,0.149c1.563,1.265,3.686,1.972,6.008,1.972
					c3.688,0,7.171-1.92,9.09-5.104c1.109-1.867,1.566-3.888,1.566-7.019c0-4.141-0.959-6.768-3.334-9.09
					c-1.918-1.869-4.494-2.93-7.121-2.93c-2.12,0-4.797,0.857-6.209,1.92c-0.103,0.1-0.202,0.1-0.202,0.15
					c-0.052,0.051-0.153,0.051-0.255,0.051c-0.149,0-0.199,0-0.199-0.303V204.376L87.189,204.376z M100.721,214.527v0.505
					c0,2.729-0.252,3.786-1.161,5.049c-1.16,1.666-3.636,2.93-5.706,2.93c-1.969,0-4.092-1.01-5.352-2.573
					c-1.162-1.414-1.313-2.172-1.313-5.605c0-3.029,0.101-3.635,1.06-5.15c1.313-2.02,3.435-3.231,5.857-3.231
					c2.171,0,4.091,1.01,5.354,2.827C100.42,210.689,100.672,211.749,100.721,214.527 M77.343,211.042v-0.252
					c0-4.646-3.787-8.181-8.736-8.181c-2.323,0-4.545,0.857-6.413,2.476c-0.202,0.201-0.303,0.25-0.454,0.25
					c-0.151,0-0.303-0.049-0.655-0.353c-1.719-1.516-3.89-2.323-6.061-2.323c-1.563,0-2.828,0.354-4.19,1.11
					c-0.354,0.201-0.506,0.304-0.605,0.254c-0.102,0-0.202,0-0.253-0.2l-0.151-0.154c-0.403-0.604-0.857-0.856-1.515-0.856
					c-1.262,0-1.969,0.856-1.969,2.373v0.201v18.383v0.252c0,1.869,0.555,2.574,1.919,2.574c1.313,0,1.918-0.857,1.918-2.728v-0.201
					v-11.06v-0.254c0-3.938,1.616-5.908,4.848-5.908c3.131,0,4.696,1.921,4.696,5.759v0.203v11.813v0.203
					c0,1.363,0.758,2.17,1.919,2.17c1.161,0,1.969-0.857,1.969-2.17v-0.404v-11.514v-0.252c0-3.736,1.767-5.809,4.948-5.809
					c3.081,0,4.849,1.869,4.849,5.102v0.252v12.422v0.152c0,1.414,0.706,2.221,1.867,2.221c1.212,0,2.071-0.857,2.071-2.271v-0.252
					L77.343,211.042L77.343,211.042z M39.47,220.688V204.58c0-1.16-0.757-1.969-1.869-1.969c-0.858,0-1.515,0.555-1.767,1.414
					c-0.103,0.401-0.202,0.504-0.404,0.455c-0.102,0-0.202,0-0.251-0.053c-0.051,0-0.152,0-0.254-0.104
					c-2.12-1.313-3.787-1.816-5.908-1.816c-3.282,0-6.261,1.363-8.23,3.841c-1.818,2.221-2.524,4.44-2.524,8.077
					c0,3.688,0.706,6.011,2.423,8.132c1.969,2.424,5.201,3.938,8.332,3.938c2.374,0,4.596-0.756,6.565-2.322
					c0.201-0.201,0.304-0.201,0.403-0.201c0.101,0,0.203,0,0.252,0.15c0.858,1.414,1.919,2.172,3.182,2.172
					c0.96,0,1.717-0.908,1.717-2.02c0-0.455-0.151-0.908-0.556-1.211l-0.201-0.201c-0.656-0.607-0.909-1.113-0.909-2.021
					L39.47,220.688L39.47,220.688z M35.632,213.973v0.506c0,2.928-0.202,3.836-1.161,5.451c-1.062,1.719-3.181,2.829-5.455,2.829
					c-2.777,0-5.402-1.717-6.311-4.143c-0.354-0.959-0.558-2.476-0.558-4.343c0-1.061,0.051-1.969,0.153-2.524
					c0.605-3.183,3.433-5.604,6.665-5.604c1.969,0,3.889,0.906,5.149,2.474C35.33,210.083,35.632,211.145,35.632,213.973"/>
			</g>
		</g>
	</g>
</g>
<g id="Layer_2_1_" display="none">
	<g id="Layer_3" display="inline">
		<g>
			<g>
				<path fill="#58595B" d="M90.435,177.417c10.778,0,21.074-3.138,29.851-8.97c-1.193-1.038-2.349-2.137-3.484-3.29
					c-2.56-2.617-4.85-5.447-6.871-8.431c-5.735,3.367-12.394,5.293-19.515,5.293c-21.306,0-38.646-17.34-38.646-38.646
					c0-16.397,10.277-30.446,24.712-36.047L65.338,75.471c-4.792,2.502-9.219,5.755-13.145,9.681
					c-10.201,10.201-15.82,23.769-15.82,38.204s5.62,28.001,15.82,38.203C62.413,171.797,76,177.417,90.435,177.417z"/>
				<path fill="#58595B" d="M139.762,90.233c5.813-3.484,12.588-5.505,19.842-5.505c21.307,0,38.646,17.341,38.646,38.646
					c0,21.306-17.341,38.646-38.646,38.646c-9.736,0-19.381-3.828-26.48-10.508c-7.679-7.236-12.164-17.59-12.164-28.138
					c0-3.368,0.442-6.658,1.251-9.776c-0.847-2.772-2.06-5.409-3.599-7.892c-1.848-2.925-4.118-5.542-6.736-7.756
					c-4.119,7.737-6.313,16.397-6.313,25.405c0,15.569,6.948,30.773,18.765,40.936c9.354,8.063,21.536,12.76,33.873,13.087
					c0.461,0.021,0.923,0.021,1.403,0.021c14.436,0,28.004-5.619,38.205-15.82c10.198-10.199,15.818-23.77,15.818-38.203
					c0-14.434-5.62-28.002-15.818-38.203c-10.201-10.2-23.771-15.82-38.205-15.82c-10.912,0-21.324,3.214-30.177,9.199
					C133.354,81.938,136.836,85.884,139.762,90.233z"/>
				<path fill="#58595B" d="M122.845,80.167c-2.31-1.751-4.773-3.329-7.371-4.676l-11.105,11.835
					c0.327,0.135,0.674,0.27,1.001,0.404c8.141,3.426,15.012,9.662,19.169,17.456c4.465,8.373,5.697,18.36,3.406,27.561l1.214,2.983
					c2.001,4.906,5.194,9.275,9.198,12.701c3.194-6.08,5.177-12.722,5.869-19.649c0.174-1.79,0.271-3.599,0.271-5.389
					C144.477,106.496,136.162,90.291,122.845,80.167z"/>
				<path fill="#58595B" d="M86.913,90.541c0.943,1,2.232,1.521,3.503,1.521s2.56-0.501,3.502-1.521l4.658-4.946l19.342-20.554
					c1.501-1.597,1.732-4.023,0.558-5.87l-6.582-10.354c-0.886-1.385-2.406-2.233-4.062-2.233H73.037
					c-1.636,0-3.176,0.848-4.061,2.233L62.394,59.17c-1.174,1.847-0.962,4.273,0.558,5.87L86.913,90.541z"/>
			</g>
		</g>
		<g>
			<path fill="#58595B" d="M44.476,219.424l0.472,2.688h0.123l0.574-2.688l4.43-14.109h3.24l4.45,14.109l0.636,2.994h0.123
				l0.595-2.994l3.486-14.109h4.02l-6.439,22.189h-3.261l-4.286-13.516l-0.923-3.772l-0.123,0.021l-0.882,3.754l-4.225,13.515
				h-3.261l-6.439-22.188h4.02L44.476,219.424z"/>
			<path fill="#58595B" d="M79.791,227.936c-3.09,0-5.547-1.028-7.373-3.088c-1.825-2.057-2.738-4.727-2.738-8.008v-0.902
				c0-3.158,0.94-5.785,2.82-7.885c1.88-2.099,4.105-3.148,6.675-3.148c2.994,0,5.257,0.902,6.788,2.707
				c1.531,1.806,2.297,4.212,2.297,7.22v2.522H73.864l-0.063,0.103c0.041,2.127,0.581,3.875,1.62,5.245
				c1.039,1.369,2.495,2.056,4.368,2.056c1.367,0,2.567-0.194,3.599-0.584c1.032-0.391,1.924-0.927,2.676-1.61l1.579,2.629
				c-0.793,0.783-1.839,1.438-3.138,1.961C83.208,227.673,81.636,227.936,79.791,227.936z M79.175,208.083
				c-1.354,0-2.509,0.569-3.466,1.707s-1.545,2.563-1.764,4.28l0.041,0.104H84.22v-0.531c0-1.58-0.424-2.901-1.271-3.966
				C82.101,208.613,80.843,208.083,79.175,208.083z"/>
			<path fill="#58595B" d="M91.87,216.818c0-3.567,0.762-6.445,2.287-8.633c1.525-2.188,3.661-3.281,6.409-3.281
				c1.299,0,2.451,0.238,3.456,0.718s1.863,1.176,2.574,2.092v-12.202h4.04v31.992h-3.302l-0.472-2.729
				c-0.725,1.039-1.613,1.826-2.666,2.358c-1.053,0.533-2.276,0.8-3.671,0.8c-2.707,0-4.826-0.979-6.357-2.941
				c-1.531-1.963-2.297-4.543-2.297-7.742L91.87,216.818L91.87,216.818z M95.91,217.25c0,2.242,0.458,4.037,1.374,5.383
				c0.916,1.348,2.338,2.021,4.266,2.021c1.203,0,2.215-0.273,3.035-0.82s1.49-1.313,2.01-2.297V211.18
				c-0.52-0.916-1.193-1.644-2.02-2.184c-0.827-0.54-1.822-0.811-2.984-0.811c-1.941,0-3.374,0.799-4.296,2.398
				s-1.384,3.678-1.384,6.234L95.91,217.25L95.91,217.25z"/>
			<path fill="#58595B" d="M120.642,227.504h-2.461v-29.859h2.461V227.504z"/>
			<path fill="#58595B" d="M130.506,205.314l0.227,3.875c0.711-1.366,1.67-2.422,2.881-3.168c1.21-0.744,2.644-1.117,4.298-1.117
				c2.405,0,4.237,0.734,5.496,2.205c1.258,1.47,1.887,3.763,1.887,6.879v13.516h-2.461v-13.521c0-2.547-0.478-4.35-1.426-5.403
				c-0.951-1.056-2.302-1.582-4.052-1.582c-1.723,0-3.127,0.456-4.215,1.366c-1.086,0.91-1.869,2.119-2.348,3.627v15.515h-2.461
				v-22.188h2.174V205.314z"/>
			<path fill="#58595B" d="M158.027,221.945l0.718,2.604h0.123l0.778-2.604l6.029-16.631h2.543l-8.429,22.188h-1.97l-8.448-22.188
				h2.543L158.027,221.945z"/>
			<path fill="#58595B" d="M175.008,198.957h-2.439v-3.445h2.439V198.957z M175.008,227.504h-2.439v-22.189h2.439V227.504z"/>
			<path fill="#58595B" d="M185.65,199.634v5.681h4.882v2.011h-4.882v14.458c0,1.449,0.264,2.479,0.789,3.087
				c0.526,0.608,1.229,0.912,2.104,0.912c0.396,0,0.782-0.017,1.159-0.052c0.375-0.033,0.81-0.092,1.302-0.174l0.369,1.824
				c-0.41,0.178-0.909,0.314-1.497,0.41s-1.176,0.145-1.765,0.145c-1.559,0-2.771-0.492-3.641-1.478s-1.302-2.543-1.302-4.676
				v-14.458h-3.835v-2.01h3.835v-5.682L185.65,199.634L185.65,199.634z"/>
			<path fill="#58595B" d="M204.066,227.936c-2.774,0-5.082-1.025-6.922-3.076c-1.838-2.051-2.758-4.648-2.758-7.793v-1.129
				c0-3.172,0.912-5.804,2.738-7.896c1.824-2.092,4.036-3.138,6.634-3.138c2.722,0,4.86,0.861,6.419,2.584s2.338,4.02,2.338,6.891
				v2.092h-15.668v0.594c0,2.496,0.664,4.584,1.989,6.263c1.326,1.678,3.069,2.517,5.229,2.517c1.531,0,2.836-0.212,3.916-0.636
				s2.004-1.032,2.77-1.825l1.046,1.682c-0.834,0.879-1.891,1.576-3.169,2.096C207.352,227.676,205.831,227.936,204.066,227.936z
				 M203.76,206.996c-1.818,0-3.343,0.691-4.572,2.076c-1.23,1.384-1.949,3.117-2.153,5.203l0.041,0.104h13.002v-0.613
				c0-1.923-0.567-3.531-1.702-4.826C207.238,207.645,205.701,206.996,203.76,206.996z"/>
		</g>
	</g>
</g>
</svg>
