<?xml version="1.0" encoding="utf-8"?>
<!-- Generator: Adobe Illustrator 16.0.0, SVG Export Plug-In . SVG Version: 6.00 Build 0)  -->
<!DOCTYPE svg PUBLIC "-//W3C//DTD SVG 1.1//EN" "http://www.w3.org/Graphics/SVG/1.1/DTD/svg11.dtd">
<svg version="1.1" xmlns="http://www.w3.org/2000/svg" xmlns:xlink="http://www.w3.org/1999/xlink" x="0px" y="0px" width="250px"
	 height="250px" viewBox="0 0 250 250" enable-background="new 0 0 250 250" xml:space="preserve">
<g id="Layer_1">
	<g>
		<g id="Center_Text_2_">
			<g>
				<path fill="#E6E7E8" d="M64.501,78.677c-4.704,6.147-10.693,12.215-13.974,18.16c-2.954,5.313-4.144,9.854-3.278,14.523
					c0.901,4.851,4.312,7.142,7.689,6.515c3.378-0.626,4.931-3.901,4.452-6.482c-0.32-1.719-1.463-3.095-3.544-3.344l1.148-4.088
					c3.438,0.378,5.604,3.152,6.209,6.408c0.821,4.422-1.361,9.783-7.442,10.911c-6.572,1.22-13.896-1.615-15.48-10.151
					c-0.912-4.914,0.709-10.552,3.227-14.449c6.473-9.971,16.383-18.544,21.897-25.794c0.579-3.729,1.204-7.212,2.427-8.838
					l3.631,1.423c-0.017,2.989-0.99,5.965-2.661,8.945c0.7,15.753,5.21,48.274-2.025,63.721c-1.857,4.03-5.1,6.412-9.646,7.254
					c-4.544,0.844-7.548-1.648-8.29-5.641c-0.763-4.114,1.667-8.822,7.552-9.979l1.022,4.829c-3.656,1.186-4.73,3.609-4.388,5.452
					c0.331,1.782,1.814,2.587,3.472,2.279c2.641-0.49,4.283-2.255,5.681-4.994C67.352,124.848,62.894,99.117,64.501,78.677z"/>
				<path fill="#E6E7E8" d="M94.262,104.16c-0.046-0.247-0.09-0.491-0.148-0.799c-1.539-8.291,1.175-19.343,8.054-20.619
					c3.255-0.604,5.309,1.557,5.902,4.75c0.923,4.975-1.547,12.549-8.124,16.821c0.89,2.059,2.258,3.266,4.223,2.901
					c3.624-0.672,6.542-5.153,7.711-11.85c0.369-0.068,1.812,0.172,1.88,0.539c-1.578,8.618-4.078,15.689-10.097,16.807
					c-4.3,0.798-7.153-1.914-8.688-6.075c-0.776,0.271-1.574,0.419-2.373,0.567c-0.922,0.171-1.793,0.269-2.665,0.368
					c-1.141,4.466-3.595,8.354-7.956,9.163c-4.239,0.787-6.902-3.294-7.939-8.883c-0.638-3.439-0.68-7.434-0.124-11.286l1.921,0.089
					c-0.363-4.699,1.944-9.384,6.367-10.205c4.177-0.775,7.039,3.013,8.18,9.156c0.49,2.641,0.553,6.06,0.089,9.385
					c0.565-0.041,1.117-0.143,1.733-0.257C92.945,104.595,93.609,104.408,94.262,104.16z M78.268,106.302
					c0.661,3.563,2.049,5.911,3.646,5.614c1.289-0.24,2.233-2.003,2.933-4.738c-3.188-0.744-5.479-2.478-6.956-4.619
					C77.945,103.883,78.052,105.135,78.268,106.302z M79.144,96.99c0.547,2.949,2.588,6.064,6.196,7.365
					c0.436-3.131,0.474-6.696-0.041-9.458c-0.512-2.765-1.564-4.666-3.284-4.347C79.62,90.994,78.574,93.92,79.144,96.99z
					 M98.995,101.248c4.099-3.938,5.529-9.92,4.983-12.869c-0.218-1.167-0.796-1.886-1.593-1.738
					C99.313,87.21,97.963,95.34,98.995,101.248z"/>
				<path fill="#E6E7E8" d="M111.749,74.801c-0.053-0.626-0.106-1.25-0.208-1.804c-0.455-2.458-1.436-4.309-3.008-6.623l3.986-2.835
					c1.085,2.086,1.814,4.301,2.213,6.45c0.307,1.659,0.419,3.29,0.374,4.76L111.749,74.801z"/>
				<path fill="#E6E7E8" d="M126.338,101.383c1.049,1.203,1.877,1.557,3.044,1.341c1.535-0.285,2.191-1.55,1.779-3.761
					c-0.683-3.685-3.002-6.94-5.129-10.866c-1.043,6.356-2.683,13.269-4.945,20.932l-1.881-0.541
					c2.373-8.445,4.214-16.666,5.469-23.254c-0.844-1.811-1.465-3.793-1.865-5.943c-0.468-2.518-0.611-5.349-0.187-8.542
					l5.072-0.052c-0.022,3.308-0.266,6.784-0.672,10.418c0.435,1.316,1.032,2.476,1.997,3.568c2.868,3.47,6.455,8.078,7.372,12.673
					l0.045,0.246c0.813-2.122,1.374-4.576,1.852-7.142c0.367-0.067,1.811,0.173,1.879,0.54c-0.823,4.473-2.242,8.804-4.078,12.256
					l-0.239,0.426c-1.036,2.29-3.2,3.644-5.902,4.146c-2.887,0.536-5.528-0.691-6.856-3.047L126.338,101.383z"/>
			</g>
			<g>
				<path fill="#E6E7E8" d="M103.121,125.987c-2.528,7.316-1.438,18.192-0.899,28.591c7.439-2.424,10.939-12.007,9.389-20.362
					c-1.53-8.244-8.02-15.392-20.469-13.082c-12.841,2.383-16.975,13.245-15.424,21.599c1.177,6.337,5.626,11.254,11.964,10.08
					c0.841-0.158,1.604-0.416,2.303-0.721l1.793,4.657c-0.993,0.591-2.14,0.978-3.373,1.208
					c-9.197,1.705-15.526-4.894-17.077-13.249c-1.926-10.375,3.536-23.455,19.966-26.504c15.365-2.851,23.629,5.418,25.429,15.118
					c1.874,10.096-3.222,21.715-14.409,24.256c0.494,12.67-0.479,23.988-10.741,25.894c-6.505,1.206-10.791-1.886-11.853-7.605
					c-0.843-4.542,1.464-9.611,7.086-10.886l0.854,4.599c-2.853,0.877-4.184,4.024-3.705,6.604c0.677,3.644,3.799,5.154,6.941,4.57
					c14.411-2.676,0.666-36.726,6.8-55.559L103.121,125.987z"/>
				<path fill="#E6E7E8" d="M119.494,131.998c-0.375-2.018,0.637-4.701,3.103-5.157c1.852-0.344,2.885,0.855,3.176,2.424
					c0.376,2.021-0.646,4.648-3.113,5.104C120.866,134.703,119.774,133.514,119.494,131.998z M124.721,137.353
					c-0.338,9.112-0.757,15.916,0.096,20.517c0.302,1.627,0.971,1.793,1.475,1.699c1.458-0.271,2.726-3.756,3.997-10.663
					c0.279-0.053,1.642,0.101,1.705,0.439l0.011,0.053c-1.282,6.853-2.037,13.722-6.635,14.575
					c-3.028,0.563-4.558-2.054-5.276-5.923c-1.155-6.226-0.342-15.602-0.139-19.813L124.721,137.353z"/>
				<path fill="#E6E7E8" d="M132.794,160.218c0.438-0.14,1.314-0.419,1.763-0.503c0.28-0.052,0.563-0.104,0.854-0.101
					c1.939-3.605,2.592-13.532,1.758-18.018c-0.332-1.796-1.074-2.354-1.858-2.207c-1.963,0.363-2.12,3.584-3.305,10.008
					c0,0-1.623,0.013-1.706-0.435l-0.01-0.058c1.213-6.896,0.829-13.032,5.146-13.832c3.926-0.729,6.198,2.445,7.011,6.82
					c1.102,5.944-0.341,14.101-3.82,18.169c0.566,0.242,1.145,0.542,1.608,0.861c2.594-3.846,5.219-8.451,6.43-15.057
					c0.393-0.073,1.633,0.044,1.695,0.381c-1.246,6.728-4.156,11.677-6.845,15.947c1.067,1.367,1.792,3.089,2.136,4.94
					c0.936,5.047-0.89,10.837-5.77,11.744c-2.072,0.387-3.71-0.935-4.126-3.178c-0.76-4.095,1.629-7.787,4.142-11.444
					c-0.412-0.968-0.915-1.8-1.488-2.393c-0.529,0.272-1.126,0.5-1.743,0.613c-0.561,0.104-1.075,0.143-1.611,0.068L132.794,160.218
					z M139.041,167.932c-0.084-0.446-0.213-0.829-0.297-1.279c-1.82,3.009-2.874,6.393-2.437,8.748
					c0.156,0.841,0.585,1.283,1.315,1.148C139.36,176.226,139.781,171.915,139.041,167.932z"/>
				<path fill="#E6E7E8" d="M149.167,157.179c0.438-0.14,1.315-0.419,1.765-0.503c0.279-0.053,0.562-0.104,0.853-0.101
					c1.939-3.605,2.592-13.532,1.76-18.018c-0.333-1.796-1.075-2.354-1.86-2.207c-1.964,0.363-2.12,3.584-3.305,10.008
					c0,0-1.622,0.013-1.705-0.436l-0.011-0.056c1.214-6.896,0.829-13.032,5.147-13.834c3.926-0.728,6.196,2.446,7.009,6.821
					c1.103,5.944-0.341,14.102-3.82,18.169c0.566,0.242,1.144,0.542,1.608,0.862c2.595-3.847,5.219-8.452,6.43-15.058
					c0.393-0.074,1.633,0.045,1.695,0.38c-1.245,6.729-4.156,11.678-6.844,15.948c1.065,1.367,1.791,3.089,2.135,4.941
					c0.936,5.047-0.89,10.837-5.768,11.741c-2.074,0.386-3.712-0.933-4.128-3.177c-0.76-4.093,1.63-7.786,4.142-11.443
					c-0.412-0.968-0.914-1.8-1.488-2.392c-0.529,0.271-1.126,0.499-1.743,0.612c-0.56,0.105-1.075,0.143-1.611,0.068
					L149.167,157.179z M155.414,164.894c-0.083-0.447-0.211-0.83-0.295-1.279c-1.82,3.008-2.874,6.392-2.438,8.748
					c0.156,0.84,0.586,1.283,1.315,1.147C155.736,173.188,156.153,168.876,155.414,164.894z"/>
				<path fill="#E6E7E8" d="M168.601,156.24c-2.748,0.51-4.433-2.312-5.192-6.404c-1.467-7.907,0.687-20.373,6.014-21.361
					c2.075-0.384,3.481,0.63,4.342,3.081l0.035-3.254l3.981-0.74c-0.324,8.877-0.797,16.333,0.327,22.391
					c1.77,9.531,8.333,13.011,15.397,11.701c9.141-1.695,14.229-11.167,12.333-21.375c-1.581-8.523-7.167-12.359-16.315-11.647
					l-0.429-4.503c12.055-1.31,18.705,5.461,20.507,15.163c1.884,10.148-3.295,22.888-15.743,25.197
					c-11.329,2.104-17.711-3.849-19.803-15.119c-0.042-0.225-0.084-0.449-0.136-0.729
					C173.266,152.299,171.853,155.637,168.601,156.24z M168.016,148.4c0.323,1.738,0.879,2.854,1.72,2.698
					c2.58-0.48,4.079-10.212,3.111-15.429c-0.386-2.073-1.161-3.438-2.394-3.21C168.099,132.898,167.069,143.3,168.016,148.4z"/>
			</g>
		</g>
		<g id="_x35__1_">
			<path fill="none" stroke="#F1F1F2" stroke-width="2.716" stroke-miterlimit="10" d="M121.31,22.712c2.029-0.95,5.35-0.95,7.379,0
				l5.072,2.373c2.029,0.95,5.491,1.388,7.693,0.973l5.508-1.038c2.202-0.415,5.419,0.412,7.148,1.836l4.323,3.561
				c1.729,1.425,4.974,2.709,7.21,2.855l5.585,0.364c2.236,0.146,5.146,1.746,6.468,3.556l3.305,4.526
				c1.321,1.81,4.145,3.861,6.273,4.559l5.319,1.742c2.129,0.697,4.55,2.971,5.38,5.052l2.074,5.206
				c0.83,2.081,3.055,4.77,4.943,5.976l4.722,3.012c1.889,1.206,3.669,4.01,3.955,6.232l0.716,5.56
				c0.286,2.222,1.772,5.38,3.302,7.017l3.825,4.093c1.529,1.637,2.556,4.796,2.28,7.02l-0.689,5.558
				c-0.275,2.224,0.378,5.652,1.453,7.618l2.687,4.916c1.075,1.966,1.283,5.281,0.463,7.366l-2.051,5.218
				c-0.82,2.085-1.039,5.567-0.486,7.739l1.381,5.432c0.553,2.172-0.069,5.434-1.383,7.249l-3.284,4.539
				c-1.313,1.815-2.392,5.134-2.396,7.375l-0.012,5.602c-0.005,2.241-1.418,5.246-3.141,6.679l-4.311,3.585
				c-1.723,1.433-3.592,4.379-4.154,6.548l-1.404,5.422c-0.563,2.169-2.68,4.728-4.705,5.687l-5.062,2.396
				c-2.025,0.959-4.568,3.348-5.651,5.31l-2.71,4.907c-1.083,1.962-3.769,3.914-5.969,4.338l-5.501,1.063
				c-2.2,0.424-5.258,2.105-6.795,3.735l-3.841,4.074c-1.537,1.63-4.625,2.854-6.861,2.719l-5.597-0.339
				c-2.236-0.135-5.616,0.733-7.511,1.93l-4.734,2.99c-1.895,1.196-5.189,1.612-7.321,0.924l-5.329-1.718
				c-2.132-0.688-5.622-0.688-7.754-0.001l-5.331,1.72c-2.133,0.688-5.427,0.271-7.322-0.926l-4.736-2.991
				c-1.895-1.196-5.274-2.064-7.511-1.93l-5.591,0.34c-2.236,0.135-5.324-1.088-6.861-2.718l-3.841-4.074
				c-1.537-1.63-4.595-3.312-6.795-3.735l-5.501-1.063c-2.2-0.424-4.886-2.376-5.969-4.338l-2.71-4.907
				c-1.083-1.962-3.626-4.351-5.651-5.31l-5.063-2.396c-2.025-0.959-4.142-3.518-4.704-5.687l-1.405-5.422
				c-0.562-2.169-2.431-5.115-4.154-6.549l-4.309-3.583c-1.723-1.434-3.137-4.438-3.142-6.68l-0.013-5.602
				c-0.005-2.241-1.084-5.56-2.397-7.375l-3.282-4.539c-1.313-1.815-1.936-5.077-1.383-7.249l1.382-5.432
				c0.552-2.172,0.333-5.654-0.487-7.739l-2.052-5.218c-0.82-2.085-0.611-5.4,0.464-7.366l2.688-4.916
				c1.075-1.966,1.729-5.394,1.453-7.618l-0.69-5.558c-0.276-2.224,0.75-5.382,2.28-7.019l3.827-4.094
				c1.53-1.637,3.016-4.794,3.301-7.017l0.715-5.56c0.286-2.222,2.065-5.026,3.954-6.231l4.724-3.013
				c1.889-1.205,4.113-3.894,4.942-5.976l2.073-5.205c0.83-2.082,3.25-4.355,5.379-5.053l5.321-1.742
				c2.129-0.698,4.953-2.749,6.274-4.559l3.304-4.526c1.321-1.81,4.232-3.41,6.468-3.556l5.588-0.364
				c2.236-0.146,5.48-1.431,7.21-2.855l4.323-3.561c1.729-1.425,4.946-2.251,7.148-1.836l5.504,1.037
				c2.202,0.415,5.664-0.022,7.693-0.972L121.31,22.712z"/>
		</g>
	</g>
	<g display="none">
		<path display="inline" fill="#E6E7E8" d="M41.52,184.763c-4.729,4.266-10.484,8.274-14.03,12.591
			c-3.186,3.854-4.831,7.349-4.831,11.255c0,4.06,2.416,6.424,5.242,6.424c2.827,0,4.574-2.415,4.574-4.574
			c0-1.438-0.72-2.724-2.364-3.237l1.542-3.135c2.724,0.822,4.06,3.392,4.06,6.115c0,3.7-2.569,7.709-7.657,7.709
			c-5.499,0-10.998-3.392-10.998-10.535c0-4.111,2.159-8.429,4.78-11.203c6.732-7.093,16.034-12.54,21.584-17.576
			c1.028-2.93,2.056-5.653,3.289-6.784l2.724,1.696c-0.462,2.415-1.696,4.677-3.495,6.835c-1.799,12.848-3.032,39.829-11.204,51.237
			c-2.107,2.981-5.087,4.42-8.891,4.42c-3.803,0-5.858-2.467-5.858-5.808c0-3.442,2.672-6.886,7.606-6.938l0.103,4.061
			c-3.135,0.41-4.368,2.209-4.368,3.751c0,1.49,1.079,2.364,2.467,2.364c2.21,0,3.803-1.182,5.345-3.187
			C36.894,222.535,37.151,201.054,41.52,184.763z"/>
		<path display="inline" fill="#E6E7E8" d="M61.766,209.842c0-0.206,0-0.411,0-0.668c0-6.938,3.854-15.469,9.61-15.469
			c2.724,0,4.06,2.056,4.06,4.728c0,4.163-3.135,9.919-9.097,12.386c0.411,1.799,1.336,2.98,2.981,2.98
			c3.032,0,6.064-3.187,8.017-8.428c0.309,0,1.439,0.411,1.439,0.719c-2.57,6.732-5.653,12.077-10.689,12.077
			c-3.597,0-5.499-2.621-6.116-6.218c-0.668,0.103-1.336,0.103-2.004,0.103c-0.771,0-1.491-0.052-2.21-0.103
			c-1.593,3.442-4.163,6.218-7.812,6.218c-3.546,0-5.088-3.7-5.088-8.377c0-2.878,0.565-6.115,1.593-9.147l1.542,0.36
			c0.411-3.854,2.981-7.298,6.681-7.298c3.495,0,5.242,3.494,5.242,8.634c0,2.21-0.462,4.984-1.336,7.605
			c0.462,0.052,0.925,0.052,1.439,0.052C60.636,209.996,61.201,209.944,61.766,209.842z M48.507,209.174
			c0,2.98,0.771,5.088,2.107,5.088c1.079,0,2.107-1.285,3.083-3.392c-2.467-1.08-4.06-2.827-4.934-4.78
			C48.61,207.169,48.507,208.197,48.507,209.174z M50.614,201.773c0,2.467,1.182,5.293,3.906,6.887
			c0.822-2.467,1.388-5.345,1.388-7.657c0-2.313-0.565-4.009-2.004-4.009C51.899,196.994,50.614,199.204,50.614,201.773z
			 M66.032,208.197c3.906-2.569,5.961-7.194,5.961-9.661c0-0.977-0.36-1.645-1.028-1.645
			C68.396,196.892,66.083,203.264,66.032,208.197z"/>
		<path display="inline" fill="#E6E7E8" d="M80.317,188.72c0.051-0.514,0.103-1.027,0.103-1.49c0-2.056-0.514-3.7-1.439-5.808
			l3.649-1.695c0.565,1.85,0.822,3.751,0.822,5.55c0,1.388-0.154,2.724-0.411,3.906L80.317,188.72z"/>
		<path display="inline" fill="#E6E7E8" d="M88.128,212.411c0.668,1.131,1.285,1.542,2.261,1.542c1.285,0,2.004-0.925,2.004-2.775
			c0-3.083-1.388-6.063-2.519-9.559c-1.799,4.985-4.163,10.33-7.144,16.188l-1.438-0.72c3.186-6.476,5.91-12.848,7.914-17.987
			c-0.411-1.593-0.617-3.289-0.617-5.088c0-2.106,0.308-4.419,1.13-6.938l4.111,0.72c-0.514,2.672-1.233,5.447-2.107,8.325
			c0.154,1.131,0.462,2.158,1.08,3.187c1.798,3.237,4.008,7.503,4.06,11.357v0.206c0.977-1.594,1.799-3.495,2.57-5.499
			c0.308,0,1.439,0.411,1.439,0.719c-1.336,3.495-3.135,6.784-5.139,9.302l-0.257,0.309c-1.182,1.696-3.135,2.467-5.396,2.467
			c-2.416,0-4.368-1.388-5.087-3.494L88.128,212.411z"/>
		<path display="inline" fill="#E6E7E8" d="M138.747,180.6c-3.442,6.064-4.265,15.88-5.499,25.183
			c6.99-0.926,11.666-8.84,11.666-16.497c0-7.555-4.573-14.955-15.982-14.955c-11.769,0-17.216,8.942-17.216,16.6
			c0,5.808,3.135,10.896,8.942,10.896c0.771,0,1.49-0.104,2.158-0.258l0.822,4.42c-0.976,0.359-2.056,0.514-3.186,0.514
			c-8.428,0-12.951-6.886-12.951-14.543c0-9.508,6.989-20.197,22.047-20.197c14.081,0,20.042,8.686,20.042,17.576
			c0,9.25-6.424,18.706-16.753,19.117c-1.645,11.307-4.369,21.174-13.773,21.174c-5.961,0-9.25-3.443-9.25-8.686
			c0-4.163,2.878-8.274,8.068-8.479v4.214c-2.672,0.309-4.368,2.878-4.368,5.242c0,3.34,2.518,5.19,5.396,5.19
			c13.208,0,6.63-32.428,15.16-48.103L138.747,180.6z"/>
		<path display="inline" fill="#E6E7E8" d="M156.014,194.219c-1.798,8.017-3.289,13.979-3.289,18.192
			c0,1.49,0.565,1.748,1.028,1.748c1.336,0,3.032-2.879,5.293-8.788c0.257,0,1.439,0.359,1.439,0.668v0.051
			c-2.262,5.859-4.06,11.82-8.274,11.82c-2.775,0-3.7-2.569-3.7-6.115c0-5.705,2.262-13.876,3.135-17.576H156.014z M152.263,188.617
			c0-1.851,1.336-4.06,3.598-4.06c1.695,0,2.415,1.232,2.415,2.672c0,1.85-1.336,4.009-3.598,4.009
			C153.033,191.238,152.263,190.005,152.263,188.617z"/>
		<path display="inline" fill="#E6E7E8" d="M159.405,215.804c0.411-0.052,1.233-0.154,1.645-0.154c0.257,0,0.515,0,0.771,0.051
			c2.313-2.878,4.522-11.563,4.522-15.674c0-1.645-0.565-2.262-1.285-2.262c-1.799,0-2.467,2.826-4.574,8.325
			c0,0-1.438-0.257-1.438-0.668v-0.051c2.21-5.91,2.878-11.409,6.835-11.409c3.598,0,5.088,3.187,5.088,7.194
			c0,5.448-2.621,12.438-6.373,15.47c0.463,0.308,0.926,0.668,1.285,1.027c2.93-2.98,6.013-6.63,8.172-12.282
			c0.359,0,1.438,0.308,1.438,0.616c-2.21,5.756-5.602,9.662-8.686,13.002c0.72,1.388,1.079,3.032,1.079,4.729
			c0,4.625-2.569,9.456-7.04,9.456c-1.901,0-3.135-1.439-3.135-3.495c0-3.751,2.724-6.629,5.55-9.456
			c-0.205-0.925-0.514-1.747-0.925-2.364c-0.514,0.154-1.079,0.258-1.645,0.258c-0.514,0-0.977-0.052-1.438-0.206L159.405,215.804z
			 M163.671,223.666c0-0.411-0.051-0.771-0.051-1.182c-2.107,2.364-3.598,5.19-3.598,7.349c0,0.771,0.309,1.233,0.977,1.233
			C162.592,231.066,163.671,227.315,163.671,223.666z"/>
		<path display="inline" fill="#E6E7E8" d="M174.411,215.804c0.411-0.052,1.233-0.154,1.645-0.154c0.257,0,0.515,0,0.771,0.051
			c2.313-2.878,4.522-11.563,4.522-15.674c0-1.645-0.565-2.262-1.285-2.262c-1.799,0-2.467,2.826-4.574,8.325
			c0,0-1.438-0.257-1.438-0.668v-0.051c2.21-5.91,2.878-11.409,6.835-11.409c3.598,0,5.088,3.187,5.088,7.194
			c0,5.448-2.621,12.438-6.373,15.47c0.463,0.308,0.926,0.668,1.285,1.027c2.93-2.98,6.013-6.63,8.172-12.282
			c0.359,0,1.438,0.308,1.438,0.616c-2.21,5.756-5.602,9.662-8.686,13.002c0.72,1.388,1.079,3.032,1.079,4.729
			c0,4.625-2.569,9.456-7.04,9.456c-1.901,0-3.135-1.439-3.135-3.495c0-3.751,2.724-6.629,5.55-9.456
			c-0.205-0.925-0.514-1.747-0.925-2.364c-0.514,0.154-1.079,0.258-1.645,0.258c-0.514,0-0.977-0.052-1.438-0.206L174.411,215.804z
			 M178.677,223.666c0-0.411-0.051-0.771-0.051-1.182c-2.107,2.364-3.598,5.19-3.598,7.349c0,0.771,0.309,1.233,0.977,1.233
			C177.598,231.066,178.677,227.315,178.677,223.666z"/>
		<path display="inline" fill="#E6E7E8" d="M191.781,218.167c-2.518,0-3.546-2.775-3.546-6.526c0-7.246,3.957-17.936,8.839-17.936
			c1.902,0,2.981,1.13,3.341,3.443l0.565-2.878h3.648c-1.747,7.812-3.392,14.338-3.392,19.889c0,8.736,5.242,12.898,11.718,12.898
			c8.377,0,14.44-7.555,14.44-16.907c0-7.812-4.316-12.129-12.539-13.002l0.359-4.061c10.896,0.822,15.675,7.915,15.675,16.806
			c0,9.302-6.682,19.734-18.09,19.734c-10.381,0-15.058-6.321-15.058-16.651c0-0.205,0-0.411,0-0.668
			C196.561,215.443,194.762,218.167,191.781,218.167z M192.553,211.127c0,1.593,0.308,2.672,1.079,2.672
			c2.363,0,5.293-8.377,5.293-13.156c0-1.901-0.463-3.237-1.593-3.237C195.173,197.405,192.553,206.45,192.553,211.127z"/>
	</g>
	<g display="none">
		<g id="Center_Text_1_" display="inline">
			
				<rect x="40.304" y="41.998" transform="matrix(0.9832 -0.1825 0.1825 0.9832 -10.7407 17.4678)" fill="none" width="98.505" height="50.21"/>
			
				<text transform="matrix(0.9832 -0.1825 0.1825 0.9832 52.9956 89.4883)" fill="#E6E7E8" font-family="'Lavanderia-Sturdy'" font-size="51.39">Joe’s</text>
			
				<rect x="57.294" y="83.177" transform="matrix(0.9832 -0.1825 0.1825 0.9832 -17.669 26.2199)" fill="none" width="152.703" height="51.895"/>
			
				<text transform="matrix(0.9832 -0.1825 0.1825 0.9832 79.5762 130.3281)" fill="#E6E7E8" font-family="'Lavanderia-Sturdy'" font-size="46.9213">Pizza</text>
		</g>
		<g id="_x35_" display="inline">
			<path fill="none" stroke="#F1F1F2" stroke-width="2.2343" stroke-miterlimit="10" d="M121.964,6.851
				c1.669-0.781,4.402-0.781,6.071,0l4.173,1.952c1.669,0.782,4.518,1.142,6.329,0.8l4.531-0.854
				c1.812-0.341,4.458,0.338,5.881,1.51l3.557,2.93c1.423,1.172,4.092,2.229,5.932,2.349l4.594,0.3
				c1.84,0.12,4.234,1.436,5.321,2.925l2.718,3.723c1.087,1.489,3.41,3.176,5.161,3.75l4.377,1.433
				c1.751,0.574,3.743,2.444,4.426,4.157l1.706,4.282c0.683,1.712,2.513,3.924,4.066,4.916l3.886,2.478
				c1.554,0.992,3.018,3.298,3.253,5.127l0.59,4.574c0.235,1.829,1.457,4.426,2.716,5.773l3.146,3.367
				c1.259,1.347,2.103,3.945,1.876,5.775l-0.567,4.572c-0.227,1.83,0.312,4.649,1.195,6.267l2.211,4.044
				c0.884,1.618,1.056,4.344,0.381,6.06l-1.688,4.292c-0.675,1.716-0.854,4.581-0.4,6.367l1.138,4.47
				c0.454,1.786-0.058,4.47-1.139,5.964l-2.7,3.732c-1.081,1.494-1.968,4.224-1.972,6.067l-0.011,4.608
				c-0.004,1.844-1.166,4.315-2.584,5.494l-3.545,2.949c-1.418,1.179-2.956,3.603-3.418,5.387l-1.156,4.46
				c-0.462,1.784-2.204,3.89-3.87,4.678l-4.164,1.972c-1.666,0.788-3.758,2.754-4.649,4.367l-2.229,4.038
				c-0.892,1.613-3.101,3.22-4.911,3.569l-4.525,0.873c-1.811,0.35-4.325,1.733-5.59,3.074l-3.161,3.352
				c-1.265,1.341-3.805,2.348-5.645,2.236l-4.603-0.279c-1.84-0.111-4.621,0.604-6.18,1.588l-3.895,2.459
				c-1.559,0.984-4.27,1.327-6.023,0.761l-4.384-1.414c-1.754-0.566-4.625-0.566-6.379,0l-4.387,1.414
				c-1.754,0.566-4.464,0.224-6.023-0.761l-3.896-2.46c-1.559-0.984-4.339-1.699-6.179-1.587l-4.6,0.278
				c-1.84,0.112-4.38-0.895-5.645-2.235l-3.16-3.352c-1.265-1.341-3.78-2.725-5.59-3.074l-4.525-0.873
				c-1.81-0.35-4.02-1.956-4.911-3.569l-2.23-4.038c-0.891-1.613-2.983-3.579-4.649-4.367l-4.166-1.972
				c-1.666-0.788-3.408-2.894-3.87-4.678l-1.155-4.46c-0.462-1.784-2-4.209-3.417-5.388l-3.545-2.947
				c-1.417-1.179-2.58-3.651-2.584-5.495l-0.01-4.608c-0.004-1.844-0.892-4.573-1.972-6.067l-2.7-3.732
				c-1.081-1.494-1.593-4.178-1.138-5.964l1.137-4.47c0.455-1.786,0.274-4.651-0.4-6.367l-1.688-4.292
				c-0.675-1.716-0.503-4.442,0.381-6.06l2.211-4.045c0.884-1.618,1.422-4.438,1.195-6.267l-0.568-4.572
				c-0.227-1.83,0.617-4.428,1.876-5.774l3.148-3.368c1.259-1.347,2.481-3.944,2.716-5.772l0.588-4.574
				c0.235-1.828,1.699-4.135,3.253-5.126l3.885-2.479c1.554-0.991,3.384-3.203,4.066-4.916l1.706-4.282
				c0.683-1.712,2.674-3.583,4.426-4.156l4.377-1.434c1.752-0.574,4.074-2.261,5.161-3.75l2.718-3.723
				c1.087-1.489,3.481-2.805,5.32-2.925l4.598-0.3c1.839-0.12,4.508-1.177,5.931-2.349l3.557-2.93
				c1.423-1.172,4.069-1.852,5.88-1.51l4.528,0.854c1.812,0.341,4.66-0.019,6.329-0.8L121.964,6.851z"/>
		</g>
		<g display="inline">
			<rect y="186" fill="none" width="250" height="52.667"/>
			<text transform="matrix(1 0 0 1 17.854 226.4434)" fill="#E6E7E8" font-family="'Lavanderia-Sturdy'" font-size="51.39">Joe’s Pizza</text>
		</g>
	</g>
</g>
<g id="Layer_3_1_" display="none">
	<g id="AmbiPortal" display="inline">
		<g>
			<path fill="#D1D3D4" d="M198.523,65.375c1.558-8.793-0.969-18.192-7.672-25.1c-8.627-8.887-21.586-10.99-32.293-6.27
				c-4.5-8.682-12.74-15.313-23.074-17.353c-16.722-3.306-32.982,6.58-38.061,22.428c-8.111-3.225-17.521-3.107-25.91,1.19
				C56.08,48.161,49.968,67.06,57.848,82.498c-9.306,2.764-17.212,9.749-20.7,19.592c-5.789,16.342,2.757,34.294,19.107,40.096
				c6.319,2.244,12.848,2.285,18.845,0.608c9.066-3.519,39.971-1.545,36.78,39.729c0,0,3.919-18.356,3.496-27.207
				c-0.259-5.246-3.856-11.996-9.108-14.613c-4.708-2.359-15.199-5.848-22.359-10.313c-7.818-4.871-7.805-14.459,6.038-10.949
				c7.834,1.984,15.74,7.268,18.753,4.704c2.355-2.001-2.772-12.083-6.965-22.65c-3.911-9.813-7.308-19.755-7.603-20.593
				c-1.991-5.583-1.563-9.366,1.93-10.707c2.722-1.041,5.982-0.482,8.604,5.346c7.079,15.686,9.47,31.813,14.551,31.059
				c5.233-0.791,0.076-23.157,1.535-41.077c0.527-6.458,1.873-9.271,6.04-9.323c3.67-0.068,5.874,3.179,6.103,10.841
				c0.705,24.389-3.681,38.798,2.797,39.29c3.8,0.285,4.961-13.41,12.817-31.642c1.394-3.252,3.775-9.234,8.767-7.185
				c4.537,1.863,3.66,7.152,1.565,12.039c-9.101,21.177-14.42,29.861-10.332,32.016c2.101,1.107,4.896-1.295,8.572-5.625
				c3.735-4.411,7.313-9.143,8.085-10.076c2.49-3.096,5.764-4.484,8.074-2.213c1.693,1.66,1.283,5.623-1.611,9.122
				c-5.773,6.978-10.884,12.388-14.451,16.812c-4.919,6.076-7.377,10.084-8.584,12.057c-2.418,3.904-5.806,8.441-7.824,20.338
				c-1.824,10.754,3.869,25.965,4.695,29.84c-7.095-56.708,28.598-61.944,39.918-61.792c14.713,0.27,27.467-10.725,29.105-25.645
				C215.855,81.97,209.113,70.574,198.523,65.375"/>
			<g>
				<path fill="#D1D3D4" d="M229.971,195.289v-0.252c0-1.266-0.709-2.123-1.818-2.123c-1.262,0-1.92,0.809-1.92,2.324v0.303v25.754
					v0.303c0,3.131,1.566,5.353,3.638,5.353c1.012,0,1.868-0.808,1.868-1.815c0-0.656-0.254-1.111-0.907-1.615
					c-0.656-0.508-0.858-1.012-0.858-2.224v-0.303v-25.704H229.971z M219.365,220.689V204.58c0-1.16-0.758-1.973-1.867-1.973
					c-0.857,0-1.516,0.559-1.77,1.416c-0.101,0.402-0.201,0.506-0.402,0.453c-0.102,0-0.201,0-0.252-0.051
					c-0.053,0-0.15,0-0.254-0.103c-2.121-1.313-3.787-1.815-5.906-1.815c-3.283,0-6.262,1.362-8.23,3.838
					c-1.817,2.225-2.524,4.442-2.524,8.078c0,3.688,0.707,6.01,2.426,8.131c1.97,2.424,5.199,3.938,8.33,3.938
					c2.373,0,4.597-0.757,6.563-2.322c0.201-0.2,0.304-0.2,0.404-0.2c0.102,0,0.201,0,0.252,0.151
					c0.857,1.414,1.918,2.17,3.182,2.17c0.959,0,1.718-0.908,1.718-2.021c0-0.455-0.15-0.908-0.556-1.211l-0.203-0.201
					c-0.653-0.606-0.907-1.112-0.907-2.021v-0.149H219.365L219.365,220.689z M215.527,213.973v0.506
					c0,2.929-0.199,3.836-1.162,5.451c-1.059,1.719-3.182,2.828-5.451,2.828c-2.777,0-5.402-1.715-6.313-4.141
					c-0.354-0.959-0.558-2.475-0.558-4.344c0-1.061,0.051-1.969,0.149-2.523c0.605-3.18,3.435-5.605,6.666-5.605
					c1.972,0,3.892,0.91,5.15,2.476C215.225,210.084,215.527,211.145,215.527,213.973 M191.846,202.156l0.051-7.221v-0.252
					c0-1.314-0.758-2.123-1.918-2.123c-1.213,0-1.92,0.809-1.92,2.123v0.301l-0.051,6.92v0.201v0.102
					c0,0.504-0.152,0.605-0.707,0.605h-0.104h-0.148c-1.717,0-2.576,0.655-2.576,1.971c0,1.209,0.81,1.867,2.523,1.867h0.152h0.049
					c0.607,0,0.762,0.102,0.762,0.555v0.203l-0.104,14.34v0.104c0,3.535,1.362,4.849,4.848,4.849c1.717,0,2.627-0.604,2.627-1.869
					c0-1.062-0.607-1.718-1.719-1.867l-0.453-0.051c-1.16-0.201-1.465-0.604-1.465-2.07v-0.252l0.102-13.28v-0.103
					c0-0.504,0.051-0.556,0.707-0.556h0.705h0.203c1.313,0,2.121-0.707,2.121-1.92c0-1.412-0.707-1.866-2.93-1.918
					c-0.707,0-0.759,0-0.759-0.556v-0.103H191.846L191.846,202.156z M172.404,212.457v-0.303c0-3.639,1.768-5.857,4.697-5.857
					c0.756,0,1.666,0.404,2.776,1.213c0.556,0.352,0.759,0.455,1.108,0.455c1.013,0,1.869-0.91,1.869-1.973
					c0-0.605-0.252-1.109-0.91-1.613c-1.36-1.111-3.129-1.771-4.846-1.771c-1.264,0-2.932,0.559-4.244,1.363
					c-0.201,0.151-0.252,0.151-0.303,0.151c-0.1,0-0.201,0-0.402-0.304c-0.354-0.604-0.959-0.907-1.614-0.907
					c-1.265,0-1.92,0.856-1.92,2.625v0.252v18.229v0.303c0,1.615,0.604,2.322,1.92,2.322c1.313,0,1.866-0.707,1.866-2.424v-0.301
					v-11.461H172.404z M163.873,214.074c-0.154-6.969-4.496-11.867-10.504-11.867c-1.869,0-3.688,0.504-5.305,1.518
					c-3.938,2.373-5.353,5.2-5.353,10.553c0,1.818,0.201,3.435,0.504,4.746c1.111,4.345,5.354,7.474,10.05,7.474
					c6.313,0,10.604-4.847,10.604-12.017v-0.405L163.873,214.074L163.873,214.074z M160.033,213.67v0.453
					c0,1.414-0.102,2.627-0.303,3.586c-0.658,2.879-3.383,5-6.414,5c-3.232,0-6.06-2.373-6.515-5.455
					c-0.102-0.707-0.202-2.322-0.202-3.688c0-1.109,0.053-1.918,0.151-2.475c0.506-2.879,3.332-5.052,6.666-5.052
					C157.559,206.043,159.932,208.771,160.033,213.67 M122.414,205.033l-0.102,0.104c-0.051,0.102-0.15,0.102-0.201,0.102
					c-0.102,0-0.152,0-0.152-0.303c-0.102-1.11-0.908-1.92-1.971-1.92c-1.211,0-1.816,0.81-1.816,2.373v0.305l-0.102,28.983v0.103
					c0,1.414,0.707,2.222,1.869,2.222c1.264,0,1.971-0.808,1.971-2.271v-0.354l0.049-9.039v-0.149c0-0.203,0.102-0.203,0.203-0.304
					c0.102,0,0.15,0,0.404,0.252c1.412,1.111,4.141,1.919,6.209,1.919c2.627,0,5.203-1.011,7.121-2.88
					c2.424-2.373,3.332-4.946,3.332-9.342c0-7.222-4.189-11.916-10.654-11.916c-2.322,0-4.443,0.707-6.008,2.021L122.414,205.033z
					 M135.441,215.285c-0.051,2.777-0.303,3.787-1.262,5.252c-1.265,1.77-3.134,2.777-5.354,2.777c-2.425,0-4.596-1.213-5.857-3.232
					c-0.959-1.563-1.059-2.066-1.059-5.807c0-2.576,0.252-3.586,1.313-4.949c1.211-1.516,3.383-2.574,5.352-2.574
					c2.121,0,4.445,1.214,5.707,2.93c0.908,1.213,1.162,2.32,1.162,5.051v0.554L135.441,215.285L135.441,215.285z"/>
				<path fill="#D1D3D4" d="M113.547,195.036c0-1.313-0.857-2.222-2.069-2.222c-1.263,0-2.224,0.908-2.224,2.168
					c0,1.213,0.961,2.172,2.172,2.172C112.588,197.154,113.547,196.195,113.547,195.036 M109.457,224.271v0.252
					c0,1.465,0.655,2.224,1.818,2.224c1.313,0,2.02-0.906,2.02-2.627v-0.197v-18.435v-0.254c0-1.264-0.808-2.223-1.918-2.223
					s-1.92,0.91-1.92,2.072v0.301V224.271L109.457,224.271z M87.189,204.376v-8.987v-0.353c0-1.517-0.708-2.323-1.971-2.323
					c-1.161,0-1.869,0.807-1.869,2.223v0.147l0.103,29.035v0.254c0,1.614,0.605,2.321,1.816,2.321c1.062,0,1.87-0.707,2.021-1.868
					c0-0.201,0.102-0.201,0.152-0.304c0.049,0,0.102,0,0.15,0.103l0.102,0.104l0.152,0.149c1.563,1.265,3.686,1.972,6.008,1.972
					c3.688,0,7.171-1.92,9.09-5.104c1.109-1.867,1.566-3.888,1.566-7.019c0-4.141-0.959-6.768-3.334-9.09
					c-1.918-1.869-4.494-2.93-7.121-2.93c-2.12,0-4.797,0.857-6.209,1.92c-0.103,0.1-0.202,0.1-0.202,0.15
					c-0.052,0.051-0.153,0.051-0.255,0.051c-0.149,0-0.199,0-0.199-0.303V204.376L87.189,204.376z M100.721,214.527v0.505
					c0,2.729-0.252,3.786-1.161,5.049c-1.16,1.666-3.636,2.93-5.706,2.93c-1.969,0-4.092-1.01-5.352-2.573
					c-1.162-1.414-1.313-2.172-1.313-5.605c0-3.029,0.101-3.635,1.06-5.15c1.313-2.02,3.435-3.231,5.857-3.231
					c2.171,0,4.091,1.01,5.354,2.827C100.42,210.689,100.672,211.749,100.721,214.527 M77.343,211.042v-0.252
					c0-4.646-3.787-8.181-8.736-8.181c-2.323,0-4.545,0.857-6.413,2.476c-0.202,0.201-0.303,0.25-0.454,0.25
					c-0.151,0-0.303-0.049-0.655-0.353c-1.719-1.516-3.89-2.323-6.061-2.323c-1.563,0-2.828,0.354-4.19,1.11
					c-0.354,0.201-0.506,0.304-0.605,0.254c-0.102,0-0.202,0-0.253-0.2l-0.151-0.154c-0.403-0.604-0.857-0.856-1.515-0.856
					c-1.262,0-1.969,0.856-1.969,2.373v0.201v18.383v0.252c0,1.869,0.555,2.574,1.919,2.574c1.313,0,1.918-0.857,1.918-2.728v-0.201
					v-11.06v-0.254c0-3.938,1.616-5.908,4.848-5.908c3.131,0,4.696,1.921,4.696,5.759v0.203v11.813v0.203
					c0,1.363,0.758,2.17,1.919,2.17c1.161,0,1.969-0.857,1.969-2.17v-0.404v-11.514v-0.252c0-3.736,1.767-5.809,4.948-5.809
					c3.081,0,4.849,1.869,4.849,5.102v0.252v12.422v0.152c0,1.414,0.706,2.221,1.867,2.221c1.212,0,2.071-0.857,2.071-2.271v-0.252
					L77.343,211.042L77.343,211.042z M39.47,220.688V204.58c0-1.16-0.757-1.969-1.869-1.969c-0.858,0-1.515,0.555-1.767,1.414
					c-0.103,0.401-0.202,0.504-0.404,0.455c-0.102,0-0.202,0-0.251-0.053c-0.051,0-0.152,0-0.254-0.104
					c-2.12-1.313-3.787-1.816-5.908-1.816c-3.282,0-6.261,1.363-8.23,3.841c-1.818,2.221-2.524,4.44-2.524,8.077
					c0,3.688,0.706,6.011,2.423,8.132c1.969,2.424,5.201,3.938,8.332,3.938c2.374,0,4.596-0.756,6.565-2.322
					c0.201-0.201,0.304-0.201,0.403-0.201c0.101,0,0.203,0,0.252,0.15c0.858,1.414,1.919,2.172,3.182,2.172
					c0.96,0,1.717-0.908,1.717-2.02c0-0.455-0.151-0.908-0.556-1.211l-0.201-0.201c-0.656-0.607-0.909-1.113-0.909-2.021
					L39.47,220.688L39.47,220.688z M35.632,213.973v0.506c0,2.928-0.202,3.836-1.161,5.451c-1.062,1.719-3.181,2.829-5.455,2.829
					c-2.777,0-5.402-1.717-6.311-4.143c-0.354-0.959-0.558-2.476-0.558-4.343c0-1.061,0.051-1.969,0.153-2.524
					c0.605-3.183,3.433-5.604,6.665-5.604c1.969,0,3.889,0.906,5.149,2.474C35.33,210.083,35.632,211.145,35.632,213.973"/>
			</g>
		</g>
	</g>
</g>
<g id="Layer_2_1_" display="none">
	<g id="Layer_3" display="inline">
		<g>
			<g>
				<path fill="#58595B" d="M90.435,177.417c10.778,0,21.074-3.138,29.851-8.97c-1.193-1.038-2.349-2.137-3.484-3.29
					c-2.56-2.617-4.85-5.447-6.871-8.431c-5.735,3.367-12.394,5.293-19.515,5.293c-21.306,0-38.646-17.34-38.646-38.646
					c0-16.397,10.277-30.446,24.712-36.047L65.338,75.471c-4.792,2.502-9.219,5.755-13.145,9.681
					c-10.201,10.201-15.82,23.769-15.82,38.204s5.62,28.001,15.82,38.203C62.413,171.797,76,177.417,90.435,177.417z"/>
				<path fill="#58595B" d="M139.762,90.233c5.813-3.484,12.588-5.505,19.842-5.505c21.307,0,38.646,17.341,38.646,38.646
					c0,21.306-17.341,38.646-38.646,38.646c-9.736,0-19.381-3.828-26.48-10.508c-7.679-7.236-12.164-17.59-12.164-28.138
					c0-3.368,0.442-6.658,1.251-9.776c-0.847-2.772-2.06-5.409-3.599-7.892c-1.848-2.925-4.118-5.542-6.736-7.756
					c-4.119,7.737-6.313,16.397-6.313,25.405c0,15.569,6.948,30.773,18.765,40.936c9.354,8.063,21.536,12.76,33.873,13.087
					c0.461,0.021,0.923,0.021,1.403,0.021c14.436,0,28.004-5.619,38.205-15.82c10.198-10.199,15.818-23.77,15.818-38.203
					c0-14.434-5.62-28.002-15.818-38.203c-10.201-10.2-23.771-15.82-38.205-15.82c-10.912,0-21.324,3.214-30.177,9.199
					C133.354,81.938,136.836,85.884,139.762,90.233z"/>
				<path fill="#58595B" d="M122.845,80.167c-2.31-1.751-4.773-3.329-7.371-4.676l-11.105,11.835
					c0.327,0.135,0.674,0.27,1.001,0.404c8.141,3.426,15.012,9.662,19.169,17.456c4.465,8.373,5.697,18.36,3.406,27.561l1.214,2.983
					c2.001,4.906,5.194,9.275,9.198,12.701c3.194-6.08,5.177-12.722,5.869-19.649c0.174-1.79,0.271-3.599,0.271-5.389
					C144.477,106.496,136.162,90.291,122.845,80.167z"/>
				<path fill="#58595B" d="M86.913,90.541c0.943,1,2.232,1.521,3.503,1.521s2.56-0.501,3.502-1.521l4.658-4.946l19.342-20.554
					c1.501-1.597,1.732-4.023,0.558-5.87l-6.582-10.354c-0.886-1.385-2.406-2.233-4.062-2.233H73.037
					c-1.636,0-3.176,0.848-4.061,2.233L62.394,59.17c-1.174,1.847-0.962,4.273,0.558,5.87L86.913,90.541z"/>
			</g>
		</g>
		<g>
			<path fill="#58595B" d="M44.476,219.424l0.472,2.688h0.123l0.574-2.688l4.43-14.109h3.24l4.45,14.109l0.636,2.994h0.123
				l0.595-2.994l3.486-14.109h4.02l-6.439,22.189h-3.261l-4.286-13.516l-0.923-3.772l-0.123,0.021l-0.882,3.754l-4.225,13.515
				h-3.261l-6.439-22.188h4.02L44.476,219.424z"/>
			<path fill="#58595B" d="M79.791,227.936c-3.09,0-5.547-1.028-7.373-3.088c-1.825-2.057-2.738-4.727-2.738-8.008v-0.902
				c0-3.158,0.94-5.785,2.82-7.885c1.88-2.099,4.105-3.148,6.675-3.148c2.994,0,5.257,0.902,6.788,2.707
				c1.531,1.806,2.297,4.212,2.297,7.22v2.522H73.864l-0.063,0.103c0.041,2.127,0.581,3.875,1.62,5.245
				c1.039,1.369,2.495,2.056,4.368,2.056c1.367,0,2.567-0.194,3.599-0.584c1.032-0.391,1.924-0.927,2.676-1.61l1.579,2.629
				c-0.793,0.783-1.839,1.438-3.138,1.961C83.208,227.673,81.636,227.936,79.791,227.936z M79.175,208.083
				c-1.354,0-2.509,0.569-3.466,1.707s-1.545,2.563-1.764,4.28l0.041,0.104H84.22v-0.531c0-1.58-0.424-2.901-1.271-3.966
				C82.101,208.613,80.843,208.083,79.175,208.083z"/>
			<path fill="#58595B" d="M91.87,216.818c0-3.567,0.762-6.445,2.287-8.633c1.525-2.188,3.661-3.281,6.409-3.281
				c1.299,0,2.451,0.238,3.456,0.718s1.863,1.176,2.574,2.092v-12.202h4.04v31.992h-3.302l-0.472-2.729
				c-0.725,1.039-1.613,1.826-2.666,2.358c-1.053,0.533-2.276,0.8-3.671,0.8c-2.707,0-4.826-0.979-6.357-2.941
				c-1.531-1.963-2.297-4.543-2.297-7.742L91.87,216.818L91.87,216.818z M95.91,217.25c0,2.242,0.458,4.037,1.374,5.383
				c0.916,1.348,2.338,2.021,4.266,2.021c1.203,0,2.215-0.273,3.035-0.82s1.49-1.313,2.01-2.297V211.18
				c-0.52-0.916-1.193-1.644-2.02-2.184c-0.827-0.54-1.822-0.811-2.984-0.811c-1.941,0-3.374,0.799-4.296,2.398
				s-1.384,3.678-1.384,6.234L95.91,217.25L95.91,217.25z"/>
			<path fill="#58595B" d="M120.642,227.504h-2.461v-29.859h2.461V227.504z"/>
			<path fill="#58595B" d="M130.506,205.314l0.227,3.875c0.711-1.366,1.67-2.422,2.881-3.168c1.21-0.744,2.644-1.117,4.298-1.117
				c2.405,0,4.237,0.734,5.496,2.205c1.258,1.47,1.887,3.763,1.887,6.879v13.516h-2.461v-13.521c0-2.547-0.478-4.35-1.426-5.403
				c-0.951-1.056-2.302-1.582-4.052-1.582c-1.723,0-3.127,0.456-4.215,1.366c-1.086,0.91-1.869,2.119-2.348,3.627v15.515h-2.461
				v-22.188h2.174V205.314z"/>
			<path fill="#58595B" d="M158.027,221.945l0.718,2.604h0.123l0.778-2.604l6.029-16.631h2.543l-8.429,22.188h-1.97l-8.448-22.188
				h2.543L158.027,221.945z"/>
			<path fill="#58595B" d="M175.008,198.957h-2.439v-3.445h2.439V198.957z M175.008,227.504h-2.439v-22.189h2.439V227.504z"/>
			<path fill="#58595B" d="M185.65,199.634v5.681h4.882v2.011h-4.882v14.458c0,1.449,0.264,2.479,0.789,3.087
				c0.526,0.608,1.229,0.912,2.104,0.912c0.396,0,0.782-0.017,1.159-0.052c0.375-0.033,0.81-0.092,1.302-0.174l0.369,1.824
				c-0.41,0.178-0.909,0.314-1.497,0.41s-1.176,0.145-1.765,0.145c-1.559,0-2.771-0.492-3.641-1.478s-1.302-2.543-1.302-4.676
				v-14.458h-3.835v-2.01h3.835v-5.682L185.65,199.634L185.65,199.634z"/>
			<path fill="#58595B" d="M204.066,227.936c-2.774,0-5.082-1.025-6.922-3.076c-1.838-2.051-2.758-4.648-2.758-7.793v-1.129
				c0-3.172,0.912-5.804,2.738-7.896c1.824-2.092,4.036-3.138,6.634-3.138c2.722,0,4.86,0.861,6.419,2.584s2.338,4.02,2.338,6.891
				v2.092h-15.668v0.594c0,2.496,0.664,4.584,1.989,6.263c1.326,1.678,3.069,2.517,5.229,2.517c1.531,0,2.836-0.212,3.916-0.636
				s2.004-1.032,2.77-1.825l1.046,1.682c-0.834,0.879-1.891,1.576-3.169,2.096C207.352,227.676,205.831,227.936,204.066,227.936z
				 M203.76,206.996c-1.818,0-3.343,0.691-4.572,2.076c-1.23,1.384-1.949,3.117-2.153,5.203l0.041,0.104h13.002v-0.613
				c0-1.923-0.567-3.531-1.702-4.826C207.238,207.645,205.701,206.996,203.76,206.996z"/>
		</g>
	</g>
</g>
</svg>
