<?xml version="1.0" encoding="utf-8"?>
<!-- Generator: Adobe Illustrator 16.0.0, SVG Export Plug-In . SVG Version: 6.00 Build 0)  -->
<!DOCTYPE svg PUBLIC "-//W3C//DTD SVG 1.1//EN" "http://www.w3.org/Graphics/SVG/1.1/DTD/svg11.dtd">
<svg version="1.1" id="Layer_1" xmlns="http://www.w3.org/2000/svg" xmlns:xlink="http://www.w3.org/1999/xlink" x="0px" y="0px"
	 width="100px" height="100px" viewBox="0 0 100 100" enable-background="new 0 0 100 100" xml:space="preserve">
<g>
	<circle fill="none" stroke="#808285" cx="120.324" cy="200.905" r="23.25"/>
	<path id="gamepad-4-icon_2_" fill="#FFFFFF" d="M125.596,194.408c1.82,0.066,3.272,1.563,3.272,3.396
		c0,1.873-1.524,3.398-3.398,3.398c-0.848,0-1.659-0.314-2.286-0.885c-1.629-1.484-4.109-1.439-5.743,0.021
		c-0.622,0.557-1.426,0.863-2.262,0.863c-1.874,0-3.398-1.525-3.398-3.398s1.524-3.398,3.398-3.398L125.596,194.408z
		 M125.647,192.951h-10.469c-2.681,0-4.854,2.172-4.854,4.854s2.174,4.854,4.854,4.854c1.241,0,2.374-0.465,3.232-1.232
		c1.064-0.951,2.704-1.021,3.792-0.031c0.862,0.785,2.009,1.264,3.267,1.264c2.681,0,4.854-2.172,4.854-4.854
		c0-2.621-2.078-4.758-4.677-4.852V192.951z M117.339,198.346h-1.376v1.377h-1.18v-1.377h-1.377v-1.18h1.377v-1.375h1.18v1.375
		h1.376V198.346L117.339,198.346z M121.076,198.367h-1.456v-0.729h1.456V198.367z M124.692,196.012c0.276-0.275,0.725-0.275,1.001,0
		c0.276,0.277,0.276,0.725,0,1.002c-0.276,0.275-0.725,0.275-1.001,0C124.416,196.736,124.416,196.289,124.692,196.012z
		 M124.079,198.256c-0.276,0.277-0.725,0.277-1.001,0c-0.276-0.275-0.276-0.725,0-1c0.277-0.277,0.725-0.277,1.001,0
		C124.355,197.531,124.355,197.98,124.079,198.256z M125.693,199.527c-0.276,0.275-0.725,0.275-1.001,0
		c-0.276-0.277-0.276-0.725,0-1.002c0.276-0.275,0.725-0.275,1.001,0C125.97,198.803,125.97,199.25,125.693,199.527z
		 M127.255,198.256c-0.276,0.277-0.725,0.277-1.001,0c-0.276-0.275-0.276-0.725,0-1c0.276-0.277,0.725-0.277,1.001,0
		C127.531,197.531,127.531,197.98,127.255,198.256z M120.795,191.447v0.531h-0.985v-0.531c0-1.297-0.4-1.508-1.804-1.77
		c-2.152-0.398-2.857-1.125-2.488-3.498l0.977,0.135c-0.296,1.871,0.103,2.1,1.692,2.395
		C119.41,188.938,120.795,189.229,120.795,191.447z"/>
	<rect x="102.824" y="207.169" fill="none" width="35" height="7.124"/>
	<text transform="matrix(1 0 0 1 106.5293 213.249)" fill="#939598" font-family="'OpenSans'" font-size="8">gaming</text>
</g>
<g>
	<circle fill="none" stroke="#2BB673" cx="-19.676" cy="200.905" r="23.25"/>
	<rect x="-37.176" y="207.169" fill="none" width="35" height="7.124"/>
	<text transform="matrix(1 0 0 1 -32.106 213.249)" fill="#939598" font-family="'OpenSans'" font-size="8">coding</text>
	<path id="html-code-icon" fill="#FFFFFF" d="M-18.066,187.975h2.407l-5.465,14.367h-2.395L-18.066,187.975z M-7.176,196.151
		l-7.097,3.99v-2.475l4.131-2.332l-4.131-2.306v-2.479l7.097,3.987V196.151z M-32.176,194.538l7.097-3.987v2.479l-4.134,2.306
		l4.134,2.332v2.475l-7.097-3.99V194.538z"/>
</g>
<g>
	<circle fill="none" stroke="#2BB673" cx="-19.676" cy="267.136" r="23.25"/>
	<rect x="-37.176" y="273.399" fill="none" width="35" height="7.124"/>
	<text transform="matrix(1 0 0 1 -32.7349 279.4795)" fill="#939598" font-family="'OpenSans'" font-size="8">photos</text>
	<path id="photo-camera-6-icon" fill="#FFFFFF" d="M-14.359,257.301l-1.375-2.488h-7.946l-1.264,2.488h-4.731v12.961h20v-12.961
		H-14.359z M-11.617,262.888h-2.932c0,0,0,0,0,0.001c0,2.826-2.301,5.127-5.127,5.127s-5.127-2.301-5.127-5.127
		c0-0.001,0-0.001,0-0.001h-2.932v-3.646h3.982l1.264-2.488h5.608l1.374,2.488h3.889V262.888z M-19.676,259.801
		c-1.786,0-3.184,1.357-3.184,3.088c0,1.756,1.428,3.184,3.184,3.184s3.184-1.428,3.184-3.184
		C-16.492,261.158-17.89,259.801-19.676,259.801z M-20.022,262.587c-0.503,0.395-1.163,0.392-1.474-0.004
		c-0.313-0.397-0.156-1.038,0.347-1.433c0.506-0.395,1.163-0.391,1.475,0.005C-19.364,261.552-19.52,262.194-20.022,262.587z"/>
</g>
<g>
	<circle fill="none" stroke="#559B7B" cx="50.324" cy="267.136" r="23.25"/>
	<rect x="32.824" y="273.399" fill="none" width="35" height="7.124"/>
	<text transform="matrix(1 0 0 1 36.0259 279.4795)" fill="#939598" font-family="'OpenSans'" font-size="8">football</text>
	<g>
		<g>
			<path fill="#FFFFFF" d="M59.561,268.823c0.01-3.812-3.306-11.946-4.212-14.096c-0.128,0.016-0.258,0.028-0.387,0.042
				c0.88,1.998,3.938,9.297,4.059,14.255C59.21,268.955,59.391,268.889,59.561,268.823z"/>
			<path fill="#FFFFFF" d="M44.495,254.723c-0.314-0.032-0.491-0.054-0.491-0.054c-3.758,9.172-4.586,13.922-4.586,13.922
				c0.163,0,0.487,0.062,0.908,0.159C40.357,264.864,43.484,257.124,44.495,254.723z"/>
			<path fill="#FFFFFF" d="M41.346,269.003c0.127-4.93,3.146-12.159,4.042-14.2c-0.139-0.011-0.269-0.022-0.389-0.033
				c-0.932,2.214-4.229,10.324-4.194,14.096C40.976,268.909,41.155,268.954,41.346,269.003z"/>
			<path fill="#FFFFFF" d="M49.044,270.315c0-0.55,0.62-2.674,0.62-2.674c0.66,1.982,1.486,2.644,1.486,2.644
				c2.808,0.177,5.496-0.463,7.39-1.096c-0.058-4.936-3.319-12.637-4.082-14.37c-3.294,0.3-6.575,0.165-8.56,0.022
				c-0.778,1.77-3.99,9.373-4.073,14.288c1.485,0.396,3.314,0.911,4.574,1.186C48.631,270.799,49.044,270.315,49.044,270.315z
				 M56.604,267.411l0.827,0.745l-1.9,0.743L56.604,267.411z M54.627,255.732l-0.579,1.046l-0.21-0.116l0.58-1.046L54.627,255.732z
				 M54.116,255.732l-0.578,1.046l-0.212-0.116l0.578-1.046L54.116,255.732z M53.604,255.732l-0.579,1.046l-0.21-0.116l0.578-1.046
				L53.604,255.732z M53.093,255.732l-0.579,1.046l-0.21-0.116l0.578-1.046L53.093,255.732z M52.581,255.732l-0.579,1.046
				l-0.21-0.116l0.578-1.046L52.581,255.732z M52.07,255.732l-0.579,1.046l-0.211-0.116l0.578-1.046L52.07,255.732z M51.559,255.732
				l-0.578,1.046l-0.211-0.116l0.578-1.046L51.559,255.732z M51.048,255.732l-0.579,1.046l-0.211-0.116l0.578-1.046L51.048,255.732z
				 M50.325,255.616l0.211,0.116l-0.579,1.046l-0.21-0.116L50.325,255.616z M50.025,255.732l-0.579,1.046l-0.211-0.116l0.578-1.046
				L50.025,255.732z M49.513,255.732l-0.578,1.046l-0.21-0.116l0.577-1.046L49.513,255.732z M49.001,255.732l-0.578,1.046
				l-0.21-0.116l0.578-1.046L49.001,255.732z M48.49,255.732l-0.578,1.046l-0.211-0.116l0.578-1.046L48.49,255.732z M47.979,255.732
				l-0.578,1.046l-0.21-0.116l0.578-1.046L47.979,255.732z M47.4,255.732l-0.578,1.046l-0.211-0.116l0.579-1.046L47.4,255.732z
				 M45.455,256.662l0.578-1.046l0.211,0.117l-0.579,1.046L45.455,256.662z M46.033,256.662l0.578-1.046l0.211,0.117l-0.578,1.046
				L46.033,256.662z"/>
			<path fill="#FFFFFF" d="M61.23,268.096c-0.578-0.827-2.023-6.775-2.52-8.057c-0.436-1.122-2.329-4.403-2.79-5.195
				c1.051,2.51,4.026,9.934,4.115,13.791C60.79,268.324,61.23,268.096,61.23,268.096z"/>
		</g>
	</g>
</g>
<g>
	<circle fill="none" stroke="#559B7B" cx="50.324" cy="200.905" r="23.25"/>
	<rect x="32.824" y="207.169" fill="none" width="35" height="7.124"/>
	<text transform="matrix(1 0 0 1 37.5659 213.249)" fill="#939598" font-family="'OpenSans'" font-size="8">driving</text>
	<g>
		<path fill="#FFFFFF" d="M50.324,185.684c-5.227,0-9.479,4.253-9.479,9.479c0,3.526,1.939,6.741,5.062,8.389l0.249,0.132h8.338
			l0.249-0.132c3.122-1.647,5.062-4.862,5.062-8.389C59.804,189.937,55.551,185.684,50.324,185.684z M52.564,198.422
			c0.138-0.037,0.253-0.133,0.312-0.264c0.879-1.947,1.229-3.766,1.099-5.717c-0.012-0.203-0.151-0.373-0.345-0.429
			c-1.133-0.317-2.212-0.472-3.306-0.472c-1.093,0-2.173,0.154-3.306,0.472c-0.193,0.056-0.331,0.226-0.345,0.429
			c-0.13,1.951,0.22,3.77,1.099,5.717c0.06,0.131,0.174,0.228,0.312,0.264 M49.276,201.411h-2.548
			c-1.557-0.896-2.697-2.319-3.247-3.977c0.952-0.135,1.903-0.244,2.857-0.322c-0.364-1.087-0.571-2.154-0.628-3.245
			c-0.945,0.217-1.841,0.551-2.591,1.063c0.125-3.867,3.309-6.974,7.204-6.974c3.897,0,7.08,3.107,7.204,6.975
			c-0.074-0.05-0.153-0.101-0.237-0.149c-0.716-0.411-1.519-0.696-2.354-0.893c-0.06,1.084-0.266,2.144-0.627,3.223
			c0.954,0.078,1.905,0.187,2.857,0.322c-0.55,1.657-1.69,3.081-3.248,3.978h-2.542"/>
	</g>
</g>
<g>
	<circle fill="none" stroke="#808285" cx="120.324" cy="267.136" r="23.25"/>
	<rect x="102.824" y="273.399" fill="none" width="35" height="7.124"/>
	<text transform="matrix(1 0 0 1 105.668 279.4795)" fill="#939598" font-family="'OpenSans'" font-size="8">running</text>
	<g>
		<g id="Layer_1_1_">
			<path fill="#FFFFFF" d="M108.813,264.338l0.884,1.117c0.038,0.048,0.094,0.073,0.15,0.073c0.041,0,0.083-0.014,0.118-0.042
				l0.16-0.127c0.063,0.056,0.128,0.108,0.193,0.161l-0.089,0.149c-0.026,0.044-0.033,0.096-0.021,0.145
				c0.013,0.05,0.045,0.092,0.088,0.117l1.227,0.726c0.03,0.019,0.063,0.027,0.097,0.027c0.065,0,0.129-0.034,0.164-0.094
				l0.091-0.152c0.067,0.029,0.136,0.058,0.204,0.085l-0.066,0.215c-0.015,0.049-0.01,0.101,0.014,0.146
				c0.024,0.045,0.064,0.078,0.113,0.093l1.362,0.418c0.019,0.006,0.037,0.009,0.056,0.009c0.082,0,0.157-0.053,0.183-0.135
				l0.073-0.239c0.115,0.023,0.23,0.045,0.347,0.064l-0.025,0.251c-0.005,0.051,0.011,0.102,0.043,0.141
				c0.031,0.039,0.078,0.063,0.128,0.068l1.418,0.141c0.007,0.001,0.013,0.001,0.02,0.001c0.097,0,0.18-0.073,0.189-0.172
				l0.025-0.253l0.282,0.012l-0.01,0.21c-0.002,0.051,0.017,0.101,0.051,0.138s0.082,0.06,0.132,0.062l1.424,0.061
				c0.003,0.001,0.006,0.001,0.009,0.001c0.102,0,0.186-0.08,0.19-0.183l0.009-0.224l0.235,0.006v0.209
				c0,0.105,0.086,0.191,0.191,0.191h1.425c0.105,0,0.19-0.086,0.19-0.191v-0.17c0.033,0,0.066,0.001,0.1,0.001l1.082,0.018
				l1.081,0.015l2.159,0.026h0.036l0.068-0.007l2.226-0.236v0.091c0,0.105,0.086,0.191,0.19,0.191h1.426
				c0.104,0,0.19-0.086,0.19-0.191v-0.213l1.145,0.022v0.19c0,0.105,0.086,0.191,0.191,0.191h1.425c0.105,0,0.19-0.086,0.19-0.191
				v-0.157c0.547-0.021,0.987-0.465,0.997-1.018c0.011-0.573,0.13-1.046-0.443-1.056c-0.013-0.001-0.029,0-0.042,0l-4.059,0.089
				l-0.077,0.002l-0.039,0.006l-3.506,0.389l-2.088,0.052l-1.078,0.025c0,0-4.657,0.004-4.836,0.002c0,0-2.805-0.018-4.453-0.591
				c-0.307-0.106-0.574-0.299-0.832-0.483c-0.019-0.014-0.037-0.027-0.056-0.041c1.439,0.389,3.288,0.444,5.077,0.499
				c1.168,0.035,2.412,0.051,4.033,0.051c1.222,0,2.578-0.009,4.148-0.019l0.604-0.004l3.549-0.443l4.111-0.012l0.061-0.503
				c0.007-0.058,0.169-1.436,0.154-3.038c-0.021-2.244-0.381-3.776-1.072-4.557c-0.369-0.416-0.844-0.636-1.372-0.636
				c-0.399,0-0.689,0.258-1.025,0.556c-0.446,0.397-1.003,0.893-1.919,0.893c-0.88,0-1.96-0.452-3.209-1.342
				c0,0-0.242-0.207-0.518-0.075c-0.083,0.039-0.767,0.276-1.76,0.61c0.437,0.299,0.684,0.625,0.7,0.647
				c0.038,0.051,0.027,0.122-0.023,0.16l-0.214,0.159c-0.021,0.016-0.044,0.022-0.068,0.022c-0.034,0-0.069-0.016-0.092-0.045
				c-0.004-0.006-0.35-0.456-0.931-0.734c-0.241,0.08-0.495,0.164-0.758,0.251c0.458,0.305,0.717,0.646,0.734,0.67
				c0.037,0.051,0.027,0.122-0.023,0.16l-0.215,0.159c-0.021,0.016-0.044,0.022-0.068,0.022c-0.034,0-0.068-0.016-0.092-0.045
				c-0.004-0.006-0.368-0.48-0.978-0.756c-0.288,0.094-0.583,0.189-0.882,0.286c0.525,0.32,0.824,0.714,0.843,0.738
				c0.038,0.051,0.027,0.123-0.023,0.16l-0.214,0.16c-0.021,0.016-0.045,0.022-0.068,0.022c-0.035,0-0.069-0.016-0.092-0.046
				c-0.005-0.006-0.428-0.557-1.125-0.816c-0.298,0.096-0.597,0.19-0.893,0.283c0.565,0.326,0.889,0.752,0.907,0.777
				c0.038,0.051,0.027,0.122-0.023,0.16l-0.214,0.159c-0.021,0.016-0.045,0.023-0.068,0.023c-0.035,0-0.069-0.016-0.092-0.046
				c-0.005-0.007-0.467-0.609-1.223-0.851c-0.304,0.095-0.602,0.187-0.89,0.273c0.667,0.331,1.052,0.838,1.072,0.865
				c0.038,0.051,0.027,0.123-0.023,0.16l-0.214,0.16c-0.021,0.015-0.045,0.022-0.068,0.022c-0.035,0-0.069-0.016-0.092-0.046
				c-0.006-0.008-0.571-0.745-1.476-0.914c-0.005-0.001-0.009-0.003-0.014-0.004c-0.535,0.157-1.017,0.292-1.414,0.396
				c-0.94,0.243-1.788,0.311-2.536,0.37c-0.778,0.062-1.39,0.12-1.883,0.338C106.484,261.014,108.575,264.019,108.813,264.338z
				 M129.307,262.721l1.852-3.761l0.344-0.107c0.099,0.547,0.167,1.262,0.177,2.195c0.007,0.703-0.023,1.369-0.059,1.886
				L129.307,262.721z M121.916,258.23l0.981-0.388l5.229,4.541l-3.432,0.52L121.916,258.23z M118.266,259.926l1.579-0.758
				l2.078,4.047l-2.146,0.079L118.266,259.926z M111.19,260.606c0.122-0.01,0.249-0.021,0.38-0.031
				c0.418,0.838,0.963,2.115,0.949,3.057c-1.933-0.268-3.077-0.838-3.079-2.195v-0.016
				C109.423,260.84,109.54,260.737,111.19,260.606z"/>
		</g>
	</g>
</g>
<g>
	<circle fill="none" stroke="#808285" cx="120.324" cy="134.36" r="23.25"/>
	<rect x="102.824" y="140.624" fill="none" width="35" height="7.124"/>
	<text transform="matrix(1 0 0 1 108.7852 146.7041)" fill="#939598" font-family="'OpenSans'" font-size="8">eating</text>
	<g>
		<g>
			<path fill="#FFFFFF" d="M113.811,136.922c-0.003,0.001-0.003,0.007-0.002,0.011c-0.001,0.412,0.335,0.746,0.745,0.746
				c0.412,0.002,0.748-0.333,0.745-0.746c0.001-0.005-0.001-0.01-0.003-0.014l0.006,0.001c0,0,0.033-4.499,0.033-4.938
				c-0.12-0.219-0.786-1.946,0.796-2.38c0-8.605-2.057-9.766-2.057-9.766l-0.252,0.001c0,0-0.014,11.047-0.013,11.507
				c-0.001,0.504-0.001,5.573-0.001,5.573L113.811,136.922z"/>
			<path fill="#FFFFFF" d="M116.971,124.355c0,0-0.002,0.091,0,0.126c0.035,0.507,0.263,0.959,0.607,1.285
				c0.002,0.004,0.006,0.008,0.006,0.01c1.416,1.443,0.569,3.391,0.568,3.854c0,0.519,0.001,7.275,0.001,7.275l0,0
				c0,0.004-0.001,0.009-0.001,0.017c0,0.417,0.341,0.757,0.759,0.757c0.419,0,0.76-0.339,0.761-0.757
				c-0.001-0.008-0.003-0.012-0.003-0.017h0.001c0,0,0-6.844,0.001-7.288c0-0.401-1.002-2.093,0.467-3.751
				c0.444-0.355,0.73-0.905,0.73-1.52c0-0.058-0.013-0.207-0.013-0.207l-0.496-3.986h-0.407l0.151,4.712h-0.527v-4.711h-0.434v4.711
				h-0.445v-4.711l-0.392-0.001v4.682l-0.538,0.002l0.134-4.683h-0.448L116.971,124.355z"/>
			<path fill="#FFFFFF" d="M121.655,123.071c0.001,1.725,1.037,2.956,1.943,3.23c0.495,0.694,0.168,2.336-0.182,3.281
				c0,0.453,0,7.392,0,7.392h0.001c-0.001,0.004-0.001,0.01-0.001,0.015c0,0.426,0.343,0.769,0.768,0.769c0.022,0,0.104,0,0.126,0
				c0.426,0,0.769-0.343,0.769-0.769c0-0.005,0-0.011-0.001-0.015h0.001c0,0,0-6.938,0-7.392c-0.351-0.945-0.676-2.587-0.18-3.281
				c0.903-0.274,1.94-1.506,1.94-3.23c0-1.711-0.926-3.286-2.569-3.312v-0.002c-0.008,0-0.036,0-0.044,0v0.002
				C122.582,119.785,121.655,121.36,121.655,123.071z M124.907,125.727c0.004,0.004,0.057-0.041,0.114-0.15
				c0.06-0.105,0.139-0.262,0.225-0.448c0.086-0.19,0.186-0.408,0.278-0.646c0.048-0.117,0.094-0.238,0.132-0.361
				c0.039-0.118,0.081-0.252,0.095-0.368c0.078-0.499,0.044-1.058,0.038-1.472c-0.007-0.208-0.012-0.383-0.016-0.506
				c-0.005-0.121-0.015-0.194-0.015-0.194s0.046,0.055,0.105,0.172c0.059,0.111,0.13,0.278,0.193,0.485
				c0.063,0.205,0.121,0.452,0.151,0.724c0.031,0.27,0.042,0.564-0.015,0.872c-0.03,0.16-0.078,0.296-0.132,0.436
				c-0.059,0.136-0.121,0.261-0.187,0.382c-0.136,0.236-0.281,0.442-0.421,0.609c-0.136,0.166-0.268,0.293-0.37,0.372
				C124.984,125.715,124.906,125.732,124.907,125.727z"/>
		</g>
	</g>
</g>
<g id="H2" display="none">
	<rect x="16.121" y="62.123" display="inline" fill="none" width="67.742" height="13.789"/>
	<text transform="matrix(1 0 0 1 21.939 73.8896)" display="inline" fill="#939598" font-family="'OpenSans'" font-size="15.4839">cooking</text>
	<circle display="inline" fill="none" stroke="#559B7B" stroke-width="2" cx="50" cy="50" r="45"/>
	<g display="inline">
		<g>
			<path fill="#FFFFFF" d="M58.566,56.924v-7.372l1.625-11.777c2.514-0.658,4.352-2.643,4.352-4.982
				c0-2.354-1.834-4.361-4.406-4.994c-1.582-3.416-5.581-5.714-10.137-5.714c-4.555,0-8.555,2.298-10.137,5.714
				c-2.572,0.633-4.406,2.64-4.406,4.994c0,2.376,1.886,4.381,4.453,5.001l1.625,11.759v7.372H58.566z M56.844,55.201H43.258v-4.288
				h13.586C56.844,50.915,56.844,55.201,56.844,55.201z M37.185,32.792c0-1.79,1.72-3.266,3.935-3.457
				c0.953-3.168,4.563-5.529,8.88-5.529c4.317,0,7.925,2.361,8.88,5.529c2.213,0.189,3.934,1.667,3.934,3.457
				c0,1.805-1.741,3.292-3.982,3.464l-1.875,12.369h-13.81l-1.767-12.361C39.043,36.176,37.185,34.656,37.185,32.792z"/>
			<path fill="#FFFFFF" d="M45.188,44.674l0.009,0.074c0.038,0.287,0.289,0.499,0.569,0.499c0.03,0,0.053-0.002,0.076-0.004
				c0.295-0.038,0.493-0.282,0.493-0.569c0-0.025,0.01-0.047,0.006-0.078l-0.714-5.447l-0.261-1.975l-0.049-0.409l-0.013-0.073
				c-0.043-0.318-0.327-0.539-0.645-0.499c-0.21,0.028-0.365,0.166-0.444,0.346c-0.03,0.072-0.047,0.147-0.047,0.227
				c0,0.027-0.005,0.047,0,0.07l0.234,1.792L45.188,44.674z"/>
			<path fill="#FFFFFF" d="M54.213,45.243c0.024,0.002,0.055,0.004,0.078,0.004c0.287,0,0.528-0.212,0.564-0.499l0.016-0.074
				l0.796-6.077l0.23-1.759c0.004-0.023-0.008-0.045-0.008-0.072c0-0.09-0.019-0.17-0.057-0.249
				c-0.085-0.163-0.234-0.295-0.435-0.322c-0.314-0.042-0.604,0.182-0.645,0.499l-0.01,0.072l-0.049,0.376l-0.257,1.988
				l-0.719,5.468c-0.002,0.028,0.004,0.053,0.004,0.077C53.724,44.961,53.928,45.205,54.213,45.243z"/>
			<path fill="#FFFFFF" d="M49.747,44.674c0.095,0.055,0.193,0.096,0.303,0.096c0.111,0,0.211-0.042,0.306-0.096
				c0.159-0.104,0.272-0.274,0.272-0.48v-4.311v-1.726v-1.392v-1.081c0-0.312-0.259-0.571-0.578-0.571
				c-0.316,0-0.575,0.259-0.575,0.571v1.081v1.397v1.724v4.308C49.475,44.399,49.588,44.572,49.747,44.674z"/>
		</g>
	</g>
</g>
<g id="H1">
	<rect x="16.128" y="62.123" fill="none" width="67.743" height="13.788"/>
	<text transform="matrix(1 0 0 1 23.7534 73.8906)" fill="#939598" font-family="'OpenSans'" font-size="15.4839">cinema</text>
	<circle fill="none" stroke="#2BB673" stroke-width="2" cx="50" cy="50" r="45"/>
	<path id="video-5-icon" fill="#FFFFFF" d="M48.926,31.296l18.295-3.629l-0.014-0.061l-1.227-6.175l-30.798,6.106
		c-1.535,0.307-2.647,1.646-2.647,3.211c0,1.383,0,20.55,0,20.55c0,2.744,2.237,4.973,4.971,4.973h24.988
		c2.735,0,4.97-2.229,4.97-4.973V31.356v-0.06H48.926z M64.07,51.299c0,0.871-0.711,1.585-1.576,1.585H37.506
		c-0.865,0-1.576-0.714-1.576-1.585V39.343H64.07V51.299z M57.078,32.985l-2.959,2.962h-4.44l2.959-2.962H57.078z M61.805,23.99
		l3.486,2.325l-4.358,0.873l-3.49-2.338L61.805,23.99z M53.222,25.687l3.49,2.334l-4.353,0.87l-3.501-2.337L53.222,25.687z
		 M44.628,27.393l3.498,2.333L43.771,30.6l-3.504-2.343L44.628,27.393z M43.877,32.985h4.44l-2.959,2.962H40.91L43.877,32.985z
		 M58.424,35.947l2.959-2.962h4.451l-2.96,2.962H58.424z M48.042,50.494v-9.222l7.519,4.61L48.042,50.494z"/>
</g>
</svg>
