<?xml version="1.0" encoding="utf-8"?>
<!-- Generator: Adobe Illustrator 16.0.0, SVG Export Plug-In . SVG Version: 6.00 Build 0)  -->
<!DOCTYPE svg PUBLIC "-//W3C//DTD SVG 1.1//EN" "http://www.w3.org/Graphics/SVG/1.1/DTD/svg11.dtd">
<svg version="1.1" id="Layer_1" xmlns="http://www.w3.org/2000/svg" xmlns:xlink="http://www.w3.org/1999/xlink" x="0px" y="0px"
	 width="100px" height="100px" viewBox="0 0 100 100" enable-background="new 0 0 100 100" xml:space="preserve">
<g id="H2" display="none">
	<rect x="16.121" y="62.123" display="inline" fill="none" width="67.742" height="13.789"/>
	<text transform="matrix(1 0 0 1 21.939 73.8896)" display="inline" fill="#939598" font-family="'OpenSans'" font-size="15.4839">cooking</text>
	<circle display="inline" fill="none" stroke="#559B7B" stroke-width="2" cx="50" cy="50" r="45"/>
	<g display="inline">
		<g>
			<path fill="#FFFFFF" d="M58.566,56.924v-7.372l1.625-11.777c2.514-0.658,4.352-2.643,4.352-4.982
				c0-2.354-1.834-4.361-4.406-4.994c-1.582-3.416-5.581-5.714-10.137-5.714c-4.555,0-8.555,2.298-10.137,5.714
				c-2.572,0.633-4.406,2.64-4.406,4.994c0,2.376,1.886,4.381,4.453,5.001l1.625,11.759v7.372H58.566z M56.844,55.201H43.258v-4.288
				h13.586C56.844,50.915,56.844,55.201,56.844,55.201z M37.185,32.792c0-1.79,1.72-3.266,3.935-3.457
				c0.953-3.168,4.563-5.529,8.88-5.529c4.317,0,7.925,2.361,8.88,5.529c2.213,0.189,3.934,1.667,3.934,3.457
				c0,1.805-1.741,3.292-3.982,3.464l-1.875,12.369h-13.81l-1.767-12.361C39.043,36.176,37.185,34.656,37.185,32.792z"/>
			<path fill="#FFFFFF" d="M45.188,44.674l0.009,0.074c0.038,0.287,0.289,0.499,0.569,0.499c0.03,0,0.053-0.002,0.076-0.004
				c0.295-0.038,0.493-0.282,0.493-0.569c0-0.025,0.01-0.047,0.006-0.078l-0.714-5.447l-0.261-1.975l-0.049-0.409l-0.013-0.073
				c-0.043-0.318-0.327-0.539-0.645-0.499c-0.21,0.028-0.365,0.166-0.444,0.346c-0.03,0.072-0.047,0.147-0.047,0.227
				c0,0.027-0.005,0.047,0,0.07l0.234,1.792L45.188,44.674z"/>
			<path fill="#FFFFFF" d="M54.213,45.243c0.024,0.002,0.055,0.004,0.078,0.004c0.287,0,0.528-0.212,0.564-0.499l0.016-0.074
				l0.796-6.077l0.23-1.759c0.004-0.023-0.008-0.045-0.008-0.072c0-0.09-0.019-0.17-0.057-0.249
				c-0.085-0.163-0.234-0.295-0.435-0.322c-0.314-0.042-0.604,0.182-0.645,0.499l-0.01,0.072l-0.049,0.376l-0.257,1.988
				l-0.719,5.468c-0.002,0.028,0.004,0.053,0.004,0.077C53.724,44.961,53.928,45.205,54.213,45.243z"/>
			<path fill="#FFFFFF" d="M49.747,44.674c0.095,0.055,0.193,0.096,0.303,0.096c0.111,0,0.211-0.042,0.306-0.096
				c0.159-0.104,0.272-0.274,0.272-0.48v-4.311v-1.726v-1.392v-1.081c0-0.312-0.259-0.571-0.578-0.571
				c-0.316,0-0.575,0.259-0.575,0.571v1.081v1.397v1.724v4.308C49.475,44.399,49.588,44.572,49.747,44.674z"/>
		</g>
	</g>
</g>
<g id="H1">
	<rect x="16.128" y="62.123" fill="none" width="67.743" height="13.788"/>
	<text transform="matrix(1 0 0 1 23.7534 73.8906)" fill="#939598" font-family="'OpenSans'" font-size="15.4839">cinema</text>
	<circle fill="none" stroke="#2BB673" stroke-width="2" cx="50" cy="50" r="45"/>
	<path id="video-5-icon" fill="#FFFFFF" d="M48.926,31.296l18.295-3.629l-0.014-0.061l-1.227-6.175l-30.798,6.106
		c-1.535,0.307-2.647,1.646-2.647,3.211c0,1.383,0,20.55,0,20.55c0,2.744,2.237,4.973,4.971,4.973h24.988
		c2.735,0,4.97-2.229,4.97-4.973V31.356v-0.06H48.926z M64.07,51.299c0,0.871-0.711,1.585-1.576,1.585H37.506
		c-0.865,0-1.576-0.714-1.576-1.585V39.343H64.07V51.299z M57.078,32.985l-2.959,2.962h-4.44l2.959-2.962H57.078z M61.805,23.99
		l3.486,2.325l-4.358,0.873l-3.49-2.338L61.805,23.99z M53.222,25.687l3.49,2.334l-4.353,0.87l-3.501-2.337L53.222,25.687z
		 M44.628,27.393l3.498,2.333L43.771,30.6l-3.504-2.343L44.628,27.393z M43.877,32.985h4.44l-2.959,2.962H40.91L43.877,32.985z
		 M58.424,35.947l2.959-2.962h4.451l-2.96,2.962H58.424z M48.042,50.494v-9.222l7.519,4.61L48.042,50.494z"/>
</g>
</svg>
