<?xml version="1.0" encoding="utf-8"?>
<!-- Generator: Adobe Illustrator 16.0.0, SVG Export Plug-In . SVG Version: 6.00 Build 0)  -->
<!DOCTYPE svg PUBLIC "-//W3C//DTD SVG 1.1//EN" "http://www.w3.org/Graphics/SVG/1.1/DTD/svg11.dtd">
<svg version="1.1" id="Layer_1" xmlns="http://www.w3.org/2000/svg" xmlns:xlink="http://www.w3.org/1999/xlink" x="0px" y="0px"
	 width="100px" height="100px" viewBox="0 0 100 100" enable-background="new 0 0 100 100" xml:space="preserve">
<g id="H9" display="none">
	<circle display="inline" fill="none" stroke="#808285" cx="50" cy="50" r="45"/>
	<path id="gamepad-4-icon_2_" display="inline" fill="#FFFFFF" d="M60.203,37.425c3.522,0.129,6.334,3.024,6.334,6.574
		c0,3.625-2.951,6.578-6.578,6.578c-1.641,0-3.211-0.609-4.425-1.712c-3.152-2.873-7.954-2.786-11.116,0.042
		c-1.204,1.077-2.76,1.671-4.377,1.671c-3.627,0-6.578-2.953-6.578-6.578c0-3.625,2.95-6.578,6.578-6.578L60.203,37.425z
		 M60.303,34.605H40.041c-5.188,0-9.396,4.204-9.396,9.394c0,5.19,4.208,9.394,9.396,9.394c2.402,0,4.595-0.899,6.256-2.385
		c2.06-1.841,5.234-1.978,7.339-0.061c1.669,1.52,3.888,2.446,6.322,2.446c5.188,0,9.396-4.204,9.396-9.394
		c0-5.073-4.021-9.209-9.052-9.39V34.605z M44.222,45.046h-2.663v2.665h-2.283v-2.665H36.61v-2.283h2.665v-2.661h2.283v2.661h2.663
		V45.046L44.222,45.046z M51.455,45.087h-2.818v-1.41h2.818V45.087z M58.454,40.529c0.535-0.533,1.403-0.533,1.938,0
		c0.535,0.537,0.535,1.402,0,1.939c-0.534,0.533-1.402,0.533-1.938,0C57.92,41.931,57.92,41.065,58.454,40.529z M57.268,44.872
		c-0.535,0.537-1.402,0.537-1.938,0c-0.535-0.533-0.535-1.402,0-1.936c0.537-0.537,1.402-0.537,1.938,0
		C57.803,43.47,57.803,44.339,57.268,44.872z M60.392,47.333c-0.534,0.533-1.402,0.533-1.938,0c-0.534-0.537-0.534-1.402,0-1.939
		c0.535-0.533,1.403-0.533,1.938,0C60.927,45.931,60.927,46.796,60.392,47.333z M63.414,44.872c-0.535,0.537-1.402,0.537-1.938,0
		c-0.534-0.533-0.534-1.402,0-1.936c0.535-0.537,1.402-0.537,1.938,0C63.949,43.47,63.949,44.339,63.414,44.872z M50.911,31.694
		v1.028h-1.907v-1.028c0-2.51-0.775-2.918-3.491-3.425c-4.166-0.771-5.53-2.177-4.816-6.77l1.89,0.261
		c-0.573,3.622,0.199,4.063,3.275,4.634C48.231,26.836,50.911,27.4,50.911,31.694z"/>
	<rect x="16.129" y="62.123" display="inline" fill="none" width="67.742" height="13.789"/>
	<text transform="matrix(1 0 0 1 23.2983 73.8896)" display="inline" fill="#939598" font-family="'OpenSans'" font-size="15.4839">gaming</text>
</g>
<g id="H8" display="none">
	<circle display="inline" fill="none" stroke="#2BB673" cx="50" cy="50" r="45"/>
	<rect x="16.129" y="62.123" display="inline" fill="none" width="67.742" height="13.789"/>
	<text transform="matrix(1 0 0 1 25.9409 73.8896)" display="inline" fill="#939598" font-family="'OpenSans'" font-size="15.4839">coding</text>
	<path id="html-code-icon" display="inline" fill="#FFFFFF" d="M53.115,24.973h4.659L47.197,52.78h-4.634L53.115,24.973z
		 M74.193,40.799l-13.735,7.723v-4.79l7.995-4.514l-7.995-4.462v-4.797l13.735,7.717V40.799z M25.807,37.676l13.735-7.717v4.797
		l-8.001,4.462l8.001,4.514v4.79l-13.735-7.723V37.676z"/>
</g>
<g id="H7" display="none">
	<circle display="inline" fill="none" stroke="#2BB673" cx="50" cy="50" r="45"/>
	<rect x="16.129" y="62.123" display="inline" fill="none" width="67.742" height="13.789"/>
	<text transform="matrix(1 0 0 1 24.7236 73.8896)" display="inline" fill="#939598" font-family="'OpenSans'" font-size="15.4839">photos</text>
	<path id="photo-camera-6-icon" display="inline" fill="#FFFFFF" d="M60.29,30.964l-2.661-4.816h-15.38l-2.446,4.816h-9.158V56.05
		h38.709V30.964H60.29z M65.598,41.778h-5.675c0,0,0,0,0,0.002c0,5.47-4.453,9.923-9.923,9.923c-5.47,0-9.923-4.453-9.923-9.923
		c0-0.002,0-0.002,0-0.002h-5.674v-7.056h7.708l2.446-4.816h10.854l2.66,4.816h7.526V41.778z M50,35.803
		c-3.457,0-6.162,2.627-6.162,5.977c0,3.398,2.763,6.162,6.162,6.162s6.162-2.764,6.162-6.162
		C56.162,38.431,53.457,35.803,50,35.803z M49.329,41.196c-0.974,0.764-2.251,0.758-2.852-0.007
		c-0.605-0.77-0.303-2.009,0.671-2.773c0.979-0.764,2.251-0.756,2.854,0.009C50.603,39.192,50.302,40.436,49.329,41.196z"/>
</g>
<g id="H6" display="none">
	<circle display="inline" fill="none" stroke="#559B7B" cx="50" cy="50" r="45"/>
	<rect x="16.129" y="62.123" display="inline" fill="none" width="67.742" height="13.789"/>
	<text transform="matrix(1 0 0 1 22.3252 73.8896)" display="inline" fill="#939598" font-family="'OpenSans'" font-size="15.4839">football</text>
	<g display="inline">
		<g>
			<path fill="#FFFFFF" d="M67.877,53.267c0.019-7.377-6.398-23.123-8.152-27.283c-0.247,0.03-0.499,0.055-0.748,0.082
				c1.702,3.867,7.622,17.994,7.854,27.59C67.198,53.521,67.548,53.393,67.877,53.267z"/>
			<path fill="#FFFFFF" d="M38.718,25.975c-0.608-0.063-0.951-0.104-0.951-0.104c-7.273,17.752-8.876,26.946-8.876,26.946
				c0.315,0,0.943,0.119,1.758,0.308C30.709,45.604,36.762,30.623,38.718,25.975z"/>
			<path fill="#FFFFFF" d="M32.622,53.614c0.246-9.542,6.09-23.534,7.823-27.484c-0.268-0.021-0.52-0.043-0.752-0.064
				c-1.803,4.285-8.187,19.982-8.118,27.282C31.906,53.433,32.253,53.52,32.622,53.614z"/>
			<path fill="#FFFFFF" d="M47.522,56.154c0-1.064,1.2-5.175,1.2-5.175c1.278,3.837,2.876,5.117,2.876,5.117
				c5.435,0.342,10.638-0.896,14.303-2.121c-0.111-9.552-6.424-24.458-7.9-27.813c-6.375,0.581-12.726,0.32-16.567,0.043
				c-1.506,3.425-7.723,18.142-7.884,27.654c2.875,0.766,6.415,1.764,8.854,2.295C46.723,57.09,47.522,56.154,47.522,56.154z
				 M62.153,50.533l1.602,1.442l-3.679,1.438L62.153,50.533z M58.328,27.929l-1.121,2.024l-0.406-0.225l1.123-2.024L58.328,27.929z
				 M57.339,27.929l-1.118,2.024l-0.41-0.225l1.118-2.024L57.339,27.929z M56.349,27.929l-1.12,2.024l-0.407-0.225l1.119-2.024
				L56.349,27.929z M55.358,27.929l-1.121,2.024l-0.406-0.225l1.119-2.024L55.358,27.929z M54.368,27.929l-1.121,2.024l-0.406-0.225
				l1.119-2.024L54.368,27.929z M53.38,27.929l-1.121,2.024l-0.408-0.225l1.119-2.024L53.38,27.929z M52.389,27.929l-1.118,2.024
				l-0.409-0.225l1.119-2.024L52.389,27.929z M51.4,27.929l-1.121,2.024l-0.408-0.225l1.119-2.024L51.4,27.929z M50.002,27.704
				l0.408,0.225l-1.121,2.024l-0.407-0.225L50.002,27.704z M49.421,27.929l-1.121,2.024l-0.408-0.225l1.119-2.024L49.421,27.929z
				 M48.429,27.929l-1.119,2.024l-0.407-0.225l1.117-2.024L48.429,27.929z M47.439,27.929l-1.119,2.024l-0.406-0.225l1.119-2.024
				L47.439,27.929z M46.45,27.929l-1.119,2.024l-0.408-0.225l1.119-2.024L46.45,27.929z M45.46,27.929l-1.119,2.024l-0.406-0.225
				l1.119-2.024L45.46,27.929z M44.341,27.929l-1.119,2.024l-0.408-0.225l1.121-2.024L44.341,27.929z M40.576,29.729l1.119-2.024
				l0.408,0.227l-1.121,2.024L40.576,29.729z M41.695,29.729l1.119-2.024l0.408,0.227l-1.119,2.024L41.695,29.729z"/>
			<path fill="#FFFFFF" d="M71.108,51.858c-1.118-1.602-3.916-13.114-4.876-15.594c-0.843-2.172-4.508-8.523-5.4-10.056
				c2.034,4.858,7.793,19.227,7.965,26.692C70.257,52.3,71.108,51.858,71.108,51.858z"/>
		</g>
	</g>
</g>
<g id="H5">
	<circle fill="none" stroke="#559B7B" stroke-width="2" cx="50" cy="50" r="45"/>
	<rect x="16.129" y="62.123" fill="none" width="67.742" height="13.789"/>
	<text transform="matrix(1 0 0 1 25.3057 73.8896)" fill="#939598" font-family="'OpenSans'" font-size="15.4839">driving</text>
	<g>
		<path fill="#FFFFFF" d="M50,20.539c-10.116,0-18.347,8.231-18.347,18.348c0,6.825,3.753,13.047,9.796,16.236l0.482,0.255h16.138
			l0.481-0.255c6.043-3.188,9.797-9.411,9.797-16.236C68.348,28.77,60.116,20.539,50,20.539z M54.336,45.193
			c0.267-0.072,0.489-0.257,0.603-0.51c1.701-3.769,2.378-7.288,2.127-11.065c-0.022-0.393-0.293-0.722-0.667-0.83
			c-2.193-0.614-4.281-0.913-6.398-0.913c-2.115,0-4.206,0.299-6.398,0.913c-0.375,0.108-0.641,0.437-0.667,0.83
			c-0.251,3.777,0.425,7.296,2.126,11.065c0.115,0.253,0.336,0.44,0.603,0.51 M47.972,50.979h-4.931
			c-3.013-1.735-5.221-4.489-6.285-7.696c1.843-0.261,3.684-0.473,5.531-0.624c-0.705-2.104-1.106-4.169-1.215-6.281
			c-1.83,0.419-3.563,1.066-5.015,2.057C36.298,30.95,42.46,24.937,50,24.937c7.544,0,13.703,6.014,13.943,13.499
			c-0.144-0.096-0.297-0.194-0.459-0.289c-1.386-0.796-2.939-1.348-4.556-1.728c-0.115,2.098-0.514,4.149-1.213,6.237
			c1.847,0.151,3.688,0.361,5.53,0.624c-1.064,3.208-3.271,5.963-6.287,7.698h-4.92"/>
	</g>
</g>
<g id="H4" display="none">
	<circle display="inline" fill="none" stroke="#808285" stroke-width="2" cx="50" cy="50" r="45"/>
	<rect x="16.129" y="62.123" display="inline" fill="none" width="67.742" height="13.789"/>
	<text transform="matrix(1 0 0 1 21.6333 73.8896)" display="inline" fill="#939598" font-family="'OpenSans'" font-size="15.4839">running</text>
	<g display="inline">
		<g id="Layer_1_1_">
			<path fill="#FFFFFF" d="M27.721,44.585l1.71,2.162c0.074,0.093,0.182,0.142,0.291,0.142c0.08,0,0.161-0.026,0.229-0.081
				l0.31-0.246c0.123,0.107,0.248,0.209,0.375,0.312l-0.172,0.29c-0.051,0.085-0.064,0.185-0.042,0.28
				c0.024,0.096,0.087,0.177,0.17,0.227l2.374,1.404c0.059,0.036,0.123,0.053,0.187,0.053c0.126,0,0.25-0.066,0.317-0.182
				l0.176-0.295c0.13,0.057,0.263,0.112,0.395,0.165l-0.128,0.416c-0.028,0.094-0.019,0.194,0.026,0.281
				c0.047,0.087,0.125,0.151,0.219,0.18l2.637,0.809c0.036,0.011,0.072,0.017,0.108,0.017c0.159,0,0.304-0.102,0.354-0.261
				l0.142-0.463c0.223,0.045,0.446,0.087,0.671,0.125l-0.049,0.485c-0.01,0.099,0.021,0.197,0.083,0.272
				c0.061,0.076,0.151,0.123,0.248,0.132l2.745,0.272c0.013,0.002,0.024,0.002,0.038,0.002c0.188,0,0.348-0.142,0.367-0.333
				l0.049-0.49l0.546,0.023l-0.019,0.406c-0.004,0.098,0.032,0.195,0.098,0.267c0.066,0.072,0.159,0.115,0.255,0.119l2.756,0.117
				c0.005,0.002,0.011,0.002,0.017,0.002c0.197,0,0.359-0.154,0.369-0.353l0.017-0.433l0.456,0.011v0.405
				c0,0.204,0.167,0.37,0.371,0.37h2.758c0.204,0,0.368-0.166,0.368-0.37v-0.329c0.064,0,0.129,0.002,0.193,0.002l2.095,0.034
				l2.092,0.028l4.18,0.051h0.069l0.133-0.013l4.308-0.458v0.176c0,0.205,0.166,0.371,0.368,0.371h2.76
				c0.202,0,0.368-0.166,0.368-0.371v-0.412l2.216,0.043v0.368c0,0.205,0.166,0.371,0.37,0.371h2.758
				c0.204,0,0.368-0.166,0.368-0.371v-0.304c1.059-0.04,1.911-0.899,1.93-1.969c0.021-1.11,0.252-2.024-0.857-2.043
				c-0.024-0.002-0.057,0-0.082,0l-7.854,0.172l-0.149,0.004l-0.076,0.011l-6.785,0.752l-4.041,0.1l-2.087,0.049
				c0,0-9.014,0.007-9.36,0.004c0,0-5.428-0.034-8.619-1.144c-0.593-0.206-1.111-0.579-1.61-0.936
				c-0.036-0.027-0.072-0.053-0.107-0.08c2.786,0.752,6.364,0.86,9.827,0.966c2.261,0.068,4.668,0.098,7.806,0.098
				c2.365,0,4.99-0.017,8.029-0.036l1.171-0.008l6.868-0.858l7.957-0.023l0.117-0.973c0.014-0.112,0.327-2.778,0.299-5.88
				c-0.039-4.343-0.737-7.309-2.075-8.819c-0.715-0.805-1.633-1.23-2.655-1.23c-0.773,0-1.335,0.499-1.985,1.076
				c-0.863,0.769-1.94,1.728-3.714,1.728c-1.703,0-3.793-0.875-6.211-2.597c0,0-0.469-0.4-1.002-0.146
				c-0.16,0.076-1.483,0.535-3.405,1.182c0.845,0.578,1.323,1.209,1.354,1.253c0.074,0.098,0.054,0.236-0.045,0.31l-0.414,0.308
				c-0.04,0.03-0.085,0.043-0.132,0.043c-0.066,0-0.135-0.03-0.178-0.087c-0.008-0.011-0.677-0.883-1.802-1.421
				c-0.467,0.155-0.958,0.317-1.466,0.486c0.886,0.589,1.387,1.251,1.421,1.296c0.071,0.098,0.053,0.236-0.046,0.31l-0.416,0.308
				c-0.039,0.03-0.085,0.043-0.132,0.043c-0.066,0-0.132-0.03-0.178-0.087c-0.008-0.011-0.712-0.93-1.892-1.463
				c-0.558,0.181-1.128,0.367-1.707,0.554c1.017,0.62,1.595,1.382,1.631,1.429c0.074,0.099,0.053,0.238-0.045,0.31l-0.414,0.31
				c-0.04,0.03-0.087,0.043-0.132,0.043c-0.068,0-0.134-0.03-0.178-0.089c-0.009-0.011-0.828-1.077-2.177-1.58
				c-0.577,0.185-1.155,0.369-1.728,0.548c1.094,0.631,1.72,1.455,1.756,1.504c0.074,0.098,0.053,0.236-0.045,0.31l-0.414,0.308
				c-0.04,0.03-0.087,0.045-0.132,0.045c-0.068,0-0.134-0.03-0.178-0.089c-0.009-0.013-0.903-1.18-2.366-1.646
				c-0.588,0.184-1.165,0.361-1.722,0.529c1.291,0.641,2.036,1.622,2.076,1.675c0.074,0.098,0.053,0.238-0.045,0.31l-0.414,0.31
				c-0.04,0.028-0.087,0.043-0.132,0.043c-0.068,0-0.134-0.03-0.178-0.089c-0.011-0.015-1.105-1.442-2.856-1.769
				c-0.009-0.002-0.017-0.005-0.026-0.007c-1.036,0.304-1.968,0.565-2.737,0.765c-1.82,0.471-3.461,0.601-4.909,0.717
				c-1.506,0.119-2.69,0.232-3.644,0.654C23.213,38.151,27.26,43.967,27.721,44.585z M67.386,41.455l3.583-7.279l0.666-0.208
				c0.19,1.059,0.323,2.442,0.342,4.249c0.013,1.361-0.046,2.65-0.113,3.65L67.386,41.455z M53.081,32.764l1.899-0.75l10.122,8.789
				l-6.643,1.005L53.081,32.764z M46.016,36.045l3.056-1.467l4.022,7.833l-4.152,0.153L46.016,36.045z M32.322,37.363
				c0.236-0.019,0.482-0.04,0.735-0.061c0.809,1.622,1.863,4.094,1.837,5.916c-3.74-0.518-5.956-1.622-5.959-4.249v-0.03
				C28.9,37.814,29.127,37.616,32.322,37.363z"/>
		</g>
	</g>
</g>
<g id="H3" display="none">
	<circle display="inline" fill="none" stroke="#808285" stroke-width="2" cx="50" cy="50" r="45"/>
	<rect x="16.129" y="62.123" display="inline" fill="none" width="67.742" height="13.789"/>
	<text transform="matrix(1 0 0 1 27.666 73.8896)" display="inline" fill="#939598" font-family="'OpenSans'" font-size="15.4839">eating</text>
	<g display="inline">
		<g>
			<path fill="#FFFFFF" d="M37.393,54.958c-0.006,0.002-0.006,0.013-0.004,0.021c-0.002,0.798,0.648,1.444,1.442,1.444
				c0.798,0.004,1.448-0.645,1.442-1.444c0.002-0.01-0.002-0.019-0.006-0.026l0.012,0.002c0,0,0.064-8.708,0.064-9.557
				c-0.232-0.423-1.521-3.767,1.541-4.606c0-16.656-3.98-18.901-3.98-18.901l-0.488,0.002c0,0-0.026,21.381-0.024,22.271
				c-0.002,0.976-0.002,10.787-0.002,10.787L37.393,54.958z"/>
			<path fill="#FFFFFF" d="M43.509,30.636c0,0-0.004,0.176,0,0.244c0.068,0.981,0.508,1.856,1.176,2.487
				c0.004,0.008,0.011,0.015,0.011,0.019c2.741,2.793,1.102,6.563,1.1,7.458c0,1.004,0.002,14.082,0.002,14.082l0,0
				c0,0.008-0.002,0.017-0.002,0.032c0,0.807,0.66,1.465,1.469,1.465c0.811,0,1.47-0.656,1.472-1.465
				c-0.002-0.016-0.005-0.022-0.005-0.032h0.001c0,0,0-13.246,0.002-14.106c0-0.777-1.939-4.051,0.904-7.26
				c0.86-0.688,1.414-1.752,1.414-2.941c0-0.111-0.024-0.401-0.024-0.401l-0.96-7.715H49.28l0.293,9.12h-1.021v-9.118h-0.839v9.118
				h-0.862v-9.118l-0.758-0.002v9.062l-1.042,0.003l0.259-9.063h-0.868L43.509,30.636z"/>
			<path fill="#FFFFFF" d="M52.576,28.15c0.002,3.338,2.008,5.721,3.762,6.252c0.958,1.344,0.325,4.521-0.352,6.351
				c0,0.877,0,14.306,0,14.306h0.002c-0.002,0.008-0.002,0.02-0.002,0.028c0,0.824,0.663,1.488,1.485,1.488c0.043,0,0.2,0,0.244,0
				c0.824,0,1.487-0.664,1.487-1.488c0-0.009,0-0.021-0.002-0.028h0.002c0,0,0-13.429,0-14.306c-0.679-1.83-1.308-5.007-0.348-6.351
				c1.748-0.531,3.756-2.915,3.756-6.252c0-3.312-1.792-6.36-4.974-6.41v-0.004c-0.015,0-0.069,0-0.085,0v0.004
				C54.37,21.79,52.576,24.839,52.576,28.15z M58.87,33.29c0.008,0.007,0.109-0.08,0.222-0.291c0.115-0.204,0.269-0.507,0.435-0.868
				c0.166-0.369,0.359-0.79,0.538-1.25c0.093-0.227,0.182-0.461,0.256-0.699c0.075-0.229,0.156-0.488,0.183-0.712
				c0.151-0.966,0.086-2.047,0.074-2.849c-0.014-0.403-0.022-0.741-0.03-0.979c-0.01-0.234-0.028-0.376-0.028-0.376
				s0.089,0.105,0.204,0.333c0.113,0.215,0.251,0.539,0.374,0.939c0.123,0.397,0.234,0.875,0.293,1.4
				c0.061,0.521,0.081,1.092-0.028,1.688c-0.059,0.31-0.151,0.573-0.255,0.843c-0.113,0.263-0.234,0.505-0.361,0.739
				c-0.263,0.458-0.544,0.856-0.814,1.179c-0.263,0.321-0.518,0.567-0.717,0.72C59.02,33.267,58.868,33.301,58.87,33.29z"/>
		</g>
	</g>
</g>
<g id="H2" display="none">
	<rect x="16.121" y="62.123" display="inline" fill="none" width="67.742" height="13.789"/>
	<text transform="matrix(1 0 0 1 21.939 73.8896)" display="inline" fill="#939598" font-family="'OpenSans'" font-size="15.4839">cooking</text>
	<circle display="inline" fill="none" stroke="#559B7B" stroke-width="2" cx="50" cy="50" r="45"/>
	<g display="inline">
		<g>
			<path fill="#FFFFFF" d="M58.566,56.924v-7.372l1.625-11.777c2.514-0.658,4.352-2.643,4.352-4.982
				c0-2.354-1.834-4.361-4.406-4.994c-1.582-3.416-5.581-5.714-10.137-5.714c-4.555,0-8.555,2.298-10.137,5.714
				c-2.572,0.633-4.406,2.64-4.406,4.994c0,2.376,1.886,4.381,4.453,5.001l1.625,11.759v7.372H58.566z M56.844,55.201H43.258v-4.288
				h13.586C56.844,50.915,56.844,55.201,56.844,55.201z M37.185,32.792c0-1.79,1.72-3.266,3.935-3.457
				c0.953-3.168,4.563-5.529,8.88-5.529c4.317,0,7.925,2.361,8.88,5.529c2.213,0.189,3.934,1.667,3.934,3.457
				c0,1.805-1.741,3.292-3.982,3.464l-1.875,12.369h-13.81l-1.767-12.361C39.043,36.176,37.185,34.656,37.185,32.792z"/>
			<path fill="#FFFFFF" d="M45.188,44.674l0.009,0.074c0.038,0.287,0.289,0.499,0.569,0.499c0.03,0,0.053-0.002,0.076-0.004
				c0.295-0.038,0.493-0.282,0.493-0.569c0-0.025,0.01-0.047,0.006-0.078l-0.714-5.447l-0.261-1.975l-0.049-0.409l-0.013-0.073
				c-0.043-0.318-0.327-0.539-0.645-0.499c-0.21,0.028-0.365,0.166-0.444,0.346c-0.03,0.072-0.047,0.147-0.047,0.227
				c0,0.027-0.005,0.047,0,0.07l0.234,1.792L45.188,44.674z"/>
			<path fill="#FFFFFF" d="M54.213,45.243c0.024,0.002,0.055,0.004,0.078,0.004c0.287,0,0.528-0.212,0.564-0.499l0.016-0.074
				l0.796-6.077l0.23-1.759c0.004-0.023-0.008-0.045-0.008-0.072c0-0.09-0.019-0.17-0.057-0.249
				c-0.085-0.163-0.234-0.295-0.435-0.322c-0.314-0.042-0.604,0.182-0.645,0.499l-0.01,0.072l-0.049,0.376l-0.257,1.988
				l-0.719,5.468c-0.002,0.028,0.004,0.053,0.004,0.077C53.724,44.961,53.928,45.205,54.213,45.243z"/>
			<path fill="#FFFFFF" d="M49.747,44.674c0.095,0.055,0.193,0.096,0.303,0.096c0.111,0,0.211-0.042,0.306-0.096
				c0.159-0.104,0.272-0.274,0.272-0.48v-4.311v-1.726v-1.392v-1.081c0-0.312-0.259-0.571-0.578-0.571
				c-0.316,0-0.575,0.259-0.575,0.571v1.081v1.397v1.724v4.308C49.475,44.399,49.588,44.572,49.747,44.674z"/>
		</g>
	</g>
</g>
<g id="H1" display="none">
	<rect x="16.128" y="62.123" display="inline" fill="none" width="67.743" height="13.788"/>
	<text transform="matrix(1 0 0 1 23.7534 73.8906)" display="inline" fill="#939598" font-family="'OpenSans'" font-size="15.4839">cinema</text>
	<circle display="inline" fill="none" stroke="#2BB673" stroke-width="2" cx="50" cy="50" r="45"/>
	<path id="video-5-icon" display="inline" fill="#FFFFFF" d="M48.926,31.296l18.295-3.629l-0.014-0.061l-1.227-6.175l-30.798,6.106
		c-1.535,0.307-2.647,1.646-2.647,3.211c0,1.383,0,20.55,0,20.55c0,2.744,2.237,4.973,4.971,4.973h24.988
		c2.735,0,4.97-2.229,4.97-4.973V31.356v-0.06H48.926z M64.07,51.299c0,0.871-0.711,1.585-1.576,1.585H37.506
		c-0.865,0-1.576-0.714-1.576-1.585V39.343H64.07V51.299z M57.078,32.985l-2.959,2.962h-4.44l2.959-2.962H57.078z M61.805,23.99
		l3.486,2.325l-4.358,0.873l-3.49-2.338L61.805,23.99z M53.222,25.687l3.49,2.334l-4.353,0.87l-3.501-2.337L53.222,25.687z
		 M44.628,27.393l3.498,2.333L43.771,30.6l-3.504-2.343L44.628,27.393z M43.877,32.985h4.44l-2.959,2.962H40.91L43.877,32.985z
		 M58.424,35.947l2.959-2.962h4.451l-2.96,2.962H58.424z M48.042,50.494v-9.222l7.519,4.61L48.042,50.494z"/>
</g>
</svg>
