<?xml version="1.0" encoding="utf-8"?>
<!-- Generator: Adobe Illustrator 16.0.0, SVG Export Plug-In . SVG Version: 6.00 Build 0)  -->
<!DOCTYPE svg PUBLIC "-//W3C//DTD SVG 1.1//EN" "http://www.w3.org/Graphics/SVG/1.1/DTD/svg11.dtd">
<svg version="1.1" id="Layer_1" xmlns="http://www.w3.org/2000/svg" xmlns:xlink="http://www.w3.org/1999/xlink" x="0px" y="0px"
	 width="250px" height="250px" viewBox="0 0 250 250" enable-background="new 0 0 250 250" xml:space="preserve">
<path fill="#FFFFFF" d="M189.524,65.375c1.557-8.793-0.97-18.192-7.673-25.1c-8.627-8.887-21.585-10.99-32.292-6.27
	c-4.5-8.682-12.741-15.313-23.075-17.353c-16.722-3.306-32.982,6.58-38.06,22.428c-8.111-3.225-17.521-3.107-25.91,1.19
	C47.08,48.161,40.968,67.06,48.848,82.498c-9.306,2.764-17.212,9.749-20.7,19.592c-5.789,16.342,2.757,34.294,19.107,40.095
	c6.319,2.245,12.848,2.286,18.845,0.609c9.066-3.519,39.971-1.545,36.78,39.729c0,0,3.919-18.356,3.496-27.206
	c-0.259-5.246-3.856-11.997-9.108-14.614c-4.708-2.359-15.199-5.847-22.359-10.312c-7.818-4.871-7.805-14.46,6.038-10.949
	c7.834,1.984,15.74,7.268,18.753,4.704c2.355-2.001-2.772-12.083-6.965-22.65c-3.911-9.813-7.308-19.755-7.603-20.593
	c-1.991-5.583-1.563-9.366,1.93-10.707c2.722-1.041,5.982-0.482,8.604,5.346c7.079,15.686,9.47,31.813,14.551,31.059
	c5.233-0.791,0.076-23.157,1.535-41.077c0.527-6.458,1.873-9.271,6.04-9.323c3.67-0.068,5.874,3.179,6.103,10.841
	c0.705,24.389-3.681,38.798,2.796,39.29c3.8,0.285,4.962-13.41,12.818-31.642c1.393-3.252,3.775-9.234,8.766-7.185
	c4.538,1.863,3.661,7.152,1.566,12.039c-9.101,21.177-14.42,29.861-10.332,32.016c2.1,1.107,4.895-1.295,8.572-5.625
	c3.736-4.411,7.314-9.143,8.085-10.076c2.49-3.096,5.763-4.484,8.074-2.213c1.693,1.66,1.284,5.623-1.611,9.122
	c-5.774,6.978-10.884,12.388-14.452,16.812c-4.918,6.076-7.376,10.084-8.583,12.057c-2.418,3.904-5.806,8.441-7.825,20.337
	c-1.823,10.755,3.869,25.966,4.696,29.84c-7.095-56.708,28.598-61.944,39.918-61.792c14.712,0.27,27.467-10.725,29.105-25.645
	C206.855,81.97,200.114,70.574,189.524,65.375"/>
<g>
	<path fill="#FFFFFF" d="M230.066,195.289v-0.252c0-1.265-0.709-2.123-1.818-2.123c-1.262,0-1.92,0.809-1.92,2.324v0.303v25.754
		v0.303c0,3.131,1.566,5.352,3.637,5.352c1.012,0,1.869-0.807,1.869-1.815c0-0.656-0.254-1.111-0.908-1.615
		c-0.656-0.508-0.859-1.012-0.859-2.224v-0.303V195.289L230.066,195.289z M219.461,220.689V204.58c0-1.16-0.758-1.972-1.867-1.972
		c-0.857,0-1.516,0.558-1.77,1.416c-0.1,0.402-0.201,0.505-0.402,0.453c-0.102,0-0.201,0-0.252-0.051c-0.053,0-0.15,0-0.254-0.103
		c-2.121-1.313-3.787-1.815-5.906-1.815c-3.283,0-6.262,1.362-8.23,3.838c-1.818,2.224-2.525,4.442-2.525,8.078
		c0,3.688,0.707,6.01,2.426,8.131c1.969,2.424,5.199,3.938,8.33,3.938c2.373,0,4.596-0.756,6.564-2.322
		c0.201-0.201,0.303-0.201,0.404-0.201s0.201,0,0.252,0.152c0.857,1.414,1.918,2.17,3.182,2.17c0.959,0,1.717-0.908,1.717-2.021
		c0-0.455-0.15-0.907-0.555-1.211l-0.203-0.2c-0.654-0.607-0.908-1.113-0.908-2.021v-0.15H219.461z M215.623,213.973v0.506
		c0,2.928-0.199,3.836-1.162,5.451c-1.059,1.719-3.182,2.828-5.451,2.828c-2.777,0-5.402-1.715-6.313-4.141
		c-0.354-0.959-0.557-2.474-0.557-4.343c0-1.061,0.051-1.969,0.15-2.524c0.605-3.18,3.434-5.605,6.666-5.605
		c1.971,0,3.891,0.91,5.15,2.475C215.32,210.084,215.623,211.145,215.623,213.973 M191.941,202.156l0.051-7.221v-0.252
		c0-1.314-0.758-2.123-1.918-2.123c-1.213,0-1.92,0.809-1.92,2.123v0.301l-0.051,6.92v0.201v0.102c0,0.504-0.152,0.605-0.707,0.605
		h-0.104h-0.148c-1.717,0-2.576,0.656-2.576,1.971c0,1.209,0.809,1.867,2.523,1.867h0.152h0.049c0.607,0,0.762,0.102,0.762,0.555
		v0.203l-0.104,14.34v0.103c0,3.535,1.363,4.849,4.848,4.849c1.717,0,2.627-0.605,2.627-1.869c0-1.062-0.607-1.717-1.719-1.867
		l-0.453-0.051c-1.16-0.201-1.465-0.605-1.465-2.07v-0.252l0.102-13.281v-0.102c0-0.504,0.051-0.556,0.707-0.556h0.705h0.203
		c1.313,0,2.121-0.706,2.121-1.92c0-1.411-0.707-1.866-2.93-1.918c-0.707,0-0.758,0-0.758-0.555v-0.103H191.941z M172.5,212.457
		v-0.303c0-3.638,1.768-5.857,4.697-5.857c0.756,0,1.666,0.404,2.777,1.213c0.555,0.352,0.758,0.455,1.109,0.455
		c1.012,0,1.869-0.91,1.869-1.973c0-0.605-0.252-1.109-0.91-1.613c-1.361-1.111-3.129-1.771-4.846-1.771
		c-1.264,0-2.932,0.558-4.244,1.363c-0.201,0.151-0.252,0.151-0.303,0.151c-0.1,0-0.201,0-0.402-0.303
		c-0.354-0.604-0.959-0.908-1.615-0.908c-1.264,0-1.92,0.857-1.92,2.625v0.252v18.23v0.303c0,1.615,0.605,2.322,1.92,2.322
		c1.313,0,1.867-0.707,1.867-2.424v-0.301V212.457L172.5,212.457z M163.969,214.074c-0.154-6.969-4.496-11.867-10.504-11.867
		c-1.869,0-3.688,0.504-5.305,1.517c-3.938,2.373-5.352,5.201-5.352,10.553c0,1.818,0.201,3.435,0.504,4.746
		c1.111,4.345,5.354,7.474,10.049,7.474c6.314,0,10.605-4.847,10.605-12.017v-0.405H163.969z M160.129,213.67v0.453
		c0,1.414-0.102,2.627-0.303,3.586c-0.658,2.879-3.383,5-6.414,5c-3.232,0-6.059-2.373-6.514-5.455
		c-0.102-0.707-0.203-2.322-0.203-3.687c0-1.11,0.053-1.918,0.152-2.475c0.506-2.879,3.332-5.052,6.666-5.052
		C157.654,206.043,160.027,208.771,160.129,213.67 M122.51,205.033l-0.102,0.103c-0.051,0.103-0.15,0.103-0.201,0.103
		c-0.102,0-0.152,0-0.152-0.304c-0.102-1.11-0.908-1.92-1.971-1.92c-1.211,0-1.816,0.81-1.816,2.373v0.305l-0.102,28.984v0.103
		c0,1.413,0.707,2.221,1.869,2.221c1.264,0,1.971-0.808,1.971-2.271v-0.354l0.049-9.039v-0.15c0-0.203,0.102-0.203,0.203-0.303
		c0.102,0,0.15,0,0.404,0.252c1.412,1.111,4.141,1.918,6.209,1.918c2.627,0,5.203-1.01,7.121-2.879
		c2.424-2.373,3.332-4.947,3.332-9.342c0-7.222-4.189-11.916-10.654-11.916c-2.322,0-4.443,0.707-6.008,2.02L122.51,205.033z
		 M135.537,215.285c-0.051,2.777-0.303,3.787-1.262,5.252c-1.264,1.769-3.133,2.777-5.354,2.777c-2.424,0-4.596-1.213-5.857-3.232
		c-0.959-1.563-1.059-2.067-1.059-5.807c0-2.576,0.252-3.586,1.313-4.949c1.211-1.516,3.383-2.574,5.352-2.574
		c2.121,0,4.445,1.214,5.707,2.929c0.908,1.213,1.162,2.321,1.162,5.051v0.554H135.537z"/>
	<path fill="#FFFFFF" d="M113.643,195.036c0-1.313-0.857-2.222-2.069-2.222c-1.263,0-2.224,0.908-2.224,2.169
		c0,1.213,0.961,2.172,2.172,2.172C112.684,197.155,113.643,196.196,113.643,195.036 M109.553,224.272v0.252
		c0,1.465,0.655,2.223,1.818,2.223c1.313,0,2.02-0.906,2.02-2.627v-0.197v-18.434v-0.254c0-1.264-0.808-2.223-1.918-2.223
		s-1.92,0.91-1.92,2.072v0.301V224.272L109.553,224.272z M87.285,204.376v-8.988v-0.352c0-1.517-0.708-2.323-1.971-2.323
		c-1.161,0-1.869,0.807-1.869,2.222v0.148l0.103,29.035v0.254c0,1.615,0.605,2.322,1.816,2.322c1.062,0,1.87-0.707,2.021-1.869
		c0-0.201,0.102-0.201,0.152-0.303c0.049,0,0.102,0,0.15,0.102l0.102,0.104l0.152,0.15c1.563,1.264,3.686,1.971,6.008,1.971
		c3.688,0,7.171-1.92,9.09-5.104c1.109-1.867,1.566-3.887,1.566-7.018c0-4.141-0.959-6.768-3.334-9.09
		c-1.918-1.869-4.494-2.93-7.121-2.93c-2.12,0-4.797,0.857-6.209,1.92c-0.103,0.1-0.202,0.1-0.202,0.15
		c-0.052,0.051-0.153,0.051-0.255,0.051c-0.149,0-0.199,0-0.199-0.303V204.376L87.285,204.376z M100.816,214.528v0.504
		c0,2.729-0.252,3.787-1.161,5.049c-1.16,1.666-3.636,2.93-5.706,2.93c-1.969,0-4.092-1.01-5.352-2.574
		c-1.162-1.414-1.313-2.172-1.313-5.605c0-3.029,0.101-3.635,1.06-5.15c1.313-2.02,3.435-3.232,5.857-3.232
		c2.171,0,4.091,1.01,5.354,2.828C100.516,210.69,100.768,211.749,100.816,214.528 M77.438,211.042v-0.252
		c0-4.645-3.787-8.18-8.736-8.18c-2.323,0-4.545,0.857-6.413,2.475c-0.202,0.201-0.303,0.25-0.454,0.25s-0.303-0.049-0.655-0.352
		c-1.719-1.516-3.89-2.324-6.061-2.324c-1.563,0-2.828,0.354-4.19,1.111c-0.354,0.201-0.506,0.303-0.605,0.254
		c-0.102,0-0.202,0-0.253-0.201l-0.151-0.154c-0.403-0.605-0.857-0.857-1.515-0.857c-1.262,0-1.969,0.857-1.969,2.373v0.201v18.383
		v0.252c0,1.869,0.555,2.574,1.919,2.574c1.313,0,1.918-0.857,1.918-2.727v-0.201v-11.059v-0.254c0-3.938,1.616-5.908,4.848-5.908
		c3.131,0,4.696,1.92,4.696,5.758v0.203v11.814v0.203c0,1.363,0.758,2.17,1.919,2.17s1.969-0.857,1.969-2.17v-0.404v-11.514v-0.252
		c0-3.736,1.767-5.809,4.948-5.809c3.081,0,4.849,1.869,4.849,5.102v0.252v12.422v0.152c0,1.414,0.706,2.221,1.867,2.221
		c1.212,0,2.071-0.857,2.071-2.271v-0.252L77.438,211.042L77.438,211.042z M39.565,220.687v-16.107c0-1.16-0.757-1.969-1.869-1.969
		c-0.858,0-1.515,0.555-1.767,1.414c-0.103,0.402-0.202,0.504-0.404,0.455c-0.102,0-0.202,0-0.251-0.053
		c-0.051,0-0.152,0-0.254-0.104c-2.12-1.313-3.787-1.816-5.908-1.816c-3.282,0-6.261,1.363-8.23,3.84
		c-1.818,2.221-2.524,4.441-2.524,8.078c0,3.688,0.706,6.01,2.423,8.131c1.969,2.424,5.201,3.938,8.332,3.938
		c2.374,0,4.596-0.756,6.565-2.322c0.201-0.201,0.304-0.201,0.403-0.201c0.101,0,0.203,0,0.252,0.15
		c0.858,1.414,1.919,2.172,3.182,2.172c0.96,0,1.717-0.908,1.717-2.02c0-0.455-0.151-0.908-0.556-1.211l-0.201-0.201
		c-0.656-0.607-0.909-1.113-0.909-2.021V220.687L39.565,220.687z M35.728,213.972v0.506c0,2.928-0.202,3.836-1.161,5.451
		c-1.062,1.719-3.181,2.83-5.455,2.83c-2.777,0-5.402-1.717-6.311-4.143c-0.354-0.959-0.558-2.475-0.558-4.342
		c0-1.061,0.051-1.969,0.153-2.525c0.605-3.182,3.433-5.604,6.665-5.604c1.969,0,3.889,0.906,5.149,2.473
		C35.426,210.083,35.728,211.144,35.728,213.972"/>
</g>
</svg>
