<?xml version="1.0" encoding="utf-8"?>
<!-- Generator: Adobe Illustrator 16.0.0, SVG Export Plug-In . SVG Version: 6.00 Build 0)  -->
<!DOCTYPE svg PUBLIC "-//W3C//DTD SVG 1.1//EN" "http://www.w3.org/Graphics/SVG/1.1/DTD/svg11.dtd">
<svg version="1.1" id="Layer_1" xmlns="http://www.w3.org/2000/svg" xmlns:xlink="http://www.w3.org/1999/xlink" x="0px" y="0px"
	 width="100px" height="100px" viewBox="0 0 100 100" enable-background="new 0 0 100 100" xml:space="preserve">
<path fill="#FFFFFF" d="M90.695,31.24c0.86-4.867-0.537-10.069-4.248-13.892c-4.773-4.918-11.946-6.083-17.874-3.47
	c-2.491-4.805-7.049-8.476-12.771-9.604c-9.253-1.83-18.254,3.642-21.064,12.414c-4.489-1.785-9.697-1.72-14.341,0.659
	c-8.542,4.366-11.925,14.827-7.564,23.371c-5.15,1.53-9.527,5.396-11.457,10.844c-3.204,9.045,1.526,18.981,10.575,22.192
	c3.498,1.241,7.112,1.265,10.431,0.337c5.018-1.947,22.124-0.855,20.357,21.988c0,0,2.169-10.16,1.935-15.058
	c-0.143-2.903-2.134-6.64-5.041-8.088c-2.606-1.308-8.413-3.237-12.375-5.708c-4.327-2.696-4.319-8.003,3.342-6.061
	c4.336,1.1,8.712,4.022,10.38,2.604c1.303-1.106-1.534-6.687-3.855-12.536c-2.165-5.431-4.044-10.933-4.208-11.397
	c-1.102-3.09-0.865-5.184,1.067-5.926c1.507-0.576,3.312-0.267,4.763,2.959c3.918,8.682,5.242,17.609,8.053,17.19
	c2.897-0.437,0.042-12.816,0.849-22.735c0.293-3.574,1.038-5.132,3.345-5.161c2.032-0.037,3.25,1.76,3.375,6
	c0.391,13.499-2.035,21.474,1.548,21.746c2.104,0.159,2.746-7.421,7.095-17.513c0.772-1.799,2.09-5.111,4.852-3.976
	c2.511,1.031,2.025,3.958,0.868,6.663c-5.037,11.722-7.981,16.528-5.72,17.72c1.162,0.612,2.709-0.717,4.744-3.114
	c2.07-2.441,4.049-5.059,4.475-5.576c1.38-1.713,3.191-2.482,4.471-1.225c0.935,0.919,0.711,3.113-0.893,5.049
	c-3.196,3.861-6.025,6.856-7.999,9.306c-2.723,3.362-4.081,5.581-4.751,6.673c-1.339,2.16-3.213,4.672-4.329,11.256
	c-1.01,5.952,2.142,14.371,2.597,16.516c-3.926-31.387,15.83-34.286,22.095-34.202c8.143,0.151,15.202-5.936,16.11-14.192
	C100.285,40.425,96.556,34.118,90.695,31.24"/>
</svg>
