<?xml version="1.0" encoding="utf-8"?>
<!-- Generator: Adobe Illustrator 16.0.0, SVG Export Plug-In . SVG Version: 6.00 Build 0)  -->
<!DOCTYPE svg PUBLIC "-//W3C//DTD SVG 1.1//EN" "http://www.w3.org/Graphics/SVG/1.1/DTD/svg11.dtd">
<svg version="1.1" id="Layer_1" xmlns="http://www.w3.org/2000/svg" xmlns:xlink="http://www.w3.org/1999/xlink" x="0px" y="0px"
	 width="700px" height="150px" viewBox="0 0 700 150" enable-background="new 0 0 700 150" xml:space="preserve">
<g>
	<path fill="#939598" d="M169.681,34.32c-10.211,9.212-22.643,17.87-30.301,27.193c-6.882,8.324-10.434,15.871-10.434,24.307
		c0,8.769,5.217,13.875,11.321,13.875s9.878-5.217,9.878-9.879c0-3.107-1.554-5.883-5.106-6.992l3.33-6.771
		c5.882,1.775,8.769,7.325,8.769,13.208c0,7.991-5.55,16.648-16.538,16.648c-11.876,0-23.752-7.325-23.752-22.753
		c0-8.88,4.662-18.203,10.322-24.197c14.54-15.317,34.63-27.082,46.617-37.959c2.22-6.326,4.44-12.209,7.104-14.651l5.883,3.663
		c-0.999,5.216-3.663,10.1-7.547,14.762c-3.885,27.748-6.549,86.019-24.196,110.66c-4.551,6.438-10.988,9.545-19.202,9.545
		c-8.214,0-12.653-5.327-12.653-12.542c0-7.437,5.771-14.873,16.427-14.983l0.222,8.768c-6.771,0.889-9.435,4.773-9.435,8.103
		c0,3.219,2.331,5.105,5.328,5.105c4.773,0,8.213-2.553,11.543-6.881C159.691,115.899,160.246,69.505,169.681,34.32z"/>
	<path fill="#939598" d="M213.415,88.484c0-0.443,0-0.888,0-1.443c0-14.983,8.325-33.408,20.756-33.408
		c5.882,0,8.768,4.44,8.768,10.211c0,8.99-6.771,21.421-19.646,26.75c0.888,3.885,2.886,6.438,6.438,6.438
		c6.549,0,13.097-6.882,17.315-18.203c0.666,0,3.108,0.889,3.108,1.555c-5.55,14.539-12.209,26.083-23.086,26.083
		c-7.77,0-11.876-5.661-13.208-13.431c-1.443,0.223-2.886,0.223-4.329,0.223c-1.665,0-3.219-0.111-4.772-0.223
		c-3.441,7.437-8.99,13.431-16.871,13.431c-7.658,0-10.988-7.992-10.988-18.093c0-6.215,1.221-13.208,3.44-19.756l3.33,0.777
		c0.888-8.325,6.438-15.761,14.429-15.761c7.547,0,11.321,7.548,11.321,18.647c0,4.773-0.999,10.766-2.886,16.427
		c0.999,0.11,1.998,0.11,3.108,0.11C210.973,88.817,212.194,88.707,213.415,88.484z M184.779,87.041
		c0,6.438,1.665,10.989,4.55,10.989c2.331,0,4.551-2.775,6.66-7.325c-5.328-2.332-8.768-6.105-10.655-10.322
		C185,82.713,184.779,84.933,184.779,87.041z M189.329,71.059c0,5.328,2.553,11.433,8.436,14.873
		c1.776-5.328,2.997-11.543,2.997-16.538s-1.221-8.658-4.329-8.658C192.104,60.736,189.329,65.509,189.329,71.059z M222.627,84.933
		c8.436-5.55,12.875-15.539,12.875-20.866c0-2.109-0.777-3.552-2.22-3.552C227.733,60.515,222.738,74.277,222.627,84.933z"/>
	<path fill="#939598" d="M253.487,42.867c0.111-1.11,0.222-2.22,0.222-3.219c0-4.44-1.11-7.992-3.108-12.542l7.88-3.663
		c1.221,3.996,1.776,8.103,1.776,11.987c0,2.997-0.333,5.883-0.888,8.436L253.487,42.867z"/>
	<path fill="#939598" d="M270.358,94.034c1.443,2.442,2.775,3.33,4.884,3.33c2.775,0,4.329-1.998,4.329-5.993
		c0-6.66-2.997-13.098-5.438-20.646c-3.885,10.767-8.99,22.31-15.428,34.963l-3.108-1.554c6.881-13.985,12.764-27.748,17.093-38.848
		c-0.888-3.44-1.332-7.104-1.332-10.988c0-4.551,0.666-9.545,2.442-14.984l8.879,1.554c-1.11,5.772-2.664,11.766-4.551,17.981
		c0.333,2.442,0.999,4.662,2.331,6.881c3.885,6.993,8.657,16.205,8.769,24.53v0.444c2.109-3.441,3.884-7.548,5.549-11.877
		c0.666,0,3.108,0.889,3.108,1.555c-2.886,7.547-6.771,14.65-11.099,20.089l-0.555,0.666c-2.553,3.663-6.771,5.328-11.654,5.328
		c-5.216,0-9.434-2.997-10.988-7.548L270.358,94.034z"/>
	<path fill="#939598" d="M379.688,25.33c-7.437,13.097-9.212,34.296-11.876,54.387c15.095-1.998,25.195-19.091,25.195-35.629
		c0-16.316-9.878-32.299-34.519-32.299c-25.417,0-37.183,19.313-37.183,35.851c0,12.542,6.771,23.53,19.313,23.53
		c1.665,0,3.219-0.222,4.662-0.555l1.776,9.545c-2.109,0.777-4.44,1.109-6.882,1.109c-18.203,0-27.97-14.873-27.97-31.41
		c0-20.534,15.095-43.62,47.616-43.62c30.412,0,43.287,18.758,43.287,37.959c0,19.979-13.874,40.401-36.184,41.29
		c-3.552,24.418-9.435,45.729-29.746,45.729c-12.875,0-19.979-7.437-19.979-18.758c0-8.99,6.215-17.87,17.426-18.313v9.102
		c-5.771,0.665-9.435,6.215-9.435,11.32c0,7.215,5.439,11.211,11.654,11.211c28.525,0,14.318-70.037,32.743-103.889L379.688,25.33z"
		/>
	<path fill="#939598" d="M416.988,54.743c-3.885,17.314-7.104,30.189-7.104,39.291c0,3.219,1.221,3.773,2.22,3.773
		c2.886,0,6.548-6.216,11.432-18.979c0.556,0,3.108,0.777,3.108,1.443v0.111c-4.884,12.652-8.769,25.527-17.87,25.527
		c-5.993,0-7.991-5.55-7.991-13.208c0-12.319,4.884-29.968,6.771-37.959H416.988z M408.886,42.645c0-3.996,2.886-8.768,7.77-8.768
		c3.662,0,5.216,2.664,5.216,5.771c0,3.996-2.886,8.657-7.769,8.657C410.551,48.305,408.886,45.642,408.886,42.645z"/>
	<path fill="#939598" d="M424.314,101.359c0.888-0.11,2.663-0.333,3.552-0.333c0.555,0,1.109,0,1.664,0.111
		c4.995-6.216,9.768-24.974,9.768-33.853c0-3.552-1.221-4.884-2.774-4.884c-3.885,0-5.328,6.104-9.879,17.981
		c0,0-3.107-0.556-3.107-1.443v-0.111c4.772-12.764,6.216-24.64,14.762-24.64c7.77,0,10.988,6.881,10.988,15.539
		c0,11.765-5.66,26.86-13.763,33.409c0.999,0.666,1.998,1.442,2.774,2.22c6.327-6.438,12.986-14.318,17.648-26.527
		c0.776,0,3.107,0.666,3.107,1.332c-4.772,12.432-12.099,20.866-18.758,28.081c1.554,2.997,2.331,6.549,2.331,10.211
		c0,9.989-5.55,20.423-15.206,20.423c-4.106,0-6.771-3.107-6.771-7.547c0-8.103,5.883-14.318,11.987-20.423
		c-0.444-1.998-1.11-3.774-1.998-5.105c-1.11,0.333-2.331,0.555-3.552,0.555c-1.11,0-2.108-0.111-3.107-0.444L424.314,101.359z
		 M433.526,118.342c0-0.888-0.111-1.665-0.111-2.553c-4.55,5.105-7.77,11.21-7.77,15.872c0,1.664,0.666,2.663,2.109,2.663
		C431.195,134.324,433.526,126.222,433.526,118.342z"/>
	<path fill="#939598" d="M456.726,101.359c0.888-0.11,2.663-0.333,3.552-0.333c0.555,0,1.109,0,1.664,0.111
		c4.995-6.216,9.768-24.974,9.768-33.853c0-3.552-1.221-4.884-2.774-4.884c-3.885,0-5.328,6.104-9.879,17.981
		c0,0-3.107-0.556-3.107-1.443v-0.111c4.772-12.764,6.216-24.64,14.762-24.64c7.77,0,10.988,6.881,10.988,15.539
		c0,11.765-5.66,26.86-13.763,33.409c0.999,0.666,1.998,1.442,2.774,2.22c6.327-6.438,12.986-14.318,17.648-26.527
		c0.776,0,3.107,0.666,3.107,1.332c-4.772,12.432-12.099,20.866-18.758,28.081c1.554,2.997,2.331,6.549,2.331,10.211
		c0,9.989-5.55,20.423-15.206,20.423c-4.106,0-6.771-3.107-6.771-7.547c0-8.103,5.883-14.318,11.987-20.423
		c-0.444-1.998-1.11-3.774-1.998-5.105c-1.11,0.333-2.331,0.555-3.552,0.555c-1.11,0-2.108-0.111-3.107-0.444L456.726,101.359z
		 M465.938,118.342c0-0.888-0.111-1.665-0.111-2.553c-4.551,5.105-7.77,11.21-7.77,15.872c0,1.664,0.666,2.663,2.109,2.663
		C463.606,134.324,465.938,126.222,465.938,118.342z"/>
	<path fill="#939598" d="M494.242,106.466c-5.438,0-7.658-5.994-7.658-14.097c0-15.65,8.546-38.736,19.09-38.736
		c4.107,0,6.438,2.442,7.215,7.437l1.221-6.215h7.881c-3.773,16.871-7.325,30.966-7.325,42.954c0,18.869,11.32,27.859,25.306,27.859
		c18.092,0,31.189-16.315,31.189-36.517c0-16.871-9.324-26.194-27.083-28.081l0.777-8.768c23.53,1.776,33.853,17.093,33.853,36.294
		c0,20.09-14.429,42.621-39.069,42.621c-22.42,0-32.521-13.652-32.521-35.962c0-0.443,0-0.888,0-1.442
		C504.564,100.583,500.68,106.466,494.242,106.466z M495.907,91.26c0,3.44,0.666,5.771,2.33,5.771
		c5.106,0,11.433-18.092,11.433-28.414c0-4.107-0.999-6.993-3.44-6.993C501.567,61.625,495.907,81.159,495.907,91.26z"/>
</g>
</svg>
